<?xml version="1.0" encoding="UTF-8"?>
<svg id="Layer_2" data-name="Layer 2" xmlns="http://www.w3.org/2000/svg" viewBox="0 0 74.32 74.32">
  <defs>
    <style>
      .cls-1 {
        fill: #4d4d4d;
      }

      .cls-2 {
        fill: #fbe9d6;
      }
    </style>
  </defs>
  <g id="Mobile">
    <g>
      <circle class="cls-2" cx="37.16" cy="37.16" r="37.16"/>
      <g id="g393">
        <g id="g407">
          <g id="path409">
            <path class="cls-1" d="M39.47,33.72h-3.79c-.21,0-.38-.17-.38-.38v-2.75h-6.66v2.75c0,.21-.17.38-.38.38h-3.79c-.21,0-.38-.17-.38-.38v-3.09c0-2.32,1.89-4.21,4.21-4.21h7.33c2.32,0,4.21,1.89,4.21,4.21v3.09c0,.21-.17.38-.38.38ZM36.06,32.97h3.04v-2.71c0-1.91-1.55-3.46-3.46-3.46h-7.33c-1.91,0-3.46,1.55-3.46,3.46v2.71h3.04v-2.71c0-.21.21-.41.41-.41h7.33c.21,0,.41.21.41.41v2.71Z"/>
          </g>
        </g>
        <g id="g411">
          <g id="path413">
            <path class="cls-1" d="M43.08,56.18h-22.22c-1.9,0-3.45-1.55-3.45-3.45v-16.31c0-1.9,1.55-3.45,3.45-3.45h22.22c1.9,0,3.45,1.55,3.45,3.45v10.36c0,.21-.17.38-.38.38s-.38-.17-.38-.38v-10.36c0-1.49-1.21-2.7-2.7-2.7h-22.22c-1.49,0-2.7,1.21-2.7,2.7v16.31c0,1.49,1.21,2.7,2.7,2.7h22.22c1.49,0,2.7-1.21,2.7-2.7v-3.63c0-.21.17-.38.38-.38s.38.17.38.38v3.63c0,1.9-1.55,3.45-3.45,3.45Z"/>
          </g>
        </g>
        <g id="g415">
          <g id="path417">
            <path class="cls-1" d="M55.22,24.4h-11.11c-.11,0-.21-.03-.29-.1-.08-.07-.13-.17-.13-.27v-2.66c0-1.78,1.45-3.23,3.23-3.23h5.45c1.78,0,3.23,1.45,3.23,3.23v2.66c0,.21-.17.38-.38.38ZM44.44,23.65h10.41v-2.28c0-1.37-1.11-2.48-2.48-2.48h-5.45c-1.37,0-2.48,1.11-2.48,2.48v2.28Z"/>
          </g>
        </g>
        <g id="g419">
          <g id="path421">
            <path class="cls-1" d="M51.24,56.18h-8.16c-.21,0-.38-.17-.38-.38s.17-.38.38-.38c1.49,0,2.7-1.21,2.7-2.7v-16.31c0-1.49-1.21-2.7-2.7-2.7h-.34c-.21,0-.38-.17-.38-.38v-2.91c0-1.65,1.35-3,3-3h8.54c1.65,0,3,1.35,3,3v20.08c0,3.12-2.54,5.67-5.67,5.67ZM45.23,55.43h6.01c2.71,0,4.92-2.21,4.92-4.92v-20.08c0-1.24-1.01-2.25-2.25-2.25h-8.54c-1.24,0-2.25,1.01-2.25,2.25v2.53c1.89.02,3.41,1.56,3.41,3.45v16.31c0,1.09-.51,2.07-1.31,2.7Z"/>
          </g>
        </g>
        <g id="g423">
          <g id="path425">
            <path class="cls-1" d="M55.19,28.19h-11.09c-.95,0-1.73-.77-1.73-1.73v-1.09c0-.95.77-1.73,1.73-1.73h11.09c.95,0,1.73.77,1.73,1.73v1.09c0,.95-.77,1.73-1.73,1.73ZM44.1,24.4c-.54,0-.98.44-.98.98v1.09c0,.54.44.98.98.98h11.09c.54,0,.98-.44.98-.98v-1.09c0-.54-.44-.98-.98-.98h-11.09Z"/>
          </g>
        </g>
        <g id="path385">
          <path class="cls-1" d="M42.75,52.77h-21.54c-.21,0-.38-.17-.38-.38v-15.64c0-.21.17-.38.38-.38h21.54c.21,0,.38.17.38.38v15.64c0,.21-.17.38-.38.38ZM21.58,52.02h20.79v-14.89h-20.79v14.89Z"/>
        </g>
        <rect class="cls-1" x="28.52" y="40.42" width="6.91" height="2.79" rx=".41" ry=".41"/>
        <rect class="cls-1" x="46.18" y="31.02" width="6.91" height="2.79" rx=".41" ry=".41"/>
      </g>
    </g>
  </g>
</svg>