<?xml version="1.0" encoding="UTF-8"?>
<svg id="Layer_2" data-name="Layer 2" xmlns="http://www.w3.org/2000/svg" viewBox="0 0 74.32 74.32">
  <defs>
    <style>
      .cls-1 {
        fill: #4d4d4d;
        fill-rule: evenodd;
      }

      .cls-2 {
        fill: #e9f4e3;
      }
    </style>
  </defs>
  <g id="Mobile">
    <g>
      <circle class="cls-2" cx="37.16" cy="37.16" r="37.16"/>
      <path class="cls-1" d="M52.69,21.64c-5.3-5.3-13.92-5.3-19.22,0-4.51,4.51-5.28,11.55-1.85,16.93l-3.09,3.09c-.63-.49-1.53-.44-2.1.13l-8.29,8.29c-.62.62-.62,1.62,0,2.24l3.88,3.88c.62.62,1.62.62,2.24,0l8.29-8.29c.56-.57.62-1.47.13-2.1l3.09-3.09c5.38,3.43,12.41,2.66,16.93-1.85,5.3-5.3,5.3-13.93,0-19.23h0ZM31.65,47.02l-8.29,8.29c-.13.13-.34.13-.46,0l-3.88-3.88c-.13-.13-.13-.34,0-.46l8.29-8.29c.13-.13.34-.13.47,0l3.88,3.88c.13.13.13.34,0,.47ZM31.79,44.91l-2.37-2.37,2.93-2.93c.69.88,1.49,1.68,2.37,2.37l-2.93,2.93ZM51.8,39.97c-4.82,4.81-12.62,4.81-17.44,0-4.81-4.82-4.81-12.62,0-17.44,4.81-4.81,12.62-4.81,17.43,0,4.81,4.81,4.81,12.63,0,17.44ZM50.93,23.4c-4.27-4.4-11.3-4.51-15.71-.24-4.4,4.27-4.51,11.3-.24,15.71.08.08.16.16.24.24,4.34,4.34,11.37,4.34,15.71,0h0c4.33-4.33,4.33-11.38,0-15.71ZM50.04,38.21c-3.85,3.85-10.08,3.85-13.93,0-3.85-3.85-3.85-10.08,0-13.93,3.85-3.85,10.08-3.85,13.93,0,0,0,0,0,0,0,3.85,3.8,3.89,10,.09,13.84-.03.03-.06.06-.09.09ZM37.88,32.88c-.4-.42-.39-1.1.04-1.5.42-.4,1.1-.39,1.5.04l1.97,2.07,5.35-5.74c.4-.43,1.07-.45,1.5-.05s.45,1.07.05,1.5l-6.12,6.56c-.2.21-.48.34-.77.34h0c-.29,0-.57-.12-.77-.33l-2.75-2.89h0Z"/>
    </g>
  </g>
</svg>