<?xml version="1.0" encoding="UTF-8"?>
<svg id="Layer_2" data-name="Layer 2" xmlns="http://www.w3.org/2000/svg" viewBox="0 0 74.32 74.32">
  <defs>
    <style>
      .cls-1 {
        fill: #4d4d4d;
      }

      .cls-2 {
        fill: #ffe6eb;
      }
    </style>
  </defs>
  <g id="Mobile">
    <g>
      <circle class="cls-2" cx="37.16" cy="37.16" r="37.16"/>
      <g>
        <path class="cls-1" d="M57.11,39.57c-.1-.2-.35-.3-.55-.35-1.14,0-11-.4-11-11.84,0-.35-.3-.65-.65-.65s-.65.3-.65.65c0,11.44-9.85,11.84-10.95,11.84-.15,0-.3.05-.4.15-.1.05-.15.15-.2.2-.1.2-.1.45,0,.65.1.2.35.35.6.35h.05c1.14,0,10.95.4,10.95,11.84,0,.35.3.65.65.65s.65-.3.65-.65c0-11.39,9.8-11.84,10.95-11.84.25,0,.45-.15.6-.35.1-.2.1-.45-.05-.65ZM44.91,47.53c-1.44-4.73-4.98-6.77-7.76-7.66,2.79-.9,6.32-2.94,7.76-7.66,1.44,4.73,4.98,6.77,7.76,7.66-2.79.9-6.32,2.94-7.76,7.66Z"/>
        <path class="cls-1" d="M36.7,26.63c.35,0,.65-.3.65-.7,0-.35-.3-.65-.65-.65-.6,0-5.97-.2-5.97-6.47,0-.35-.3-.65-.65-.65s-.65.3-.65.65c0,6.27-5.37,6.47-5.97,6.47h-.05c-.35.05-.6.3-.6.65s.3.65.65.65c.65,0,5.97.2,5.97,6.47,0,.35.3.65.65.65.3.05.6-.25.6-.6,0-6.27,5.37-6.47,5.97-6.47h.05ZM30.04,29.47c-.8-1.89-2.24-2.94-3.58-3.53,1.44-.6,2.79-1.74,3.58-3.53.8,1.89,2.24,2.94,3.58,3.53-1.44.6-2.79,1.74-3.58,3.53Z"/>
        <path class="cls-1" d="M30.98,47.73c-.6,0-5.97-.2-5.97-6.47,0-.35-.3-.65-.65-.65s-.65.3-.65.65c0,6.27-5.37,6.47-5.97,6.47h-.05c-.35.05-.6.3-.6.65s.3.65.65.65c.65,0,5.97.2,5.97,6.47,0,.35.3.65.65.65.3.1.6-.2.6-.6,0-6.27,5.37-6.47,5.97-6.47h.05c.35,0,.65-.3.65-.7,0-.35-.3-.65-.65-.65ZM24.32,51.96c-.85-1.89-2.24-2.94-3.58-3.53,1.44-.6,2.79-1.74,3.58-3.53.8,1.89,2.24,2.94,3.58,3.53-1.44.6-2.79,1.74-3.58,3.53Z"/>
      </g>
    </g>
  </g>
</svg>