<?xml version="1.0" encoding="UTF-8"?>
<svg id="Layer_2" data-name="Layer 2" xmlns="http://www.w3.org/2000/svg" viewBox="0 0 74.32 74.32">
  <defs>
    <style>
      .cls-1 {
        fill: #4d4d4d;
      }

      .cls-2 {
        fill: #dff5f7;
      }

      .cls-3 {
        fill: #ffe6eb;
      }
    </style>
  </defs>
  <g id="Mobile">
    <g>
      <circle class="cls-2" cx="37.16" cy="37.16" r="37.16"/>
      <g>
        <g>
          <path class="cls-1" d="M56.5,41.43c0-1.1-.49-2.09-1.26-2.77.77-.67,1.26-1.66,1.26-2.77,0-2.02-1.64-3.66-3.66-3.66h-10.9l1.26-4.75c1.04-3.92-.79-7.58-3.09-8.72-1.34-.67-2.42-.78-3.3-.33-1.2.62-1.58,2.05-1.8,3.51-.87,5.52-2.18,9.24-6.23,12.31-.28-1.06-1.25-1.85-2.4-1.85h-6.06c-1.37,0-2.49,1.12-2.49,2.49v18.05c0,1.37,1.12,2.49,2.49,2.49h6.06c1.16,0,2.13-.79,2.41-1.86,2.69,1.53,6.82,2.59,9.44,2.59h12.51c2.02,0,3.66-1.64,3.66-3.66,0-.74-.22-1.42-.59-2,1.55-.42,2.7-1.85,2.7-3.54,0-1.1-.49-2.09-1.26-2.77.77-.67,1.26-1.66,1.26-2.77h0ZM27.07,52.95c0,.38-.32.69-.69.69h-6.06c-.38,0-.69-.32-.69-.69v-18.05c0-.38.32-.69.69-.69h6.06c.38,0,.69.32.69.69v18.05h0ZM49.07,39.56h3.77c1.03,0,1.87.84,1.87,1.87s-.84,1.87-1.87,1.87h-3.77c-.5,0-.9.4-.9.9s.4.9.9.9h3.77c1.03,0,1.87.84,1.87,1.87s-.84,1.87-1.87,1.87h-3.77c-.5,0-.9.4-.9.9s.4.9.9.9h1.67c1.03,0,1.87.84,1.87,1.87s-.84,1.87-1.87,1.87h-12.51c-2.58,0-7.16-1.26-9.36-2.87v-15.1c2.48-1.66,4.23-3.52,5.46-5.83,1.13-2.11,1.87-4.61,2.46-8.34.08-.52.3-1.91.85-2.2.32-.16.91-.04,1.68.34,1.45.72,3.01,3.44,2.15,6.66l-1.56,5.87c-.15.56.29,1.13.87,1.13h12.06c1.03,0,1.87.84,1.87,1.87s-.84,1.87-1.87,1.87h-3.77c-.5,0-.9.4-.9.9s.4.9.9.9h0Z"/>
          <path class="cls-2" d="M50.74,56.33h-12.51c-2.7,0-6.75-1.09-9.34-2.51-.37,1.06-1.37,1.78-2.51,1.78h-6.06c-1.47,0-2.66-1.19-2.66-2.66v-18.05c0-1.47,1.19-2.66,2.66-2.66h6.06c1.12,0,2.11.7,2.49,1.74,3.87-3.02,5.13-6.72,5.97-12.05.24-1.5.63-2.99,1.9-3.64.93-.48,2.06-.37,3.46.33,2.35,1.17,4.23,4.92,3.17,8.92l-1.2,4.53h10.67c2.11,0,3.83,1.72,3.83,3.83,0,1.05-.43,2.04-1.18,2.77.75.72,1.18,1.72,1.18,2.77s-.43,2.04-1.18,2.77c.75.72,1.18,1.72,1.18,2.77,0,1.65-1.06,3.11-2.61,3.64.33.58.5,1.23.5,1.9,0,2.11-1.72,3.83-3.83,3.83ZM28.67,53.31l.19.11c2.53,1.44,6.64,2.57,9.35,2.57h12.51c1.93,0,3.49-1.57,3.49-3.49,0-.68-.2-1.34-.57-1.91l-.13-.2.23-.06c1.52-.41,2.57-1.8,2.57-3.37,0-1.01-.44-1.97-1.21-2.64l-.15-.13.15-.13c.77-.67,1.21-1.63,1.21-2.64s-.44-1.97-1.21-2.64l-.15-.13.15-.13c.77-.67,1.21-1.63,1.21-2.64,0-1.93-1.57-3.49-3.49-3.49h-11.12l1.31-4.96c1.02-3.83-.76-7.41-3-8.53-1.29-.65-2.32-.75-3.15-.33-1.13.58-1.49,1.97-1.71,3.39-.87,5.51-2.18,9.3-6.3,12.42l-.2.15-.07-.25c-.27-1.01-1.19-1.72-2.24-1.72h-6.06c-1.28,0-2.32,1.04-2.32,2.32v18.05c0,1.28,1.04,2.32,2.32,2.32h6.06c1.06,0,1.98-.71,2.24-1.74l.06-.22ZM50.74,54.54h-12.51c-2.59,0-7.19-1.24-9.46-2.9l-.07-.05v-15.28l.08-.05c2.46-1.64,4.18-3.48,5.41-5.77,1.12-2.1,1.85-4.57,2.44-8.29.15-.93.39-2.03.94-2.32.47-.24,1.26.05,1.83.34,1.5.75,3.12,3.55,2.24,6.85l-1.56,5.87c-.06.22,0,.44.13.63s.35.29.57.29h12.06c1.12,0,2.04.92,2.04,2.04s-.92,2.04-2.04,2.04h-3.77c-.4,0-.73.33-.73.73s.33.73.73.73h3.77c1.12,0,2.04.92,2.04,2.04s-.92,2.04-2.04,2.04h-3.77c-.4,0-.73.33-.73.73s.33.73.73.73h3.77c1.12,0,2.04.92,2.04,2.04s-.92,2.04-2.04,2.04h-3.77c-.4,0-.73.33-.73.73s.33.73.73.73h1.67c1.12,0,2.04.92,2.04,2.04s-.92,2.04-2.04,2.04ZM29.03,51.41c2.21,1.57,6.73,2.79,9.19,2.79h12.51c.94,0,1.7-.76,1.7-1.7s-.76-1.7-1.7-1.7h-1.67c-.59,0-1.07-.48-1.07-1.07s.48-1.07,1.07-1.07h3.77c.94,0,1.7-.76,1.7-1.7s-.76-1.7-1.7-1.7h-3.77c-.59,0-1.07-.48-1.07-1.07s.48-1.07,1.07-1.07h3.77c.94,0,1.7-.76,1.7-1.7s-.76-1.7-1.7-1.7h-3.77c-.59,0-1.07-.48-1.07-1.07s.48-1.07,1.07-1.07h3.77c.94,0,1.7-.76,1.7-1.7s-.76-1.7-1.7-1.7h-12.06c-.33,0-.64-.15-.84-.42-.21-.27-.28-.6-.19-.92l1.56-5.87c.83-3.13-.67-5.76-2.06-6.46-.69-.35-1.26-.47-1.52-.34-.32.16-.57.86-.76,2.07-.59,3.75-1.33,6.26-2.47,8.39-1.24,2.32-2.97,4.18-5.44,5.84v14.92ZM26.37,53.81h-6.06c-.47,0-.87-.4-.87-.87v-18.05c0-.47.4-.87.87-.87h6.06c.47,0,.87.4.87.87v18.05c0,.47-.4.87-.87.87ZM20.31,34.37c-.28,0-.52.24-.52.52v18.05c0,.28.24.52.52.52h6.06c.28,0,.52-.24.52-.52v-18.05c0-.28-.24-.52-.52-.52h-6.06Z"/>
        </g>
        <g>
          <path class="cls-1" d="M23.55,37.39c-.5,0-.9.4-.9.9s.4.9.9.9.9-.4.9-.9h0c0-.5-.4-.9-.9-.9Z"/>
          <path class="cls-3" d="M23.55,39.35c-.59,0-1.07-.48-1.07-1.07s.48-1.07,1.07-1.07,1.07.48,1.07,1.06-.48,1.07-1.07,1.07ZM23.55,37.56c-.4,0-.73.33-.73.73s.33.73.73.73.73-.33.73-.73-.33-.73-.73-.73Z"/>
        </g>
      </g>
    </g>
  </g>
</svg>