<?xml version="1.0" encoding="UTF-8"?>
<svg id="Layer_2" data-name="Layer 2" xmlns="http://www.w3.org/2000/svg" viewBox="0 0 36.01 47">
  <defs>
    <style>
      .cls-1 {
        fill: #303030;
      }
    </style>
  </defs>
  <g id="Desktop_upto_1920px_" data-name="Desktop (upto 1920px)">
    <g>
      <path class="cls-1" d="M20.03,4.97c.3-.01.54-.25.54-.57s-.24-.55-.54-.55c-.31,0-.57.25-.57.55,0,.31.25.55.57.57"/>
      <path class="cls-1" d="M22.88,5.95c.31,0,.57-.25.58-.55-.01-.3-.27-.55-.58-.57-.28.01-.54.27-.54.57s.25.55.54.55"/>
      <path class="cls-1" d="M15.73,4.94c.31,0,.55-.24.54-.54.02-.31-.22-.57-.54-.55-.3-.01-.54.24-.54.55s.24.54.54.54"/>
      <path class="cls-1" d="M24.28,6.67c.3-.01.55-.25.57-.57-.01-.3-.27-.54-.57-.54s-.55.24-.54.54c-.01.31.24.55.54.57"/>
      <path class="cls-1" d="M21.47,5.34c.31,0,.55-.25.57-.57-.01-.3-.25-.54-.57-.54s-.52.24-.52.54.22.57.52.57"/>
      <path class="cls-1" d="M16.65,3.45c0,.67.55,1.23,1.24,1.22.65.01,1.21-.55,1.19-1.22.01-.58-.39-1.07-.94-1.18v-.71h.65v-.55h-.65V0h-.57v1.01h-.67v.54h.67v.73c-.52.13-.92.63-.92,1.18"/>
      <path class="cls-1" d="M10.52,7.56c.31-.01.55-.27.57-.57-.01-.3-.25-.55-.57-.55s-.54.25-.54.55.24.55.54.57"/>
      <path class="cls-1" d="M25.49,7.62c.28-.01.52-.25.54-.57-.01-.3-.25-.54-.54-.54-.33,0-.57.24-.58.54.01.31.25.55.58.57"/>
      <path class="cls-1" d="M11.72,6.77c.3-.01.54-.27.54-.58,0-.28-.24-.54-.54-.54-.31,0-.55.25-.54.54-.01.31.22.57.54.58"/>
      <path class="cls-1" d="M25.74,8.63c-1.95-2.25-4.87-3.48-7.77-3.48s-5.74,1.29-7.68,3.54l1.38.64v-.51c1.15-1.22,3.62-2.56,5.13-2.56l.34,2.25.89-.89.79.79.24-2.11c1.52-.03,4.2,1.12,5.36,2.43v.55l1.31-.64Z"/>
      <path class="cls-1" d="M12.41,15.46h11.4l2.22-6.38-1.55.79-.1.98c-.16-.33-.52-.94-.95-.92-1.16-.01-1.1,1.61-.71,2.56h.54c.02-.45-.19-1.13.28-1.13.49-.01.51,1.62-.92,1.61-.74,0-1.24-.65-.97-2.19h.52l.1-.68h-.51l.25-1.55h-.76l-.21,1.52h-.45c-.03.25-.09.48-.09.71.18.01.3.01.48,0-.13.89-.33,2.28-1.61,2.19-1.21-.07-.97-1.68-.36-1.64.39-.02.19.7,0,1.13h.67c.61-1.01.83-2.57-.16-2.53-.43,0-.65.31-.88.51l.15-1.32-.74-.79-.86.76.19,1.35c-.24-.21-.54-.55-.95-.51-.88.06-.61,1.49-.16,2.53h.7c-.18-.43-.31-1.06.06-1.07.88-.12.73,1.58-.46,1.61-1.22.01-1.26-1.34-1.4-2.22.16.01.31.01.51,0-.03-.24-.06-.43-.09-.68h-.51l-.25-1.52h-.73l.22,1.55h-.51l.09.65h.54c.27,1.58-.31,2.22-1.04,2.22-1.35,0-1.28-1.65-.88-1.64.45,0,.31.71.31,1.16h.57c.52-.95.36-2.53-.79-2.53-.45,0-.6.6-.76.92l-.12-.98-1.68-.85,2.37,6.38Z"/>
      <path class="cls-1" d="M14.31,5.37c.3,0,.54-.24.54-.54s-.24-.55-.54-.57c-.31.01-.57.25-.57.57s.25.54.57.54"/>
      <path class="cls-1" d="M12.99,5.98c.3-.01.54-.25.54-.58,0-.28-.24-.54-.54-.54s-.55.25-.58.54c.03.33.27.57.58.58"/>
      <path class="cls-1" d="M30.87,18.92c-1.71.02-3.45.45-5.15,1.18-4.35,1.89-8.4,5.79-10.79,10.19l.1.06.34.24c.28.16.37.22.4.24h-.01s.09.04.1.04l.06.04.22.12c.55.31,1.15.62,1.77.82l.31.1c.19.07.39.15.58.19,5.92,2.22,11.55-1.68,13.14-2.93,0,0,.01-.01.03-.01l.48-.42c.19-.16.43-.37.6-.51-.12.19-.4.55-1.06,1.29-.42.48-3.2,3.18-6.42,4.87.05-.02.1-.04.15-.06,3.8-1.68,7.35-4.14,9.09-7.41.8-1.28,1.21-2.6,1.19-3.93-.04-2.72-1.98-4.17-5.13-4.12M26.11,30.9c-.13.06-.25.13-.39.19-1.85.88-3.96,1.28-6.18,1.03l.51-1.37c1.37-3.42,3.47-6.56,5.67-8.48,1.34-1.18,2.72-1.89,3.99-1.92,3.44-.09,3.27,6.73-3.6,10.55"/>
      <path class="cls-1" d="M8.67,30.49c.25.12.51.22.76.37l.1.04c.43.19.85.39,1.31.54.71.3,1.62.67,1.77.68l-.03-.02,1.32.42q1.82.57,1.83.57l.64.16c.33.07.67.15,1.01.22.18.03.52,0,.52-.13,0-.1-.57-.24-.67-.27-.83-.19-1.55-.42-2.38-.73l-.28-.09c-.1-.04-.19-.09-.3-.1l-.46-.21-.19-.07-.58-.25s-.09-.06-.09-.06c0,0-.06-.04-.07-.04-.48-.24-.97-.49-1.41-.82-.79-.49-1.61-1.03-2.41-1.59l-.46-.34c-.36-.27-.49-.36-.54-.39-.06-.09-.13-.13-.21-.18-.06-.04-.12-.09-.18-.15h0s-.01-.03-.01-.03h-.01c-.06-.03-.12-.07-.19-.13l-.03-.04c-.85-.68-1.73-1.41-2.51-2.22-.43-.36-.79-.85-1.12-1.31-.28-.42-.37-.54-.4-.58h.01l-.07-.09c-.05-.09-.1-.16-.13-.22-.29-.29-1.31-1.26-1.73-1.67-.09-.15-.76-.67-1-.76-.13-.03-.33-.07-.42.07,0,0-.04.06-.04.09-.01.13,0,.27.03.37.04.24.1.46.18.67.04.22.19.43.24.65.28.54.57,1.06.92,1.59.33.52.71.98,1.13,1.44,1.01,1.21,2.2,2.13,3.38,3.05.12.08.23.16.35.24.6.35,1.11.64,1.62.9.25.15.54.27.82.4"/>
      <path class="cls-1" d="M4.36,23.37c1.22,1.18,1.46,1.4,1.5,1.43h-.01c.27.28.57.57.86.82l.42.39,1.19,1.06.37.33c.55.46,1.09.88,1.61,1.25l.73.55c.49.36.58.42.61.43h-.01c.34.27.7.49,1.06.71l.52.33.07.04c.24.12.33.16.36.18.09.04.12.07.15.07h-.01c.62.39,1.24.67,1.85.88.4.18.82.33,1.28.48l.04.03c.07.03.16.09.27.07l.1-.02.04-.07h0s-.01-.06-.01-.07c-.06-.06-.19-.1-.21-.12-.06-.01-.12-.04-.18-.07-.06-.04-.15-.1-.24-.12-.24-.06-.43-.15-.63-.28-.28-.12-.57-.27-.83-.42l-.12-.06-.09-.04c-.3-.18-.4-.24-.45-.25l-.45-.28-.39-.25c-.4-.27-.51-.34-.55-.36h.01l-.18-.13c-.33-.22-.65-.45-.95-.7l-.49-.39c-.37-.31-.45-.37-.46-.39,0,0,0,0,0,0,0,0,0,0,.01.01,0,0-.01,0-.01-.01-1.53-1.44-3.13-2.98-4.45-4.71-.22-.28-.43-.58-.63-.89l-.22-.34-.3-.48c-.21-.33-.42-.67-.58-1.01l-.24-.45c-.21-.36-.42-.73-.57-1.12l-.1-.24c-.06-.13-.09-.19-.1-.22-.03-.15-.09-.3-.13-.43l-.12-.36c-.03-.09-.06-.18-.09-.27-.07-.12-.15-.28-.15-.28-.4-.74-.76-1.5-1.13-2.23-.07-.1-.1-.22-.18-.31-.09-.15-.22-.27-.28-.43-.24-.25-.46-.58-.79-.7-.1-.01-.19.03-.27.09-.09.21-.16.46-.18.68-.03.39-.03.77.02,1.15,0,.15.06.3.07.45.02.18.09.34.1.52.15.94,1.09,3.1,1.09,3.1.24.46.48.92.76,1.37.25.43.49.85.75,1.27.12.09.24.19.24.19l.7.64Z"/>
      <path class="cls-1" d="M25.25,34.58s-.02,0-.03,0c.01-.01.04-.04.07-.06l.07-.06s.27-.18.27-.19c.27-.18.55-.37.82-.58l.1-.09c.22-.16.39-.28.43-.36l.83-.7s.22-.19.21-.27v-.04s-.04-.01-.04-.01c-.07-.03-.15,0-.18.03-.03,0-1.27.91-1.37.94l-.18.12c-.57.36-.76.47-.82.51,0,0,0,0-.01,0,0,0,0,0,.01,0,0,0,0,0,0,0l-.16.09-.19.1-.15.09c-.07.03-.13.07-.19.09h-.03c-.09.09-.18.13-.3.18-.01.01-.04.03-.04.03,0,0-.09.04-.1.06-.07,0-.13.03-.18.06h-.02c-.37.21-.77.39-1.22.58l-.86.34c-.37.16-.74.33-1.15.45l-.45.16s-.34.1-.36.1c-.24.09-.49.13-.73.19l-.46.1c-.22.07-.46.1-.71.15-.18.04-.37.06-.57.09l-.31.04-.63.02h-.6c-.49.01-1.06-.02-1.61-.12.27-.01.65-.04.65-.04.65-.04,1.37-.09,2.02-.21l.83-.1c.45-.07.71-.15,1.16-.25.13-.03.39-.15.36-.22-.03-.07-.54,0-.61.01-.13.03-.97.16-.97.16-.73.09-1.41.18-1.68.19-.25.03-.6.03-1.01.06-.33.03-1.19,0-1.19-.07,0-.09.83-.19,1.15-.19.24-.02.49-.03.71-.06.28,0,.57-.04.83-.07l.76-.07c.6-.1,1.35-.25,2.11-.48l.89-.24.71-.21.27-.09.79-.27.13-.04.18-.09h.03v-.03s.01-.07-.01-.12l-.06-.04-.3.07-.16.03-.34.1c-.19.04-.39.09-.57.18-.61.13-1.22.27-1.85.37-.58.12-1.18.21-1.76.3h-.01s-.3.04-.3.04h-.15c-.43.06-.89.1-1.37.1l-.21.03c-.09,0-.13,0-.16.01h0s-.31-.01-.31-.01h-.85s-.95-.06-.95-.06c-.7-.04-.89-.04-.94-.03,0-.01-.8-.16-.97-.18l-.97-.21c-.16-.04-.24-.06-.27-.06l-.4-.12c-.18-.04-.36-.07-.52-.16l-.28-.09c-.37-.12-.73-.24-1.06-.45-.12-.04-.21-.09-.31-.15.22.04.58.15.58.15l.58.15c1,.28,2.01.45,3.07.63l.34.06h.09c.8.09,1.55.15,2.34.21l.19.02h.33c.21.01.4.01.58,0,.27.01.54,0,.8-.02,0,0,.45,0,.71-.04.18-.03.24-.1.19-.18-.1-.16-.68-.09-.68-.09h-1.01c-.46,0-.91-.04-1.37-.09l-.68-.04c-1.31-.12-1.93-.18-3.01-.39-.73-.12-1.56-.39-2.35-.65,0,0-.37-.15-.33-.22.04-.06.58.15.89.19.07,0,.57.1,1.07.21,1.52.28,1.53.28,1.53.28l.82.12c.45.06.91.13,1.32.13.12.03.24.04.37.04l.34.03c.94.1,1.88.1,2.74.09h.33s.28-.03.28-.03c.13,0,.19-.02.22-.02h.22s.21-.01.22-.01l.83-.15c.94-.16.95-.16.95-.16l.24-.1v-.04s0-.09,0-.09l-.03-.03-.19-.02c-.49.09-.98.13-1.4.18-.25.04-.52.06-.79.07h-.98c-.28-.03-.55-.03-.85-.07-.28,0-.54-.03-.8-.06-.1-.02-.15-.03-.18-.03l-.19-.03-.24-.06h-.04c-.06,0-.13-.01-.21-.03l-.12-.03c-.31-.06-.6-.15-.88-.24-.25-.09-.51-.18-.77-.22-.92-.31-1.15-.4-1.21-.4h.01s-.58-.22-.58-.22c-.39-.13-.77-.28-1.15-.46l-.85-.39-.36-.16-.27-.13-.6-.33-.15-.09c-.13-.06-.24-.1-.36-.21-1-.6-1.8-1.15-2.5-1.89,0,0-.06-.07-.09-.12.4.31.82.58,1.19.82l.83.55c.73.45,1.52.82,2.29,1.16l.28.13,1.12.48,1.03.42s.1.04.09.04l.06.03c.57.21,1.16.39,1.73.55l.57.15.88.24.7.15s.18-.03.13-.15c-.06-.13-.57-.27-.57-.27-1.13-.28-1.83-.55-2.35-.71-1.55-.54-3.07-1.22-4.58-1.99l-.42-.22-.27-.15c-.08-.05-.16-.09-.24-.14-.86-.43-1.69-.89-2.56-1.31-.59-.31-1.16-.71-1.74-1.04-.04-.06-.74-.4-1.01-.6-.22-.09-.4-.3-.65-.25-.28.1-.15.57-.09.7.03.04.21.45.33.6.22.46.63.83.98,1.19.19.16.34.37.55.51.34.34.71.6,1.09.86.54.34,1.06.7,1.61,1,.19.1.4.24.6.34.55.33,1.15.58,1.76.82.06.04.92.39,1.28.54.04.01.57.21.79.27v.03c-.19-.01-.4-.09-.63-.09-.1-.03-.19,0-.3-.04-.24-.07-.49-.09-.71-.15-.54-.07-1.03-.18-1.55-.27-.64-.13-1.25-.37-1.92-.42-.25.01-.52-.12-.74,0-.03.06-.1.05-.13.1-.04.21.01.4.18.54.31.36.73.55,1.09.82.15.06.25.19.42.22.18.12.37.22.57.31.15.09.31.13.45.24.21.06.4.18.63.22.31.15.67.24,1.04.28.39.12.77.15,1.13.25.7.16,1.32.22,2.01.27-.21.07-.43.12-.63.25-.04.04-.06.12-.09.16-.06.1.01.19.04.27.28.24,1.01.37,1.04.39.21.12.54.21.94.25-.03.4-.04.8-.04,1.19.06,3.9,2.1,8.69,8.6,8.6,1.55-.01,3.05-.4,4.45-.97,4.18-1.71,7.43-5.13,7.92-5.89l-.74-.73c-2.49,2.11-4.66,3.91-7.17,4.54-.57.15-1.16.22-1.77.24-2.6.03-5.83-1.35-5.89-5.55-.01-.62.06-1.25.16-1.89,2.18-.45,4.64-1.16,7.03-2.16"/>
      <path class="cls-1" d="M8.36,28.17l.28.21.36.31c.39.31.66.42,1.06.71.25.19.6.4.86.6.34.24.73.45,1.1.64l.68.4c.24.13.68.24.62.09-.04-.12-.57-.45-.83-.6-.61-.36-.82-.57-.88-.58h.03c-.46-.3-1.01-.67-1.55-1.04l-.06-.04c-.19-.16-.4-.33-.61-.45l-.16-.13-.07-.06-.28-.21c-.25-.18-.51-.37-.76-.6l-.4-.33c-.13-.1-.19-.15-.22-.18-.48-.42-.61-.54-.67-.57h.01l-.71-.67-.19-.16c-.66-.66-1.33-1.4-2.15-2.38.07.1.14.2.21.3.8,1.06,1.68,2.11,2.54,3.1-.04-.02-.09-.04-.12-.09-.42-.31-1.19-.97-1.4-1.22-.37-.41-.79-.78-1.2-1.16.3.36.59.69.86.98,1.18,1.18,2.26,2.05,3.65,3.13"/>
    </g>
  </g>
</svg>