<?xml version="1.0" encoding="UTF-8"?>
<svg id="Layer_2" data-name="Layer 2" xmlns="http://www.w3.org/2000/svg" viewBox="0 0 55.94 47.28">
  <defs>
    <style>
      .cls-1 {
        fill: #ccc;
      }

      .cls-2 {
        fill: #333;
      }
    </style>
  </defs>
  <g id="Desktop_upto_1920px_" data-name="Desktop (upto 1920px)">
    <g>
      <g>
        <path class="cls-1" d="M39.6,11.77c-1.2-1.14-2.6-2.12-4.17-2.88-8.14-3.93-17.93-.52-21.86,7.62-.76,1.57-1.24,3.21-1.47,4.85l27.5-9.59Z"/>
        <path class="cls-1" d="M17.03,35.5c1.2,1.14,2.6,2.12,4.17,2.88,8.14,3.93,17.93.52,21.86-7.62.76-1.57,1.24-3.21,1.47-4.85l-27.5,9.59Z"/>
      </g>
      <path class="cls-2" d="M29.67,47.28c-1.31,0-2.58-.5-3.54-1.41-1.06-1.01-2.63-1.3-3.98-.76-1.34.54-2.85.49-4.15-.14-1.3-.63-2.28-1.78-2.69-3.16-.42-1.4-1.62-2.44-3.07-2.65-.75-.11-1.46-.37-2.09-.79-.32-.21-.41-.64-.2-.96.21-.32.64-.41.96-.2.46.3.98.5,1.53.58,1.98.28,3.63,1.7,4.2,3.62.31,1.03,1,1.85,1.97,2.31.96.47,2.04.5,3.04.1,1.86-.75,3.99-.34,5.45,1.04.78.74,1.79,1.09,2.86,1.02,1.07-.08,2.02-.59,2.68-1.43,1.23-1.57,3.29-2.29,5.24-1.83,1.04.25,2.1.05,2.99-.55.89-.6,1.46-1.52,1.61-2.58.28-1.98,1.7-3.63,3.62-4.2,1.03-.31,1.85-1,2.31-1.97.47-.96.5-2.04.1-3.04-.75-1.86-.34-4,1.04-5.45.38-.4.66-.87.83-1.39.12-.36.51-.56.87-.44.36.12.56.51.44.87-.24.71-.62,1.35-1.14,1.9-1.01,1.06-1.3,2.63-.76,3.98.54,1.34.49,2.85-.14,4.15s-1.78,2.28-3.16,2.69c-1.4.42-2.44,1.62-2.65,3.07-.2,1.43-1,2.71-2.2,3.52-1.19.81-2.68,1.09-4.08.75-1.42-.34-2.93.18-3.83,1.34-.89,1.14-2.23,1.85-3.66,1.95-.13,0-.25.01-.38.01ZM5.58,24.3c-.07,0-.14-.01-.22-.04-.36-.12-.56-.51-.44-.87.24-.72.62-1.37,1.15-1.92,1.01-1.06,1.3-2.63.76-3.99-.54-1.34-.49-2.85.14-4.15.63-1.3,1.78-2.28,3.16-2.69,1.4-.42,2.44-1.62,2.65-3.07.2-1.43,1-2.71,2.2-3.52,1.19-.81,2.68-1.09,4.08-.75,1.42.34,2.93-.19,3.83-1.34C23.78.83,25.12.12,26.56.01c1.44-.11,2.86.4,3.91,1.39,1.06,1.01,2.63,1.3,3.98.76,1.34-.54,2.85-.49,4.15.14,1.3.63,2.28,1.78,2.69,3.16.42,1.4,1.62,2.44,3.07,2.65.76.11,1.47.38,2.1.8.32.21.41.64.2.96-.21.32-.64.41-.96.2-.46-.31-.98-.5-1.54-.58-1.98-.28-3.63-1.7-4.2-3.62-.31-1.03-1-1.85-1.97-2.31-.96-.46-2.04-.5-3.04-.1-1.86.75-4,.34-5.45-1.04-.78-.74-1.8-1.1-2.86-1.02-1.07.08-2.02.59-2.68,1.43-1.24,1.57-3.29,2.29-5.24,1.83-1.04-.25-2.1-.05-2.99.55-.89.6-1.46,1.52-1.61,2.58-.28,1.98-1.7,3.63-3.62,4.2-1.03.31-1.85,1-2.31,1.97-.47.96-.5,2.04-.1,3.04.75,1.86.34,4-1.04,5.45-.38.41-.67.88-.84,1.4-.1.29-.37.47-.66.47Z"/>
      <path class="cls-2" d="M2.19,25.51c-.29,0-.55-.18-.65-.46-.13-.36.06-.75.42-.88L49.26,7.68c.36-.13.75.06.88.42.13.36-.06.75-.42.88L2.42,25.47c-.08.03-.15.04-.23.04Z"/>
      <path class="cls-2" d="M7.12,39.64c-.29,0-.55-.18-.65-.46-.13-.36.06-.75.42-.88l47.29-16.49c.36-.13.75.06.88.42.13.36-.06.75-.42.88L7.35,39.6c-.08.03-.15.04-.23.04Z"/>
      <g>
        <g>
          <path class="cls-2" d="M15.54,32.74c-.36,0-.67-.29-.69-.65l-.41-7.67c-.01-.38.2-.71.54-.83.33-.12.71,0,.93.3l4.44,6.28c.22.31.15.74-.17.96-.31.22-.74.15-.96-.17l-3.29-4.66.31,5.71c.02.38-.27.71-.65.73-.01,0-.03,0-.04,0Z"/>
          <path class="cls-2" d="M15.83,31.55c-.29,0-.55-.18-.65-.46-.13-.36.06-.75.42-.88l2.99-1.04c.36-.13.75.06.88.42.13.36-.06.75-.42.88l-2.99,1.04c-.08.03-.15.04-.23.04Z"/>
        </g>
        <g>
          <path class="cls-2" d="M28.1,28.36c-.37,0-.68-.29-.69-.67l-.25-7.72c0-.38.21-.7.55-.81.33-.12.71,0,.93.28l4.6,6.22c.23.31.16.74-.14.96-.31.23-.74.16-.96-.14l-3.53-4.78.19,5.95c.01.38-.29.7-.67.71,0,0-.02,0-.02,0Z"/>
          <path class="cls-2" d="M28.44,27.15c-.29,0-.55-.18-.65-.46-.13-.36.06-.75.42-.88l3.24-1.13c.36-.13.75.06.88.42.13.36-.06.75-.42.88l-3.24,1.13c-.08.03-.15.04-.23.04Z"/>
        </g>
        <path class="cls-2" d="M35.32,25.84c-.29,0-.55-.18-.65-.46l-2.46-7.05c-.1-.3,0-.63.28-.81.27-.17.62-.14.85.08l4.15,3.92-1.57-4.5c-.13-.36.06-.75.42-.88.36-.12.75.06.88.42l2.38,6.82c.17.48-.04.83-.28.98-.24.16-.63.18-.95-.12l-3.92-3.71,1.52,4.37c.13.36-.06.75-.42.88-.08.03-.15.04-.23.04Z"/>
        <g>
          <path class="cls-2" d="M46.99,21.74c-.29,0-.55-.18-.65-.46l-2.44-7c-.06-.17-.05-.36.03-.53.08-.17.22-.29.39-.35l2.82-.98c.36-.12.75.06.88.42.13.36-.06.75-.42.88l-2.16.75,1.99,5.69,2.16-.75c.36-.13.75.06.88.42.13.36-.06.75-.42.88l-2.82.98c-.08.03-.15.04-.23.04Z"/>
          <path class="cls-2" d="M45.77,18.24c-.29,0-.55-.18-.65-.46-.13-.36.06-.75.42-.88l2.61-.91c.36-.13.75.06.88.42s-.06.75-.42.88l-2.61.91c-.08.03-.15.04-.23.04Z"/>
        </g>
        <path class="cls-2" d="M10.83,34.28c-.19,0-.38-.02-.57-.07-.89-.21-1.48-.71-1.75-1.48l-1.69-4.84c-.13-.36.06-.75.42-.88.36-.13.75.06.88.42l1.69,4.84c.09.27.26.48.76.59.21.05.42.04.64-.04.2-.07.37-.17.5-.31.44-.45.4-.78.31-1.02l-1.69-4.83c-.13-.36.06-.75.42-.88.36-.13.75.06.88.42l1.69,4.83c.21.6.27,1.51-.63,2.44-.29.3-.64.52-1.04.66-.28.1-.56.15-.84.15Z"/>
        <g>
          <path class="cls-2" d="M39.24,16.55c-.29,0-.55-.18-.65-.46-.13-.36.06-.75.42-.88l2.9-1.01c.36-.13.75.06.88.42.13.36-.06.75-.42.88l-2.9,1.01c-.08.03-.15.04-.23.04Z"/>
          <path class="cls-2" d="M43.15,23.11c-.29,0-.55-.18-.65-.46l-2.38-6.84c-.13-.36.06-.75.42-.88.36-.12.75.06.88.42l2.38,6.84c.13.36-.06.75-.42.88-.08.03-.15.04-.23.04Z"/>
        </g>
        <g>
          <path class="cls-2" d="M25.58,29.24c-.13,0-.27-.04-.38-.12l-3.7-2.49c-.32-.21-.4-.64-.19-.96.21-.32.64-.4.96-.19l3.7,2.49c.32.21.4.64.19.96-.13.2-.35.3-.57.3Z"/>
          <path class="cls-2" d="M22.48,30.32c-.29,0-.55-.18-.65-.46l-1.18-3.38c-.13-.36.06-.75.42-.88.36-.12.75.06.88.42l1.18,3.38c.13.36-.06.75-.42.88-.08.03-.15.04-.23.04Z"/>
          <path class="cls-2" d="M21.3,26.94c-.1,0-.2-.02-.3-.07-.17-.08-.29-.22-.35-.4l-1.28-3.68c-.13-.36.06-.75.42-.88l1.6-.56c1.43-.5,2.98.21,3.46,1.58.23.67.18,1.4-.16,2.04-.33.63-.88,1.11-1.56,1.35-.52.18-1.59.56-1.59.56-.08.03-.15.04-.23.04ZM20.9,22.99l.83,2.37c.32-.11.7-.25.94-.33.34-.12.62-.36.79-.68.16-.31.19-.65.08-.95-.22-.64-1-.98-1.7-.73l-.94.33Z"/>
        </g>
        <path class="cls-2" d="M3.98,36.63c-.46,0-.92-.1-1.35-.31-.75-.36-1.32-1-1.59-1.78l-.86-2.47c-.27-.79-.23-1.63.14-2.38.36-.75,1-1.32,1.78-1.59.82-.29,1.72-.22,2.49.19.34.18.46.6.29.93-.18.34-.6.46-.93.29-.43-.23-.93-.27-1.39-.11-.91.32-1.39,1.31-1.07,2.22l.86,2.47c.15.44.47.79.89.99.42.2.89.23,1.33.08.9-.31,1.38-1.29,1.08-2.19l-.66.23c-.36.13-.75-.06-.88-.42-.13-.36.06-.75.42-.88l1.31-.46c.17-.06.36-.05.53.03.17.08.29.22.35.39l.22.62c.57,1.62-.29,3.41-1.92,3.97-.34.12-.68.18-1.03.18Z"/>
        <g>
          <path class="cls-2" d="M52.44,19.84c-.29,0-.55-.18-.65-.46l-2.44-7c-.06-.17-.05-.36.03-.53.08-.17.22-.29.39-.35l2.82-.98c.36-.13.75.06.88.42.13.36-.06.75-.42.88l-2.16.75,1.99,5.69,2.16-.75c.36-.13.75.06.88.42.13.36-.06.75-.42.88l-2.82.98c-.08.03-.15.04-.23.04Z"/>
          <path class="cls-2" d="M51.22,16.34c-.29,0-.55-.18-.65-.46-.13-.36.06-.75.42-.88l2.61-.91c.36-.13.75.06.88.42s-.06.75-.42.88l-2.61.91c-.08.03-.15.04-.23.04Z"/>
        </g>
      </g>
    </g>
  </g>
</svg>