<?xml version="1.0" encoding="UTF-8"?>
<svg id="Layer_2" data-name="Layer 2" xmlns="http://www.w3.org/2000/svg" viewBox="0 0 47.75 45.4">
  <defs>
    <style>
      .cls-1 {
        fill: #333;
      }
    </style>
  </defs>
  <g id="Desktop_upto_1920px_" data-name="Desktop (upto 1920px)">
    <g>
      <path class="cls-1" d="M29.62,45.4c-1,0-2.02-.23-3.01-.46-.96-.22-1.87-.43-2.73-.43s-1.77.21-2.73.43c-1.52.35-3.1.71-4.6.23-1.57-.5-2.67-1.74-3.72-2.93-.63-.71-1.22-1.38-1.88-1.85-.67-.48-1.51-.83-2.4-1.2-1.46-.61-2.97-1.24-3.94-2.55-.96-1.3-1.13-2.93-1.28-4.51-.1-.96-.19-1.86-.45-2.65-.24-.74-.7-1.49-1.18-2.29-.83-1.38-1.69-2.8-1.69-4.49s.86-3.11,1.69-4.49c.48-.8.94-1.55,1.18-2.29.26-.79.35-1.69.45-2.65.16-1.58.32-3.21,1.28-4.51.97-1.31,2.48-1.94,3.94-2.55.89-.37,1.73-.72,2.39-1.2.65-.47,1.25-1.14,1.88-1.85,1.06-1.19,2.15-2.43,3.72-2.93,1.5-.48,3.08-.12,4.6.23.96.22,1.87.43,2.73.43s1.77-.21,2.73-.43c1.52-.35,3.1-.71,4.6-.23,1.57.5,2.67,1.74,3.72,2.93.63.71,1.22,1.38,1.88,1.85.67.48,1.51.83,2.39,1.2,1.46.61,2.98,1.24,3.94,2.55.96,1.3,1.13,2.93,1.28,4.51.1.96.19,1.86.45,2.65.24.74.7,1.49,1.18,2.29.83,1.38,1.69,2.8,1.69,4.49s-.86,3.11-1.69,4.49c-.48.8-.94,1.55-1.18,2.29-.26.79-.35,1.69-.45,2.65-.16,1.58-.32,3.21-1.28,4.51-.97,1.31-2.48,1.94-3.94,2.55-.89.37-1.73.72-2.4,1.2-.65.47-1.25,1.14-1.88,1.85-1.06,1.19-2.15,2.43-3.72,2.93-.52.17-1.05.23-1.58.23ZM23.87,42.77c1.06,0,2.11.24,3.12.47,1.35.31,2.63.6,3.68.27,1.12-.35,2-1.36,2.94-2.42.67-.75,1.36-1.53,2.17-2.11.83-.59,1.8-1,2.74-1.39,1.3-.54,2.53-1.06,3.21-1.98.68-.91.81-2.24.95-3.64.1-1.01.21-2.06.52-3.02.31-.93.83-1.8,1.35-2.64.74-1.23,1.44-2.39,1.44-3.59s-.7-2.36-1.44-3.59c-.51-.84-1.04-1.72-1.35-2.65-.32-.97-.42-2.01-.53-3.02-.14-1.4-.27-2.73-.95-3.64-.68-.92-1.91-1.43-3.21-1.98-.94-.39-1.91-.8-2.74-1.39-.81-.58-1.5-1.36-2.17-2.11-.94-1.06-1.83-2.07-2.94-2.42-1.05-.33-2.33-.04-3.68.27-1.02.23-2.06.47-3.12.47s-2.11-.24-3.12-.47c-1.35-.31-2.63-.6-3.68-.27-1.12.36-2,1.36-2.94,2.42-.67.75-1.35,1.53-2.17,2.11-.83.59-1.8,1-2.74,1.39-1.3.54-2.53,1.06-3.21,1.98-.68.91-.81,2.24-.95,3.64-.1,1.01-.21,2.06-.53,3.02-.31.93-.83,1.8-1.35,2.64-.74,1.23-1.44,2.39-1.44,3.59s.7,2.36,1.44,3.59c.51.84,1.04,1.72,1.35,2.64.32.97.42,2.01.53,3.02.14,1.4.27,2.73.95,3.64.68.92,1.91,1.43,3.21,1.98.94.39,1.91.8,2.74,1.39.81.58,1.5,1.36,2.17,2.11.94,1.06,1.83,2.07,2.94,2.42,1.05.33,2.33.04,3.68-.27,1.02-.23,2.06-.47,3.12-.47Z"/>
      <g>
        <g>
          <path class="cls-1" d="M23.5,23.6c-2.06,0-3.74-1.68-3.74-3.74s1.68-3.74,3.74-3.74h2.67c.48,0,.87.39.87.87s-.39.87-.87.87h-2.67c-1.1,0-1.99.89-1.99,1.99s.89,1.99,1.99,1.99c.48,0,.87.39.87.87s-.39.87-.87.87Z"/>
          <path class="cls-1" d="M23.5,29.32h-2.67c-.48,0-.87-.39-.87-.87s.39-.87.87-.87h2.67c1.1,0,1.99-.89,1.99-1.99s-.89-1.99-1.99-1.99c-.48,0-.87-.39-.87-.87s.39-.87.87-.87c2.06,0,3.74,1.68,3.74,3.74s-1.68,3.74-3.74,3.74Z"/>
        </g>
        <path class="cls-1" d="M13.05,29.32c-.48,0-.87-.39-.87-.87v-10.68c0-.48.39-.87.87-.87s.87.39.87.87v10.68c0,.48-.39.87-.87.87Z"/>
        <path class="cls-1" d="M15.07,17.83h-4.04c-.48,0-.87-.39-.87-.87s.39-.87.87-.87h4.04c.48,0,.87.39.87.87s-.39.87-.87.87Z"/>
        <path class="cls-1" d="M15.07,29.32h-4.04c-.48,0-.87-.39-.87-.87s.39-.87.87-.87h4.04c.48,0,.87.39.87.87s-.39.87-.87.87Z"/>
        <path class="cls-1" d="M33.86,29.32c-2.06,0-3.74-1.68-3.74-3.74v-5.77c0-2.06,1.68-3.74,3.74-3.74s3.74,1.68,3.74,3.74v5.77c0,2.06-1.68,3.74-3.74,3.74ZM33.86,17.83c-1.1,0-1.99.89-1.99,1.99v5.77c0,1.1.89,1.99,1.99,1.99s1.99-.89,1.99-1.99v-5.77c0-1.1-.89-1.99-1.99-1.99Z"/>
      </g>
    </g>
  </g>
</svg>