<svg id="Layer_2" data-name="Layer 2" xmlns="http://www.w3.org/2000/svg" viewBox="0 0 67.56 40.46">
  <defs>
    <style>
      .cls-1 { fill: #4d4d4d; }
      .spoke { fill: none; stroke: #4d4d4d; stroke-width: .6; stroke-linecap: round; }
      .hub   { fill: #4d4d4d; }
    </style>
  </defs>
  <g id="Assets">
    <g>
      <!-- ===== TRUCK BODY (core) — unchanged, static ===== -->
      <path class="cls-1" d="M67.56,34.84h-7.51v-1.12h6.39v-14.89c0-1.32-.92-2.25-2.25-2.25h-12.5V5.48h1.12v9.97h9.04l-4.36-10.11h-10.87v-1.12h11.61l4.84,11.24h1.11c1.95,0,3.37,1.42,3.37,3.37v16.01ZM45.86,34.84h-21.21v-1.12h21.21v1.12ZM10.46,34.84H2.9L5.8,0h40.69v27.25h-1.12V1.12H6.84l-2.19,26.27h7.74v1.12h-7.83l-.43,5.2h6.34v1.12ZM66.3,28.51h-8.21v-1.12h8.21v1.12ZM47.82,28.51h-25.09v-1.12h25.09v1.12Z"/>

      <!-- ===== SPEED LINES — streak left & fade, staggered ===== -->
      <rect class="cls-1" x="2.11" y="13.7" width="15.32" height="1.12">
        <animateTransform attributeName="transform" attributeType="XML" type="translate" values="2 0; -9 0" dur="1.1s" begin="-0.30s" repeatCount="indefinite"/>
        <animate attributeName="opacity" values="0;1;1;0" keyTimes="0;0.2;0.7;1" dur="1.1s" begin="-0.30s" repeatCount="indefinite"/>
      </rect>
      <rect class="cls-1" x="0" y="6.85" width="11.11" height="1.12">
        <animateTransform attributeName="transform" attributeType="XML" type="translate" values="2 0; -9 0" dur="1.1s" begin="0s" repeatCount="indefinite"/>
        <animate attributeName="opacity" values="0;1;1;0" keyTimes="0;0.2;0.7;1" dur="1.1s" begin="0s" repeatCount="indefinite"/>
      </rect>
      <rect class="cls-1" x="17.43" y="6.85" width="5.2" height="1.12">
        <animateTransform attributeName="transform" attributeType="XML" type="translate" values="2 0; -9 0" dur="1.1s" begin="-0.55s" repeatCount="indefinite"/>
        <animate attributeName="opacity" values="0;1;1;0" keyTimes="0;0.2;0.7;1" dur="1.1s" begin="-0.55s" repeatCount="indefinite"/>
      </rect>
      <rect class="cls-1" x="23.75" y="13.7" width="2.6" height="1.12">
        <animateTransform attributeName="transform" attributeType="XML" type="translate" values="2 0; -9 0" dur="1.1s" begin="-0.80s" repeatCount="indefinite"/>
        <animate attributeName="opacity" values="0;1;1;0" keyTimes="0;0.2;0.7;1" dur="1.1s" begin="-0.80s" repeatCount="indefinite"/>
      </rect>

      <!-- ===== FRONT WHEEL — original ring + spokes, rotating ===== -->
      <g>
        <animateTransform attributeName="transform" attributeType="XML" type="rotate" from="0 17.55 33.43" to="-360 17.55 33.43" dur="0.75s" repeatCount="indefinite"/>
        <path class="cls-1" d="M17.56,40.46c-.85,0-1.69-.14-2.52-.43-1.91-.67-3.45-2.05-4.33-3.87-.88-1.83-.99-3.89-.32-5.8.67-1.91,2.05-3.45,3.87-4.33,1.83-.88,3.88-.99,5.8-.32,1.91.67,3.45,2.05,4.33,3.87.88,1.83.99,3.89.32,5.8-.67,1.91-2.05,3.45-3.87,4.33-1.04.5-2.16.75-3.28.75ZM17.55,26.41c-.94,0-1.89.2-2.79.64-3.21,1.54-4.57,5.41-3.02,8.62,1.54,3.21,5.41,4.57,8.62,3.02,3.21-1.54,4.57-5.41,3.02-8.62-1.11-2.31-3.43-3.66-5.83-3.66Z"/>
        <line class="spoke" x1="11.95" y1="33.43" x2="23.15" y2="33.43"/>
        <line class="spoke" x1="17.55" y1="27.83" x2="17.55" y2="39.03"/>
        <circle class="hub" cx="17.55" cy="33.43" r="1.3"/>
      </g>

      <!-- ===== REAR WHEEL — original ring + spokes, rotating ===== -->
      <g>
        <animateTransform attributeName="transform" attributeType="XML" type="rotate" from="0 52.96 33.43" to="-360 52.96 33.43" dur="0.75s" repeatCount="indefinite"/>
        <path class="cls-1" d="M52.96,40.46c-3.1,0-6.02-1.92-7.14-5-.69-1.91-.6-3.96.26-5.8.86-1.83,2.38-3.23,4.29-3.91h0c3.93-1.42,8.29.62,9.71,4.55,1.42,3.93-.62,8.29-4.55,9.71-.85.31-1.72.45-2.57.45ZM50.76,26.8c-1.62.59-2.92,1.77-3.65,3.33-.73,1.56-.81,3.32-.22,4.94.59,1.62,1.77,2.92,3.33,3.65,1.56.73,3.32.81,4.94.22,3.35-1.21,5.09-4.93,3.88-8.28-1.21-3.35-4.93-5.09-8.28-3.88h0Z"/>
        <line class="spoke" x1="47.36" y1="33.43" x2="58.56" y2="33.43"/>
        <line class="spoke" x1="52.96" y1="27.83" x2="52.96" y2="39.03"/>
        <circle class="hub" cx="52.96" cy="33.43" r="1.3"/>
      </g>
    </g>
  </g>
</svg>
