<?xml version="1.0" encoding="utf-8"?>
<!-- Generator: Adobe Illustrator 25.2.3, SVG Export Plug-In . SVG Version: 6.00 Build 0)  -->
<svg version="1.1" id="Layer_2_1_" xmlns="http://www.w3.org/2000/svg" xmlns:xlink="http://www.w3.org/1999/xlink" x="0px" y="0px"
	 width="24.5px" height="24.5px" viewBox="0 0 24.5 24.5" style="enable-background:new 0 0 24.5 24.5;" xml:space="preserve">
<style type="text/css">
	.st0{fill:#666666;}
</style>
<g id="Desktop_upto_1920px_">
	<g>
		<path class="st0" d="M2.5,4.8l2.3-2.3c0.3-0.3,0.8-0.3,1.1,0L22,18.6c0.3,0.3,0.3,0.8,0,1.1L19.7,22c-0.3,0.3-0.8,0.3-1.1,0
			L2.5,5.9C2.2,5.6,2.2,5.1,2.5,4.8z"/>
		<path class="st0" d="M2.5,18.6L18.6,2.5c0.3-0.3,0.8-0.3,1.1,0L22,4.8c0.3,0.3,0.3,0.8,0,1.1L5.9,22c-0.3,0.3-0.8,0.3-1.1,0
			l-2.3-2.3C2.2,19.4,2.2,18.9,2.5,18.6z"/>
	</g>
</g>
</svg>
