<?xml version="1.0" encoding="UTF-8"?>
<svg id="Layer_2" data-name="Layer 2" xmlns="http://www.w3.org/2000/svg" viewBox="0 0 34.18 44.7">
  <defs>
    <style>
      .cls-1 {
        fill: #4d4d4d;
      }
    </style>
  </defs>
  <g id="Desktop_upto_1920px_" data-name="Desktop (upto 1920px)">
    <g>
      <g id="path1158">
        <path class="cls-1" d="M17.17,44.7L3.41,26.33C-.41,21.27-1.06,14.91,1.65,9.33,4.39,3.71,10.06.13,16.47,0h.4c3.2,0,6.37.8,9.17,2.33,3.95,2.16,6.78,6.02,7.77,10.59,1.02,4.73-.03,9.62-2.88,13.4l-13.74,18.37ZM16.86,1.13h-.37c-6.07.13-11.24,3.37-13.82,8.69-2.53,5.19-1.91,11.11,1.64,15.83l12.86,17.17,12.84-17.17c2.65-3.52,3.63-8.07,2.68-12.49-.91-4.24-3.54-7.83-7.21-9.83-2.63-1.44-5.61-2.2-8.62-2.2Z"/>
      </g>
      <g id="path1162">
        <path class="cls-1" d="M23.12,25.1l-6.02-3.17-6.02,3.17,1.15-6.71-4.88-4.75,6.74-.98,3.01-6.1,3.01,6.1,6.74.98-4.88,4.75,1.15,6.71ZM17.09,20.66l4.52,2.38-.86-5.04,3.66-3.57-5.06-.73-2.26-4.58-2.26,4.58-5.06.73,3.66,3.57-.86,5.04,4.52-2.38Z"/>
      </g>
    </g>
  </g>
</svg>