<?xml version="1.0" encoding="UTF-8"?>
<svg id="Layer_2" data-name="Layer 2" xmlns="http://www.w3.org/2000/svg" viewBox="0 0 36.91 44.23">
  <defs>
    <style>
      .cls-1 {
        fill: #4d4d4d;
      }
    </style>
  </defs>
  <g id="Desktop_upto_1920px_" data-name="Desktop (upto 1920px)">
    <g>
      <path class="cls-1" d="M18.45,44.23c-.09,0-.18-.01-.26-.04-8.27-2.87-13.55-7.67-16.14-14.67C-.19,23.44-.06,16.83.05,11.01c.02-1.24.05-2.4.05-3.56,0-.44.36-.79.79-.79C7.98,6.66,13.38,4.61,17.9.22c.3-.29.81-.29,1.11,0,4.52,4.39,9.92,6.44,17.01,6.44.44,0,.8.36.8.79,0,1.13.02,2.28.04,3.51.11,5.87.24,12.48-2.01,18.55-2.59,7.01-7.87,11.81-16.14,14.67-.08.03-.17.04-.26.04ZM1.33,7.89c0,1.02-.02,2.05-.05,3.14-.11,5.72-.23,12.2,1.93,18.05,2.44,6.6,7.42,11.14,15.24,13.88,7.81-2.74,12.8-7.28,15.24-13.88l.58.21-.58-.21c2.17-5.86,2.04-12.34,1.93-18.06-.02-1.12-.04-2.14-.05-3.14-7.06-.08-12.52-2.15-17.13-6.49C13.85,5.73,8.39,7.81,1.33,7.89Z"/>
      <path class="cls-1" d="M18.46,29.06c-.83,0-1.5-.67-1.5-1.5v-10.89c0-.83.67-1.5,1.5-1.5s1.5.67,1.5,1.5v10.89c0,.83-.67,1.5-1.5,1.5Z"/>
      <path class="cls-1" d="M23.9,23.61h-10.89c-.83,0-1.5-.67-1.5-1.5s.67-1.5,1.5-1.5h10.89c.83,0,1.5.67,1.5,1.5s-.67,1.5-1.5,1.5Z"/>
    </g>
  </g>
</svg>