<?xml version="1.0" encoding="UTF-8"?>
<svg id="Layer_2" data-name="Layer 2" xmlns="http://www.w3.org/2000/svg" viewBox="0 0 46.11 44.43">
  <defs>
    <style>
      .cls-1 {
        fill: #4d4d4d;
      }
    </style>
  </defs>
  <g id="Desktop_upto_1920px_" data-name="Desktop (upto 1920px)">
    <g>
      <g id="path409">
        <path class="cls-1" d="M25.73,18.41h-4.39c-.34,0-.62-.28-.62-.62v-3h-7.35v3c0,.34-.28.62-.62.62h-4.39c-.34,0-.62-.28-.62-.62v-3.58c0-2.79,2.27-5.05,5.05-5.05h8.5c2.79,0,5.05,2.27,5.05,5.05v3.58c0,.34-.28.62-.62.62ZM21.96,17.17h3.16v-2.96c0-2.11-1.71-3.82-3.82-3.82h-8.5c-2.11,0-3.82,1.71-3.82,3.82v2.96h3.16v-2.96c0-.34.32-.66.66-.66h8.5c.34,0,.66.32.66.66v2.96Z"/>
      </g>
      <g id="path413">
        <path class="cls-1" d="M29.91,44.43H4.18c-2.31,0-4.18-1.88-4.18-4.18v-18.89c0-2.31,1.88-4.18,4.18-4.18h25.73c2.31,0,4.18,1.88,4.18,4.18v12c0,.34-.28.62-.62.62s-.62-.28-.62-.62v-12c0-1.63-1.32-2.95-2.95-2.95H4.18c-1.63,0-2.95,1.32-2.95,2.95v18.89c0,1.63,1.32,2.95,2.95,2.95h25.73c1.63,0,2.95-1.32,2.95-2.95v-4.2c0-.34.28-.62.62-.62s.62.28.62.62v4.2c0,2.31-1.88,4.18-4.18,4.18Z"/>
      </g>
      <g id="path417">
        <path class="cls-1" d="M43.97,7.62h-12.87c-.17,0-.34-.05-.46-.17-.12-.12-.21-.28-.21-.45v-3.08c0-2.16,1.76-3.92,3.92-3.92h6.32c2.16,0,3.92,1.76,3.92,3.92v3.08c0,.34-.28.62-.62.62ZM31.66,6.38h11.69v-2.46c0-1.48-1.21-2.69-2.69-2.69h-6.32c-1.48,0-2.69,1.21-2.69,2.69v2.46Z"/>
      </g>
      <g id="path421">
        <path class="cls-1" d="M39.37,44.43h-9.45c-.34,0-.62-.28-.62-.62s.28-.62.62-.62c1.63,0,2.95-1.32,2.95-2.95v-18.89c0-1.63-1.32-2.95-2.95-2.95h-.39c-.34,0-.62-.28-.62-.62v-3.37c0-2.02,1.64-3.66,3.66-3.66h9.89c2.02,0,3.66,1.64,3.66,3.66v23.26c0,3.72-3.03,6.75-6.75,6.75ZM32.88,43.19h6.49c3.04,0,5.51-2.47,5.51-5.51V14.42c0-1.34-1.09-2.42-2.42-2.42h-9.89c-1.34,0-2.42,1.09-2.42,2.42v2.76c2.2.12,3.95,1.95,3.95,4.18v18.89c0,1.15-.47,2.19-1.22,2.95Z"/>
      </g>
      <g id="path425">
        <path class="cls-1" d="M43.93,12h-12.84c-1.2,0-2.18-.98-2.18-2.18v-1.26c0-1.2.98-2.18,2.18-2.18h12.84c1.2,0,2.18.98,2.18,2.18v1.26c0,1.2-.98,2.18-2.18,2.18ZM31.09,7.61c-.52,0-.95.43-.95.95v1.26c0,.52.42.95.95.95h12.84c.52,0,.95-.43.95-.95v-1.26c0-.52-.43-.95-.95-.95h-12.84Z"/>
      </g>
      <g id="path385">
        <path class="cls-1" d="M29.52,40.47H4.57c-.34,0-.62-.28-.62-.62v-18.11c0-.34.28-.62.62-.62h24.95c.34,0,.62.28.62.62v18.11c0,.34-.28.62-.62.62ZM5.19,39.24h23.72v-16.88H5.19v16.88Z"/>
      </g>
      <rect class="cls-1" x="13.04" y="25.98" width="8.01" height="3.23" rx=".48" ry=".48"/>
      <rect class="cls-1" x="33.51" y="15.1" width="8.01" height="3.23" rx=".48" ry=".48"/>
    </g>
  </g>
</svg>