<?xml version="1.0" encoding="UTF-8"?>
<svg id="Layer_2" data-name="Layer 2" xmlns="http://www.w3.org/2000/svg" viewBox="0 0 44.43 44.43">
  <defs>
    <style>
      .cls-1 {
        fill: #4d4d4d;
      }
    </style>
  </defs>
  <g id="Desktop_upto_1920px_" data-name="Desktop (upto 1920px)">
    <g>
      <path class="cls-1" d="M22.21,44.43C9.97,44.43,0,34.46,0,22.21S9.97,0,22.21,0s22.21,9.97,22.21,22.21-9.97,22.21-22.21,22.21ZM22.21,1.23C10.65,1.23,1.23,10.65,1.23,22.21s9.41,20.98,20.98,20.98,20.98-9.41,20.98-20.98S33.78,1.23,22.21,1.23Z"/>
      <path class="cls-1" d="M37.85,37.74c-.16,0-.32-.06-.44-.18L6.88,7.03c-.24-.24-.24-.63,0-.87.24-.24.63-.24.87,0l30.53,30.53c.24.24.24.63,0,.87-.12.12-.28.18-.44.18Z"/>
      <path class="cls-1" d="M20.87,38.69c-.14,0-.28-.05-.4-.16-.24-.22-.25-.59-.03-.82,3.99-4.29,8.4-8.27,13.16-11.88-5.22,2.55-10.54,4.99-15.87,7.28-.26.11-.57.02-.72-.22-.15-.24-.11-.56.11-.75l14.74-13.01c-6.51,2.98-12.87,6.29-18.95,9.88-.26.15-.59.08-.76-.16-.18-.24-.14-.58.08-.78,6.21-5.62,11.66-11.89,16.22-18.65L4.94,19.45c-.3.13-.64-.01-.76-.31-.13-.3.01-.64.31-.76L29.77,7.59c.24-.1.51-.04.67.16.17.2.18.48.04.69-3.96,6.13-8.64,11.88-13.94,17.13,5.92-3.3,12.06-6.34,18.31-9.06.26-.11.57-.02.72.22.15.24.11.56-.11.75l-14.82,13.08c6.61-2.92,13.16-6.06,19.52-9.34.28-.14.61-.04.77.23.16.27.07.61-.19.78-7.22,4.68-13.77,10.16-19.47,16.28-.11.12-.27.19-.43.19Z"/>
    </g>
  </g>
</svg>