<?xml version="1.0" encoding="UTF-8"?>
<svg id="Layer_2" data-name="Layer 2" xmlns="http://www.w3.org/2000/svg" viewBox="0 0 45.57 44.43">
  <defs>
    <style>
      .cls-1 {
        fill: #4d4d4d;
      }
    </style>
  </defs>
  <g id="Desktop_upto_1920px_" data-name="Desktop (upto 1920px)">
    <g>
      <g id="path27">
        <path class="cls-1" d="M22.78,17.65c-.1,0-.2-.02-.29-.08-.29-.16-7.1-3.88-8.85-6.86-.84-1.43-1.21-2.8-1.21-4.46,0-4.3,3.16-6.25,6.09-6.25,2.3,0,3.59,1.04,4.28,1.96.69-.92,1.98-1.96,4.29-1.96,2.93,0,6.09,1.96,6.09,6.25,0,1.66-.37,3.03-1.21,4.46-1.77,3.01-8.58,6.71-8.87,6.86-.09.05-.19.07-.29.07ZM18.5,1.23c-2.42,0-4.85,1.55-4.85,5.02,0,1.44.31,2.59,1.04,3.83,1.39,2.37,6.77,5.5,8.09,6.24,1.32-.74,6.69-3.86,8.1-6.24.73-1.24,1.04-2.38,1.04-3.83,0-3.47-2.44-5.02-4.86-5.02s-3.43,1.53-3.72,2.19c-.1.22-.32.37-.57.37h0c-.25,0-.47-.15-.57-.37-.29-.66-1.22-2.19-3.71-2.19Z"/>
      </g>
      <g id="path31">
        <path class="cls-1" d="M36.44,30.82c-2.92,0-5.29-2.38-5.29-5.31s2.37-5.31,5.29-5.31,5.29,2.38,5.29,5.31-2.37,5.31-5.29,5.31ZM36.44,21.45c-2.24,0-4.05,1.83-4.05,4.07s1.82,4.07,4.05,4.07,4.05-1.83,4.05-4.07-1.82-4.07-4.05-4.07Z"/>
      </g>
      <g id="path35">
        <path class="cls-1" d="M44.95,44.43h-17.02c-.34,0-.62-.28-.62-.62s.28-.62.62-.62h16.4v-.62c0-4.35-3.54-7.89-7.89-7.89-2.49,0-4.78,1.14-6.29,3.12-.21.27-.59.33-.86.12-.27-.21-.32-.59-.12-.86,1.74-2.29,4.39-3.61,7.27-3.61,5.03,0,9.13,4.09,9.13,9.13v1.24c0,.34-.28.62-.62.62Z"/>
      </g>
      <g id="path39">
        <path class="cls-1" d="M9.13,30.82c-2.92,0-5.29-2.38-5.29-5.31s2.37-5.31,5.29-5.31,5.29,2.38,5.29,5.31-2.37,5.31-5.29,5.31ZM9.13,21.45c-2.24,0-4.05,1.83-4.05,4.07s1.82,4.07,4.05,4.07,4.06-1.83,4.06-4.07-1.82-4.07-4.06-4.07Z"/>
      </g>
      <g id="path43">
        <path class="cls-1" d="M17.64,44.43H.62c-.34,0-.62-.28-.62-.62v-1.24c0-5.03,4.09-9.13,9.13-9.13,2.87,0,5.52,1.31,7.26,3.6.21.27.15.66-.12.86-.27.21-.66.15-.86-.12-1.51-1.98-3.8-3.11-6.28-3.11-4.35,0-7.89,3.54-7.89,7.89v.62h16.4c.34,0,.62.28.62.62s-.28.62-.62.62Z"/>
      </g>
      <g id="path47">
        <path class="cls-1" d="M22.79,30.82c-2.92,0-5.29-2.38-5.29-5.31s2.37-5.31,5.29-5.31,5.29,2.38,5.29,5.31-2.37,5.31-5.29,5.31ZM22.79,21.45c-2.24,0-4.05,1.83-4.05,4.07s1.82,4.07,4.05,4.07,4.05-1.83,4.05-4.07-1.82-4.07-4.05-4.07Z"/>
      </g>
      <g id="path51">
        <path class="cls-1" d="M31.29,44.43H14.28c-.34,0-.62-.28-.62-.62v-1.24c0-5.03,4.09-9.13,9.13-9.13s9.13,4.09,9.13,9.13v1.24c0,.34-.28.62-.62.62ZM14.89,43.19h15.78v-.62c0-4.35-3.54-7.89-7.89-7.89s-7.89,3.54-7.89,7.89v.62Z"/>
      </g>
    </g>
  </g>
</svg>