<?xml version="1.0" encoding="UTF-8"?>
<svg id="Layer_2" data-name="Layer 2" xmlns="http://www.w3.org/2000/svg" viewBox="0 0 69.67 40.46">
  <defs>
    <style>
      .cls-1 {
        fill: #4d4d4d;
      }
    </style>
  </defs>
  <g id="Desktop_upto_1920px_" data-name="Desktop (upto 1920px)">
    <g>
      <path class="cls-1" d="M19.67,40.46c-.85,0-1.69-.14-2.52-.43-1.91-.67-3.45-2.05-4.33-3.87-.88-1.83-.99-3.89-.32-5.8.67-1.91,2.05-3.45,3.87-4.33,1.83-.88,3.89-.99,5.8-.32,1.91.67,3.45,2.05,4.33,3.87.88,1.83.99,3.89.32,5.8-.67,1.91-2.05,3.45-3.87,4.33-1.04.5-2.16.75-3.28.75ZM19.66,26.41c-.94,0-1.89.2-2.79.64-3.21,1.54-4.57,5.41-3.02,8.62,1.54,3.21,5.41,4.57,8.62,3.02,3.21-1.54,4.57-5.41,3.02-8.62-1.11-2.31-3.43-3.66-5.83-3.66Z"/>
      <path class="cls-1" d="M55.07,40.46c-3.1,0-6.02-1.92-7.14-5-1.42-3.93.62-8.29,4.55-9.71h0c1.9-.69,3.96-.6,5.8.26,1.83.86,3.23,2.38,3.91,4.29.69,1.91.6,3.96-.26,5.8-.86,1.83-2.38,3.23-4.29,3.92-.85.31-1.72.45-2.57.45ZM55.07,26.41c-.74,0-1.49.13-2.2.39h0c-3.35,1.21-5.09,4.92-3.88,8.27,1.21,3.35,4.93,5.09,8.28,3.88,1.62-.59,2.92-1.77,3.65-3.33s.81-3.32.22-4.94c-.59-1.62-1.77-2.92-3.33-3.65-.87-.41-1.8-.61-2.74-.61Z"/>
      <path class="cls-1" d="M69.67,34.84h-7.51v-1.12h6.39v-14.89c0-1.32-.92-2.25-2.25-2.25h-12.5V5.48h1.12v9.97h9.04l-4.36-10.11h-10.87v-1.12h11.61l4.84,11.24h1.11c1.95,0,3.37,1.42,3.37,3.37v16.01ZM47.97,34.84h-21.21v-1.12h21.21v1.12ZM12.57,34.84h-7.56L7.91,0h40.69v27.25h-1.12V1.12H8.95l-2.19,26.27h7.74v1.12h-7.83l-.43,5.2h6.34v1.12ZM68.41,28.51h-8.21v-1.12h8.21v1.12ZM49.93,28.51h-25.09v-1.12h25.09v1.12Z"/>
      <rect class="cls-1" y="20.54" width="9.71" height="1.12"/>
      <rect class="cls-1" x="4.21" y="13.7" width="15.32" height="1.12"/>
      <rect class="cls-1" x="2.11" y="6.85" width="11.11" height="1.12"/>
      <rect class="cls-1" x="19.54" y="6.85" width="5.2" height="1.12"/>
      <rect class="cls-1" x="25.86" y="13.7" width="2.6" height="1.12"/>
    </g>
  </g>
</svg>