<?xml version="1.0" encoding="UTF-8"?>
<svg id="Layer_2" data-name="Layer 2" xmlns="http://www.w3.org/2000/svg" viewBox="0 0 37.92 43">
  <defs>
    <style>
      .cls-1 {
        fill: #4d4d4d;
      }
    </style>
  </defs>
  <g id="Desktop_upto_1920px_" data-name="Desktop (upto 1920px)">
    <path class="cls-1" d="M33.18,0H4.73C2.12,0,0,2.12,0,4.73v33.54c0,2.61,2.12,4.73,4.73,4.73h28.45c2.61,0,4.74-2.12,4.74-4.73V4.73c0-2.61-2.13-4.73-4.74-4.73h0ZM1.19,4.73c0-1.95,1.59-3.54,3.54-3.54h28.45c1.96,0,3.55,1.59,3.55,3.54v2.46H1.19v-2.46ZM33.18,41.81H4.73c-1.95,0-3.54-1.59-3.54-3.54V8.39h35.53v29.88c0,1.95-1.59,3.54-3.55,3.54ZM13.38,5.98H5.21c-.74,0-1.34-.6-1.34-1.35v-1.15c0-.74.6-1.34,1.34-1.34h8.17c.74,0,1.35.6,1.35,1.34v1.15c0,.74-.6,1.35-1.35,1.35h0ZM5.21,3.34c-.08,0-.15.07-.15.15v1.15c0,.08.07.15.15.15h8.17c.08,0,.15-.07.15-.15v-1.15c0-.08-.07-.15-.15-.15H5.21ZM23.82,5.98c-1,0-1.8-.81-1.8-1.81s.81-1.8,1.8-1.8,1.8.81,1.8,1.8-.81,1.81-1.8,1.81ZM23.82,3.56c-.34,0-.61.27-.61.61s.27.61.61.61.61-.27.61-.61-.27-.61-.61-.61ZM28.03,5.98c-1,0-1.8-.81-1.8-1.81s.81-1.8,1.8-1.8,1.8.81,1.8,1.8c0,1-.81,1.81-1.8,1.81ZM28.03,3.56c-.34,0-.61.27-.61.61s.27.61.61.61.61-.27.61-.61-.27-.61-.61-.61ZM32.24,5.98c-1,0-1.8-.81-1.8-1.81s.81-1.8,1.8-1.8,1.8.81,1.8,1.8c0,1-.81,1.81-1.8,1.81ZM32.24,3.56c-.34,0-.61.27-.61.61s.27.61.61.61.61-.27.61-.61-.27-.61-.61-.61ZM18.96,37.93c-7.08,0-12.83-5.76-12.83-12.83s5.76-12.83,12.83-12.83,12.83,5.76,12.83,12.83-5.76,12.83-12.83,12.83h0ZM18.96,13.46c-6.42,0-11.64,5.22-11.64,11.64s5.22,11.64,11.64,11.64,11.64-5.22,11.64-11.64-5.22-11.64-11.64-11.64h0ZM18.95,34.56c-5.21,0-9.44-4.24-9.44-9.46s4.24-9.46,9.44-9.46c3.65,0,6.9,2.04,8.48,5.31.14.3.02.65-.27.8-1.28.63-2.08,1.91-2.08,3.35s.8,2.72,2.08,3.35c.29.15.42.5.27.8-1.59,3.28-4.84,5.31-8.48,5.31h0ZM18.95,16.84c-4.55,0-8.25,3.71-8.25,8.26s3.7,8.26,8.25,8.26c3,0,5.69-1.57,7.15-4.15-1.38-.9-2.21-2.43-2.21-4.12s.83-3.21,2.21-4.12c-1.46-2.57-4.15-4.15-7.15-4.15h0ZM13.9,29.41c-.13,0-.27-.05-.38-.14-.25-.21-.29-.59-.08-.84l.1-.12c.36-.43.62-.74.62-1.42s-.26-.99-.62-1.41c-.4-.48-.9-1.07-.9-2.2s.49-1.7.89-2.17l.09-.11c.21-.25.59-.29.84-.08.25.21.29.59.08.84l-.1.12c-.34.4-.61.73-.61,1.4s.26,1,.62,1.43c.4.48.9,1.07.9,2.18s-.5,1.71-.9,2.19l-.1.11c-.12.14-.29.22-.46.22h0ZM18.12,29.2l.1-.11c.4-.48.9-1.07.9-2.18s-.5-1.71-.9-2.18c-.36-.43-.62-.74-.62-1.43s.27-1,.61-1.4l.1-.12c.21-.25.17-.63-.08-.84-.26-.21-.63-.17-.84.08l-.09.11c-.4.47-.89,1.06-.89,2.17s.5,1.72.9,2.2c.36.43.62.73.62,1.41s-.26.99-.62,1.42l-.1.12c-.21.25-.17.63.08.84.11.09.25.14.38.14.17,0,.34-.07.46-.22h0ZM21.88,29.2l.1-.12c.4-.48.9-1.07.9-2.18s-.5-1.71-.9-2.18c-.36-.43-.62-.74-.62-1.43s.27-1,.61-1.4l.1-.12c.21-.25.17-.63-.08-.84-.25-.21-.63-.17-.84.08l-.09.11c-.4.47-.89,1.06-.89,2.17s.5,1.72.9,2.2c.36.43.62.73.62,1.41s-.26.99-.62,1.41l-.1.12c-.21.25-.17.63.08.84.11.09.25.14.38.14.17,0,.34-.07.46-.22h0Z"/>
  </g>
</svg>