<?xml version="1.0" encoding="UTF-8"?>
<svg id="Layer_2" data-name="Layer 2" xmlns="http://www.w3.org/2000/svg" viewBox="0 0 36.08 44.23">
  <defs>
    <style>
      .cls-1 {
        fill: #4d4d4d;
      }
    </style>
  </defs>
  <g id="Desktop_upto_1920px_" data-name="Desktop (upto 1920px)">
    <g>
      <path class="cls-1" d="M12.98,44.23c-.22,0-.43-.12-.54-.32l-2.46-4.5-4.93,1.42c-.23.07-.47,0-.63-.18-.16-.18-.2-.43-.11-.65l4.32-10.36c.13-.31.49-.46.8-.33.31.13.46.49.33.8l-3.82,9.18,4.17-1.2c.28-.08.57.04.71.29l2.12,3.86,4.55-9.85c.14-.31.51-.44.82-.3.31.14.44.51.3.82l-5.06,10.95c-.1.21-.3.35-.54.36,0,0-.01,0-.02,0Z"/>
      <path class="cls-1" d="M23.1,44.23s-.01,0-.02,0c-.23,0-.44-.15-.54-.36l-5.06-10.95c-.14-.31,0-.67.3-.82.31-.14.67,0,.82.3l4.55,9.85,2.12-3.86c.14-.25.43-.37.71-.29l4.17,1.2-3.82-9.18c-.13-.31.02-.67.33-.8.31-.13.67.02.8.33l4.32,10.36c.09.22.05.47-.11.65-.16.18-.4.25-.63.18l-4.93-1.42-2.46,4.5c-.11.2-.31.32-.54.32Z"/>
      <path class="cls-1" d="M22.78,34.58c-.85,0-1.71-.35-2.55-.68-.75-.3-1.53-.62-2.19-.62s-1.44.31-2.19.62c-1.12.45-2.28.92-3.39.56-1.16-.38-1.83-1.46-2.48-2.51-.43-.7-.84-1.36-1.34-1.72-.51-.37-1.27-.56-2.07-.76-1.19-.3-2.42-.6-3.12-1.57-.7-.96-.61-2.22-.53-3.43.06-.83.11-1.62-.09-2.23-.18-.57-.68-1.15-1.2-1.77-.8-.95-1.63-1.93-1.63-3.17s.83-2.22,1.63-3.17c.52-.62,1.01-1.2,1.2-1.77.2-.61.14-1.4.09-2.23-.08-1.22-.17-2.47.53-3.43.71-.97,1.93-1.28,3.12-1.57.81-.2,1.57-.39,2.07-.76.5-.36.91-1.02,1.34-1.72.65-1.05,1.33-2.13,2.48-2.51,1.11-.36,2.27.11,3.39.56.75.3,1.53.62,2.19.62s1.44-.31,2.19-.62c1.12-.45,2.28-.92,3.39-.56,1.16.38,1.83,1.46,2.48,2.51.43.7.84,1.36,1.34,1.72.51.37,1.27.56,2.07.76,1.19.3,2.42.6,3.12,1.57.7.96.61,2.22.53,3.43-.06.83-.11,1.62.09,2.23.18.57.68,1.15,1.2,1.77.8.95,1.63,1.93,1.63,3.17s-.83,2.22-1.63,3.17c-.52.62-1.01,1.2-1.2,1.77-.2.61-.14,1.39-.09,2.23.08,1.22.17,2.47-.53,3.43-.71.97-1.94,1.28-3.12,1.57-.8.2-1.57.39-2.07.76-.5.36-.91,1.02-1.34,1.72-.65,1.05-1.33,2.13-2.48,2.51-.28.09-.56.13-.84.13ZM18.04,32.05c.9,0,1.79.36,2.65.7.96.39,1.87.75,2.55.53.73-.24,1.26-1.09,1.82-1.99.48-.77.97-1.56,1.66-2.06.7-.51,1.61-.74,2.5-.96,1.02-.26,1.99-.5,2.43-1.1.44-.6.37-1.58.3-2.63-.06-.91-.13-1.86.14-2.69.26-.8.85-1.5,1.43-2.18.69-.82,1.34-1.59,1.34-2.38s-.65-1.56-1.34-2.38c-.57-.68-1.17-1.39-1.43-2.18-.27-.83-.21-1.78-.14-2.69.07-1.04.14-2.03-.3-2.63-.44-.61-1.41-.85-2.43-1.1-.88-.22-1.8-.45-2.5-.96-.69-.5-1.18-1.29-1.66-2.06-.56-.9-1.09-1.75-1.82-1.99-.69-.22-1.59.14-2.55.53-.86.35-1.75.7-2.65.7s-1.79-.36-2.65-.7c-.96-.39-1.86-.75-2.55-.53-.73.24-1.26,1.09-1.82,1.99-.48.77-.97,1.56-1.66,2.06-.7.51-1.61.74-2.5.96-1.02.25-1.99.5-2.43,1.1-.43.6-.37,1.58-.3,2.63.06.91.13,1.86-.14,2.69-.26.8-.85,1.5-1.43,2.18-.69.82-1.34,1.59-1.34,2.38s.65,1.56,1.34,2.38c.57.68,1.17,1.39,1.43,2.18.27.83.21,1.78.14,2.69-.07,1.04-.14,2.03.3,2.63.44.61,1.41.85,2.43,1.1.88.22,1.8.45,2.5.96.69.5,1.18,1.29,1.66,2.06.56.9,1.09,1.75,1.82,1.99.69.22,1.59-.14,2.55-.53.86-.35,1.75-.7,2.65-.7Z"/>
      <path class="cls-1" d="M18.04,29.75c-6.87,0-12.46-5.59-12.46-12.46s5.59-12.46,12.46-12.46,12.46,5.59,12.46,12.46-5.59,12.46-12.46,12.46ZM18.04,6.06c-6.19,0-11.23,5.04-11.23,11.23s5.04,11.23,11.23,11.23,11.23-5.04,11.23-11.23-5.04-11.23-11.23-11.23Z"/>
      <path class="cls-1" d="M22.6,24.05c-.1,0-.2-.02-.29-.07l-4.28-2.25-4.28,2.25c-.21.11-.46.09-.65-.05-.19-.14-.28-.37-.24-.6l.82-4.76-3.46-3.37c-.17-.16-.23-.41-.16-.63.07-.22.26-.38.5-.42l4.78-.69,2.14-4.33c.1-.21.32-.34.55-.34h0c.23,0,.45.13.55.34l2.14,4.33,4.78.69c.23.03.42.2.5.42.07.22.01.47-.16.63l-3.46,3.37.82,4.76c.04.23-.06.46-.24.6-.11.08-.23.12-.36.12ZM18.04,20.42c.1,0,.2.02.29.07l3.46,1.82-.66-3.85c-.03-.2.03-.4.18-.54l2.8-2.73-3.87-.56c-.2-.03-.37-.15-.46-.34l-1.73-3.51-1.73,3.51c-.09.18-.26.31-.46.34l-3.87.56,2.8,2.73c.15.14.21.34.18.54l-.66,3.85,3.46-1.82c.09-.05.19-.07.29-.07Z"/>
    </g>
  </g>
</svg>