<?xml version="1.0" encoding="UTF-8"?>
<svg id="Layer_2" data-name="Layer 2" xmlns="http://www.w3.org/2000/svg" viewBox="0 0 38.65 25.77">
  <defs>
    <style>
      .cls-1 {
        fill: #101211;
      }

      .cls-2 {
        fill: #e32121;
      }

      .cls-3 {
        fill: #076629;
      }

      .cls-4 {
        fill: #153a8d;
      }

      .cls-5 {
        fill: #fff;
      }

      .cls-6 {
        fill: #f5e600;
      }
    </style>
  </defs>
  <g id="Assets">
    <g>
      <path class="cls-3" d="M0,0h15.46v25.77H0V0Z"/>
      <path class="cls-2" d="M15.46,0h23.19v25.77H15.46V0Z"/>
      <g>
        <g>
          <g>
            <g>
              <path class="cls-6" d="M10.08,10.29c.03.05.07.11.11.16.7.23,2.04.56,4.14.64.44.02.79.02.99.02h.31c.2,0,.55,0,.99-.02,2.1-.08,3.43-.41,4.14-.64.04-.05.07-.11.11-.16.08-.13.16-.26.23-.4-.04-.07-.07-.13-.11-.19-.71.26-2.44.75-5.49.74h0s-.04,0-.04,0h0c-3.04.02-4.78-.47-5.49-.73-.04.06-.07.13-.11.19.07.14.15.27.23.4Z"/>
              <path class="cls-1" d="M15.74,11.12h-.27s0,0,0,0h-.07s-.06,0-.06,0h-.14c-.19,0-.5,0-.86-.02-2.06-.08-3.39-.39-4.14-.64h0s0,0,0,0c-.03-.05-.07-.1-.11-.16l-.02-.04c-.07-.11-.14-.24-.21-.36h0s0-.01,0-.01c.04-.07.07-.13.11-.2h0s.01,0,.01,0c.74.27,2.41.73,5.3.73.05,0,.11,0,.16,0h.08c.05,0,.11,0,.16,0h0c2.89,0,4.57-.46,5.3-.73h.01s0,0,0,0c.04.06.07.13.11.2h0s0,.01,0,.01c-.07.13-.14.25-.21.36l-.02.04c-.04.06-.07.11-.11.16h0s0,0,0,0c-.75.25-2.08.56-4.14.64-.37.01-.67.02-.86.02h0ZM15.6,11.09h.14c.19,0,.49,0,.86-.02,2.05-.08,3.38-.39,4.13-.64.03-.04.05-.08.08-.13l.02-.03c.08-.12.15-.25.23-.39-.03-.06-.07-.12-.1-.17-.75.28-2.42.73-5.3.73h-.4c-2.88,0-4.56-.46-5.3-.73-.03.06-.06.11-.1.17.07.14.15.27.23.39l.02.04s.05.08.08.12c.75.25,2.08.56,4.13.64.37.01.67.02.86.02h.42Z"/>
            </g>
            <g>
              <path class="cls-6" d="M15.44,10.98h.04c2.88.02,4.59-.42,5.36-.69-.03.05-.07.11-.11.16-.82.27-2.5.67-5.26.65h-.04c-2.76.02-4.44-.38-5.26-.65-.04-.05-.07-.11-.11-.16.78.27,2.48.71,5.36.69Z"/>
              <path class="cls-1" d="M15.66,11.12c-.06,0-.12,0-.18,0h-.04c-2.81.02-4.51-.41-5.26-.65h0s0,0,0,0c-.03-.05-.07-.1-.11-.16l-.02-.04.04.02c.74.26,2.4.69,5.18.69h.16s.02,0,.02,0h.06s.16,0,.16,0c2.79,0,4.44-.43,5.18-.69l.04-.02-.02.04c-.04.06-.07.11-.11.16h0s0,0,0,0c-.74.24-2.38.66-5.09.66h0ZM15.5,11.09c2.79.02,4.48-.4,5.23-.65.02-.04.05-.08.08-.12-.78.27-2.48.69-5.33.68h-.22c-2.74,0-4.39-.42-5.15-.68.03.04.05.08.08.12.76.25,2.45.67,5.23.65h.08Z"/>
            </g>
            <g>
              <path class="cls-6" d="M15.44,10.56h.04c3.13.02,4.88-.5,5.55-.76-.02-.04-.04-.07-.06-.11-.71.26-2.44.75-5.49.74h0s-.04,0-.04,0h0c-3.04.02-4.78-.47-5.49-.73-.02.03-.04.07-.06.11.67.26,2.42.78,5.55.76Z"/>
              <path class="cls-1" d="M15.66,10.58c-.06,0-.12,0-.18,0h-.04c-.06,0-.12,0-.18,0-3.07,0-4.78-.53-5.37-.76h-.02s0-.02,0-.02c.02-.04.04-.07.06-.11h0s.01,0,.01,0c.74.27,2.41.73,5.3.73.05,0,.11,0,.16,0h.08c.05,0,.11,0,.16,0h0c2.89,0,4.57-.46,5.3-.73h.01s0,0,0,0c.02.04.04.07.06.11v.02s0,0,0,0c-.59.23-2.31.76-5.37.76h0ZM15.5,10.54c3.13.02,4.89-.51,5.51-.75-.02-.03-.03-.05-.04-.08-.75.28-2.42.73-5.3.73h-.4c-2.88,0-4.56-.46-5.3-.73-.02.03-.03.05-.04.08.61.23,2.31.75,5.35.75h.24Z"/>
            </g>
          </g>
          <g>
            <g>
              <path class="cls-6" d="M15.03,14.3c4.03,2.31,5.17,2.5,5.46,2.49.09-.12.18-.24.27-.37.13-.21.25-.43.36-.65-.38-.01-1.61-.32-5.4-2.49-4.5-2.58-5.27-3.87-5.38-4.13-.1.12-.19.25-.27.38-.14.23-.27.46-.38.71.2.37,1.14,1.65,5.35,4.07h0Z"/>
              <path class="cls-1" d="M20.45,16.8c-.33,0-1.51-.24-5.43-2.49-4.24-2.43-5.17-3.73-5.36-4.07h0s0-.01,0-.01c.11-.24.24-.48.38-.71.09-.13.18-.26.27-.38l.02-.02v.02c.11.23.86,1.53,5.39,4.12,3.85,2.21,5.05,2.47,5.39,2.48h.02s0,.02,0,.02c-.11.22-.23.44-.36.65-.08.13-.17.25-.27.37h0s0,0,0,0c-.01,0-.02,0-.04,0h0ZM9.7,10.23c.19.35,1.13,1.64,5.34,4.05,3.91,2.24,5.09,2.49,5.42,2.49,0,0,.02,0,.03,0,.09-.12.18-.24.26-.36.13-.2.24-.41.34-.63-.45-.03-1.73-.4-5.38-2.49-4.4-2.52-5.24-3.82-5.38-4.11-.09.12-.18.24-.26.36-.14.22-.27.46-.38.7Z"/>
            </g>
            <g>
              <path class="cls-6" d="M15.03,14.3c4.03,2.31,5.17,2.5,5.46,2.49.02-.02.04-.05.06-.07-.41-.02-1.67-.36-5.44-2.51-4.09-2.34-5.13-3.63-5.38-4.06-.02.03-.03.07-.05.1.2.37,1.14,1.65,5.35,4.07h0Z"/>
              <path class="cls-1" d="M20.45,16.8c-.33,0-1.51-.24-5.43-2.49-4.24-2.43-5.17-3.73-5.36-4.07h0s0-.01,0-.01c.02-.03.03-.07.05-.1v-.03s.03.03.03.03c.26.45,1.32,1.73,5.38,4.06,3.71,2.13,4.99,2.49,5.43,2.51h.03s-.02.02-.02.02c-.02.03-.04.05-.06.08h0s0,0,0,0c-.01,0-.03,0-.04,0h0ZM9.7,10.23c.19.35,1.13,1.64,5.34,4.05,3.91,2.24,5.09,2.49,5.42,2.49,0,0,.02,0,.03,0,.01-.01.02-.03.04-.05-.47-.04-1.78-.43-5.42-2.51-3.99-2.29-5.09-3.58-5.37-4.04-.01.02-.02.04-.03.07Z"/>
            </g>
            <g>
              <path class="cls-6" d="M10.33,9.15s-.06.08-.09.12c.2.38,1.16,1.67,5.41,4.11,3.64,2.09,4.95,2.47,5.4,2.51.02-.04.04-.09.06-.13-.38-.01-1.61-.32-5.4-2.49-4.5-2.58-5.27-3.87-5.38-4.13h0Z"/>
              <path class="cls-1" d="M21.06,15.91h-.01c-.46-.04-1.77-.43-5.4-2.51-4.29-2.46-5.23-3.77-5.42-4.12h0s0-.02,0-.02c.03-.04.06-.08.09-.12l.02-.02v.02c.11.23.86,1.53,5.39,4.12,3.85,2.21,5.05,2.47,5.39,2.48h.02s0,.02,0,.02c-.02.04-.04.09-.06.13h0ZM10.26,9.27c.2.36,1.15,1.66,5.4,4.1,3.6,2.07,4.92,2.46,5.38,2.51.02-.03.03-.07.05-.1-.45-.03-1.73-.4-5.38-2.49-4.4-2.52-5.24-3.82-5.38-4.11-.02.03-.05.06-.07.09Z"/>
            </g>
          </g>
          <g>
            <g>
              <path class="cls-6" d="M15.46,16.64c-2.74,0-4.39-.34-5.35-.67-.04.06-.08.12-.11.18.13.21.26.42.41.61,2.1.58,5.05.58,5.05.58,0,0,2.94,0,5.05-.58.15-.19.29-.4.42-.61-.04-.06-.07-.12-.11-.18-.96.33-2.61.66-5.35.67Z"/>
              <path class="cls-1" d="M15.46,17.36s-2.97,0-5.05-.58h0s0,0,0,0c-.15-.2-.29-.4-.42-.61h0s0-.02,0-.02c.04-.07.08-.13.11-.18h0s.01,0,.01,0c.88.3,2.52.66,5.35.67,2.83,0,4.47-.37,5.35-.67h.01s0,0,0,0c.04.05.07.11.11.18h0s0,.02,0,.02c-.13.21-.27.42-.42.61h0s0,0,0,0c-2.08.58-5.02.58-5.05.58ZM10.43,16.75c2.08.57,5.01.58,5.04.58s2.96,0,5.04-.58c.15-.19.28-.39.41-.6-.04-.06-.07-.11-.1-.16-.88.3-2.52.66-5.34.67-2.82,0-4.46-.37-5.34-.67-.03.05-.06.1-.1.16.12.21.26.4.41.6Z"/>
            </g>
            <g>
              <path class="cls-6" d="M15.46,16.77c-2.8,0-4.46-.35-5.42-.69-.02.02-.03.05-.04.08.09.15.19.3.29.45,2.11.62,5.17.62,5.17.62,0,0,3.06,0,5.17-.62.1-.14.2-.29.29-.45-.01-.03-.03-.05-.04-.08-.95.34-2.61.68-5.42.69Z"/>
              <path class="cls-1" d="M15.46,17.23s-3.09,0-5.17-.62h0s0,0,0,0c-.1-.14-.2-.3-.29-.45h0s.02-.05.02-.05c0-.02.02-.03.03-.05h0s.01,0,.01,0c.88.31,2.53.68,5.41.69,2.88,0,4.53-.38,5.41-.69h.01s0,0,0,0c0,.02.02.03.03.05l.02.04h0c-.09.16-.19.31-.3.46h0s0,0,0,0c-2.09.61-5.14.62-5.17.62h0ZM10.31,16.58c2.08.61,5.13.62,5.16.62s3.08,0,5.16-.62c.1-.14.2-.29.29-.43v-.02s-.03-.02-.03-.03c-.88.31-2.54.68-5.41.69-2.87,0-4.53-.38-5.41-.69,0,.01-.01.02-.02.03v.02c.08.15.17.29.27.43Z"/>
            </g>
          </g>
          <g>
            <g>
              <path class="cls-6" d="M15.46,14.48s4.49,0,6.34-1.1c0-.11.01-.23.02-.34,0-.13,0-.26-.02-.39-.57.37-2.22,1.12-6.34,1.13-4.13-.01-5.78-.76-6.34-1.13,0,.13-.01.26-.02.39,0,.12,0,.23.02.34,1.85,1.1,6.34,1.1,6.34,1.1Z"/>
              <path class="cls-1" d="M15.46,14.5s-4.52-.01-6.35-1.1h0s0-.01,0-.01c0-.11-.01-.23-.02-.34,0-.14,0-.27.02-.39v-.03s.02.01.02.01c.51.34,2.15,1.12,6.34,1.13,4.19-.01,5.83-.79,6.34-1.13h.02s0,.01,0,.01c0,.12.01.25.02.39,0,.12,0,.23-.02.35h0s0,.01,0,.01c-1.83,1.09-6.31,1.1-6.35,1.1h0ZM9.13,13.38c1.83,1.08,6.28,1.09,6.33,1.09s4.5-.01,6.33-1.09c0-.11.01-.22.02-.34,0-.13,0-.25-.01-.36-.54.34-2.2,1.11-6.33,1.12-4.13-.01-5.79-.77-6.33-1.12,0,.11-.01.23-.01.36,0,.11,0,.22.02.34h0Z"/>
            </g>
            <g>
              <path class="cls-6" d="M15.46,13.91c-4.13-.01-5.78-.76-6.34-1.13,0,.1-.01.21-.01.32,0,.05,0,.1,0,.15,1.84,1.1,6.35,1.1,6.35,1.1,0,0,4.51,0,6.35-1.1,0-.05,0-.1,0-.15,0-.11,0-.21-.01-.32-.57.37-2.22,1.12-6.34,1.13Z"/>
              <path class="cls-1" d="M15.46,14.37s-4.53-.01-6.36-1.11h0s0-.01,0-.01c0-.05,0-.1,0-.16,0-.13,0-.23.02-.32v-.03s.02.01.02.01c.51.34,2.15,1.12,6.34,1.13,4.19-.01,5.83-.79,6.34-1.13h.02s0,.01,0,.01c0,.09.01.19.02.32,0,.05,0,.1,0,.16h0s0,.01,0,.01c-1.83,1.09-6.31,1.11-6.36,1.11h0ZM9.13,13.24c1.82,1.09,6.29,1.1,6.34,1.1s4.51-.01,6.34-1.1c0-.05,0-.1,0-.15,0-.11,0-.2-.01-.29-.54.34-2.2,1.11-6.33,1.12-4.13-.01-5.79-.77-6.33-1.12,0,.09,0,.18-.01.29,0,.05,0,.1,0,.14Z"/>
            </g>
          </g>
          <g>
            <path class="cls-6" d="M15.46,6.52c-3.51,0-6.36,2.85-6.36,6.36s2.85,6.36,6.36,6.36,6.36-2.85,6.36-6.36-2.85-6.36-6.36-6.36ZM15.46,18.61c-3.16,0-5.73-2.56-5.73-5.73s2.56-5.73,5.73-5.73,5.73,2.56,5.73,5.73-2.56,5.73-5.73,5.73Z"/>
            <path class="cls-1" d="M15.46,19.26c-3.52,0-6.38-2.86-6.38-6.38s2.86-6.38,6.38-6.38,6.38,2.86,6.38,6.38-2.86,6.38-6.38,6.38ZM15.46,6.54c-3.5,0-6.35,2.85-6.35,6.35s2.85,6.35,6.35,6.35,6.35-2.85,6.35-6.35-2.85-6.35-6.35-6.35ZM15.46,18.63c-3.17,0-5.74-2.58-5.74-5.74s2.58-5.74,5.74-5.74,5.74,2.58,5.74,5.74c0,3.17-2.58,5.74-5.74,5.74ZM15.46,7.17c-3.15,0-5.71,2.56-5.71,5.71s2.56,5.71,5.71,5.71,5.71-2.56,5.71-5.71-2.56-5.71-5.71-5.71Z"/>
          </g>
          <g>
            <path class="cls-6" d="M15.46,6.65c-3.44,0-6.24,2.79-6.24,6.24s2.79,6.24,6.24,6.24,6.24-2.79,6.24-6.24-2.79-6.24-6.24-6.24ZM15.46,18.74c-3.23,0-5.85-2.62-5.85-5.85s2.62-5.85,5.85-5.85,5.85,2.62,5.85,5.85-2.62,5.85-5.85,5.85Z"/>
            <path class="cls-1" d="M15.46,19.14c-3.45,0-6.25-2.8-6.25-6.25s2.8-6.25,6.25-6.25,6.25,2.8,6.25,6.25-2.8,6.25-6.25,6.25ZM15.46,6.66c-3.43,0-6.22,2.79-6.22,6.22s2.79,6.22,6.22,6.22,6.22-2.79,6.22-6.22-2.79-6.22-6.22-6.22ZM15.46,18.75c-3.24,0-5.87-2.63-5.87-5.87s2.63-5.87,5.87-5.87,5.87,2.63,5.87,5.87-2.63,5.87-5.87,5.87ZM15.46,7.05c-3.22,0-5.84,2.62-5.84,5.84s2.62,5.84,5.84,5.84,5.84-2.62,5.84-5.84-2.62-5.84-5.84-5.84Z"/>
          </g>
          <g>
            <path class="cls-6" d="M15.15,6.52h.64v12.73h-.64V6.52Z"/>
            <path class="cls-1" d="M15.8,19.26h-.67V6.51h.67v12.76ZM15.16,19.23h.61V6.54h-.61v12.69Z"/>
          </g>
          <g>
            <path class="cls-6" d="M15.15,6.46h.13v12.85h-.13V6.46Z"/>
            <path class="cls-1" d="M15.29,19.33h-.16V6.44h.16v12.88ZM15.16,19.3h.1V6.47h-.1v12.82Z"/>
          </g>
          <g>
            <path class="cls-6" d="M15.65,6.46h.13v12.85h-.13V6.46Z"/>
            <path class="cls-1" d="M15.8,19.33h-.16V6.44h.16v12.88ZM15.67,19.3h.1V6.47h-.1v12.82Z"/>
          </g>
          <g>
            <g>
              <path class="cls-6" d="M9.11,12.65c0,.08,0,.15,0,.23,0,.17,0,.33.02.49.57-.37,2.22-1.12,6.34-1.13,4.13.01,5.78.76,6.34,1.13.01-.16.02-.33.02-.49,0-.08,0-.15,0-.23-1.84-1.11-6.36-1.11-6.36-1.11,0,0-4.52,0-6.36,1.11Z"/>
              <path class="cls-1" d="M21.82,13.41l-.02-.02c-.51-.34-2.15-1.11-6.34-1.13-4.18.01-5.83.79-6.34,1.13l-.02.02v-.03c-.02-.16-.02-.33-.02-.49,0-.07,0-.14,0-.23h0s0-.01,0-.01c1.82-1.1,6.32-1.11,6.37-1.11s4.54.01,6.37,1.11h0s0,.01,0,.01c0,.09,0,.16,0,.23,0,.16,0,.33-.02.49v.03ZM15.46,12.23c4.13.01,5.79.77,6.33,1.12.01-.15.02-.31.02-.46,0-.07,0-.14,0-.22-1.82-1.09-6.3-1.1-6.34-1.1s-4.52.01-6.34,1.1c0,.08,0,.16,0,.22,0,.15,0,.31.02.46.54-.34,2.2-1.1,6.33-1.12Z"/>
            </g>
            <g>
              <path class="cls-6" d="M15.46,11.67s-4.52,0-6.36,1.11c0,.03,0,.06,0,.09,0,.13,0,.26.02.38.57-.37,2.22-1.12,6.34-1.13,4.13.01,5.78.76,6.34,1.13,0-.13.01-.25.02-.38,0-.03,0-.06,0-.09-1.84-1.11-6.36-1.11-6.36-1.11Z"/>
              <path class="cls-1" d="M21.82,13.28h-.02c-.51-.35-2.15-1.13-6.34-1.14-4.18.01-5.83.79-6.34,1.13h-.02s0-.01,0-.01c0-.11-.01-.24-.02-.38,0-.03,0-.06,0-.09h0s0-.01,0-.01c1.82-1.1,6.32-1.11,6.37-1.11s4.54.01,6.37,1.11h0s0,.01,0,.01c0,.03,0,.06,0,.09,0,.14,0,.27-.02.38v.03ZM9.12,12.79s0,.05,0,.08c0,.13,0,.25.01.35.54-.34,2.2-1.11,6.33-1.12,4.13.01,5.79.77,6.33,1.12,0-.11.01-.22.01-.35,0-.03,0-.05,0-.08-1.82-1.09-6.3-1.1-6.34-1.1-.05,0-4.52.01-6.34,1.1Z"/>
            </g>
          </g>
          <g>
            <g>
              <path class="cls-6" d="M9.7,10.19c.46-.2,2.23-.86,5.74-.84h0s.04,0,.04,0h0c3.51-.02,5.28.63,5.74.84-.11-.24-.24-.47-.38-.7-.03-.05-.07-.11-.11-.16-.7-.23-2.04-.56-4.14-.64-.44-.02-.79-.02-.99-.02h-.31c-.2,0-.55,0-.99.02-2.1.08-3.43.41-4.14.64-.04.05-.07.11-.11.16-.14.22-.27.45-.38.7Z"/>
              <path class="cls-1" d="M9.67,10.22l.02-.04c.11-.23.23-.45.36-.66l.02-.04c.04-.06.07-.12.11-.16h0s0,0,0,0c.75-.25,2.08-.56,4.14-.64.37-.01.67-.02.86-.02.05,0,.09,0,.13,0h.31s.08,0,.13,0c.19,0,.5,0,.86.02,2.06.08,3.39.39,4.14.64h0s0,0,0,0c.03.05.07.1.11.16l.02.04h0c.13.21.25.44.36.66l.02.04-.04-.02c-.45-.2-2.22-.86-5.72-.84h-.08c-.05,0-.11,0-.16,0-3.39,0-5.11.64-5.56.84l-.04.02ZM10.11,9.48l-.02.03c-.13.21-.26.43-.36.66.5-.21,2.23-.82,5.54-.82h.22c3.42-.02,5.2.61,5.71.82-.11-.22-.23-.45-.36-.66l-.02-.04h0s-.05-.08-.08-.12c-.75-.25-2.08-.56-4.13-.64-.37-.01-.67-.02-.86-.02h-.56c-.19,0-.5,0-.86.02-2.05.08-3.38.39-4.13.64-.03.04-.05.08-.08.13h0Z"/>
            </g>
            <g>
              <path class="cls-6" d="M15.49,9.23h-.04c-3.34-.02-5.1.57-5.67.81-.03.05-.05.11-.08.16.46-.2,2.23-.86,5.74-.84h0s.04,0,.04,0h0c3.51-.02,5.28.63,5.74.84-.03-.05-.05-.11-.08-.16-.56-.24-2.33-.83-5.67-.81Z"/>
              <path class="cls-1" d="M9.67,10.22l.02-.04c.03-.05.05-.11.08-.16h0s0,0,0,0c.6-.25,2.36-.83,5.67-.81h.04c3.31-.02,5.08.56,5.67.81h0s0,0,0,0c.03.05.05.11.08.16l.02.04-.04-.02c-.45-.2-2.22-.86-5.72-.84h-.08c-3.5-.02-5.27.64-5.72.84l-.04.02ZM9.79,10.04s-.04.08-.06.12c.51-.22,2.29-.85,5.71-.82h.22c3.31,0,5.03.61,5.54.82-.02-.04-.04-.08-.06-.12-.59-.24-2.29-.8-5.48-.8h-.24c-3.29-.02-5.04.55-5.64.8Z"/>
            </g>
            <g>
              <path class="cls-6" d="M15.44,8.8h0s.04,0,.04,0h0c2.88-.02,4.59.42,5.36.69-.03-.05-.07-.11-.11-.16-.82-.27-2.5-.67-5.26-.65h-.04c-2.76-.02-4.44.38-5.26.65-.04.05-.07.11-.11.16.78-.27,2.48-.71,5.36-.69Z"/>
              <path class="cls-1" d="M10.04,9.53l.02-.04c.04-.06.07-.12.11-.16h0s0,0,0,0c.76-.25,2.46-.67,5.26-.65h.04c2.81-.02,4.51.41,5.26.65h0s0,0,0,0c.03.05.07.1.11.16l.02.04-.04-.02c-.74-.26-2.4-.69-5.18-.69-.05,0-.11,0-.16,0h-.08c-.05,0-.11,0-.16,0-2.79,0-4.44.43-5.18.69l-.04.02ZM10.19,9.35s-.05.08-.08.12c.78-.27,2.48-.69,5.33-.68h.04c2.84-.02,4.55.41,5.33.68-.03-.04-.05-.08-.08-.12-.76-.25-2.45-.67-5.23-.65h-.08c-2.79-.02-4.48.4-5.23.65Z"/>
            </g>
          </g>
          <g>
            <g>
              <path class="cls-6" d="M9.78,15.75c.1.2.21.4.33.58.96-.33,2.61-.66,5.35-.67,2.74,0,4.39.34,5.35.67.12-.19.23-.38.33-.58-2.08-.79-5.68-.79-5.68-.79,0,0-3.6,0-5.68.79Z"/>
              <path class="cls-1" d="M20.82,16.35h-.01c-.88-.3-2.52-.66-5.35-.67-2.83,0-4.47.37-5.35.67h-.01s0,0,0,0c-.12-.19-.23-.38-.34-.58v-.02s0,0,0,0c2.06-.78,5.65-.79,5.69-.79s3.63,0,5.69.79h.02s0,.02,0,.02c-.1.2-.21.4-.34.58h0ZM9.8,15.76c.1.19.2.38.32.55.88-.3,2.52-.66,5.34-.67,2.82,0,4.46.37,5.34.67.12-.18.22-.37.32-.55-2.06-.77-5.63-.78-5.66-.78s-3.6,0-5.66.78Z"/>
            </g>
            <g>
              <path class="cls-6" d="M9.83,15.85c.07.13.14.25.21.37.95-.34,2.61-.68,5.42-.69,2.8,0,4.46.35,5.42.69.07-.12.15-.24.21-.37-2.09-.77-5.63-.77-5.63-.77,0,0-3.54,0-5.63.77Z"/>
              <path class="cls-1" d="M20.89,16.24h-.01c-.88-.32-2.53-.69-5.41-.69-2.88,0-4.53.38-5.41.69h-.01s0,0,0,0c-.08-.12-.15-.25-.21-.37v-.02s0,0,0,0c2.07-.76,5.6-.77,5.63-.77s3.57,0,5.63.77h.02s0,.02,0,.02c-.07.13-.14.25-.21.37h0ZM15.46,15.52c2.87,0,4.53.38,5.41.69.07-.11.13-.23.2-.34-2.07-.75-5.57-.76-5.61-.76s-3.54,0-5.61.76c.06.12.13.23.2.34.88-.31,2.54-.68,5.41-.69Z"/>
            </g>
          </g>
          <g>
            <g>
              <path class="cls-6" d="M20.49,16.79c.26-.33.48-.68.67-1.06-.17-.33-1.05-1.62-5.37-4.09-4.13-2.37-5.22-2.51-5.48-2.48-.23.32-.43.66-.6,1.02.38.01,1.61.32,5.4,2.49,4.5,2.58,5.27,3.87,5.38,4.13Z"/>
              <path class="cls-1" d="M20.48,16.82v-.02c-.12-.23-.86-1.53-5.39-4.12-3.85-2.21-5.05-2.47-5.39-2.48h-.02s0-.02,0-.02c.17-.36.37-.7.6-1.02h0s0,0,0,0c.02,0,.04,0,.06,0,.33,0,1.51.24,5.43,2.49,4.31,2.47,5.2,3.76,5.37,4.1h0s0,.02,0,.02c-.19.37-.41.73-.67,1.06l-.02.02ZM9.73,10.16c.45.03,1.73.4,5.38,2.49,4.4,2.52,5.24,3.82,5.38,4.11.25-.32.47-.67.65-1.03-.18-.35-1.08-1.63-5.36-4.08-3.91-2.24-5.09-2.48-5.42-2.48-.02,0-.03,0-.05,0-.22.31-.42.64-.59.99Z"/>
            </g>
            <g>
              <path class="cls-6" d="M15.17,12.56c-3.65-2.09-4.95-2.47-5.4-2.51-.02.04-.04.09-.06.13.38.01,1.61.32,5.4,2.49,4.5,2.58,5.27,3.87,5.38,4.13.03-.04.06-.08.09-.12-.2-.37-1.16-1.67-5.41-4.11Z"/>
              <path class="cls-1" d="M20.48,16.82v-.02c-.12-.23-.86-1.53-5.39-4.12-3.85-2.21-5.05-2.47-5.39-2.48h-.02s0-.02,0-.02c.02-.04.04-.09.06-.13h0s.01,0,.01,0c.46.04,1.77.43,5.4,2.51,4.29,2.46,5.23,3.78,5.42,4.12h0s0,.02,0,.02c-.03.04-.06.08-.09.12l-.02.02ZM9.73,10.16c.45.03,1.73.4,5.38,2.49,4.4,2.52,5.24,3.82,5.38,4.11.02-.03.05-.06.07-.09-.2-.36-1.15-1.66-5.4-4.1-3.6-2.07-4.91-2.46-5.38-2.51-.02.03-.03.06-.05.1Z"/>
            </g>
            <g>
              <path class="cls-6" d="M15.71,11.74c4.16,2.38,5.16,3.68,5.4,4.09.02-.03.03-.06.05-.09-.17-.33-1.05-1.62-5.37-4.09-4.13-2.37-5.22-2.51-5.48-2.48-.02.02-.03.05-.05.07.4.02,1.65.33,5.45,2.51Z"/>
              <path class="cls-1" d="M21.11,15.86v-.03c-.27-.44-1.3-1.72-5.41-4.08-3.74-2.14-5.01-2.49-5.44-2.51h-.03s.03-.04.03-.04c.01-.02.03-.04.04-.05h0s0,0,0,0c.02,0,.04,0,.06,0,.33,0,1.51.24,5.43,2.49,4.31,2.47,5.2,3.76,5.37,4.1h0s0,.02,0,.02c-.01.03-.03.06-.04.08l-.02.04ZM10.29,9.21c.46.03,1.77.41,5.43,2.51,4.04,2.32,5.11,3.6,5.39,4.07.01-.02.02-.04.03-.06-.18-.35-1.08-1.63-5.36-4.08-3.91-2.24-5.09-2.48-5.42-2.48-.02,0-.03,0-.05,0,0,.01-.02.03-.03.04h0Z"/>
            </g>
          </g>
        </g>
        <path class="cls-5" d="M12.2,15.45c.64,1.22,1.73,1.84,3.26,1.84s2.62-.62,3.26-1.84c.48-.92.5-1.85.5-1.86v-5h-7.53v5s.02.94.5,1.85Z"/>
        <path d="M19.23,8.59v5s-.03.94-.5,1.86c-.28.53-.66.96-1.12,1.27-.58.38-1.3.57-2.14.57s-1.56-.19-2.14-.57c-.46-.31-.84-.73-1.12-1.27-.48-.92-.5-1.85-.5-1.85v-5h7.53ZM19.29,8.53h-7.66v5.06s.08,3.76,3.83,3.76,3.83-3.76,3.83-3.76v-5.06Z"/>
        <path d="M12.17,15.46c.44.85,1.37,1.86,3.29,1.86s2.85-1.01,3.29-1.86c.48-.92.5-1.86.5-1.87v-5.03h-7.59v5.03s.03.94.5,1.87ZM13.29,10.18h4.35v3.37c0,.1-.06.69-.36,1.22-.24.43-.66.92-1.81.92s-1.57-.49-1.81-.92c-.3-.53-.35-1.13-.36-1.22v-3.37Z"/>
        <path class="cls-2" d="M12.17,15.46c.44.85,1.37,1.86,3.29,1.86s2.85-1.01,3.29-1.86c.48-.92.5-1.86.5-1.87v-5.03h-7.59v5.03s.03.94.5,1.87ZM13.25,10.15h4.42v3.41c0,.1-.06.69-.36,1.24-.16.28-.35.49-.59.64-.32.2-.74.3-1.26.3s-.94-.1-1.26-.3c-.24-.15-.43-.36-.59-.64-.31-.55-.36-1.14-.36-1.24v-3.41Z"/>
        <path d="M12.17,15.46c.44.85,1.37,1.86,3.29,1.86s2.85-1.01,3.29-1.86c.48-.92.5-1.86.5-1.87v-5.03h-7.59v5.03s.03.94.5,1.87ZM11.86,8.76h7.2v4.83s-.03.91-.48,1.78c-.6,1.17-1.65,1.76-3.12,1.76s-2.5-.59-3.11-1.74c-.45-.86-.49-1.75-.49-1.79v-4.83Z"/>
        <path class="cls-5" d="M12.17,15.46c.44.85,1.37,1.86,3.29,1.86s2.85-1.01,3.29-1.86c.48-.92.5-1.86.5-1.87v-5.03h-7.59v5.03s.03.94.5,1.87ZM11.83,8.72h7.27v4.87s-.03.92-.49,1.79c-.27.52-.63.93-1.08,1.22-.56.37-1.26.56-2.07.56s-1.51-.19-2.07-.55c-.45-.29-.81-.7-1.08-1.21-.46-.87-.49-1.76-.49-1.81v-4.87h0Z"/>
        <g>
          <g>
            <path class="cls-6" d="M15.92,9.59h-.46s-.46,0-.46,0l-.05.4h1.01l-.05-.4Z"/>
            <path class="cls-6" d="M15.98,10h-1.04s-.03.01-.03.03.01.03.03.03h1.04s.03-.01.03-.03-.01-.03-.03-.03Z"/>
            <path class="cls-6" d="M15.95,9.52h-.97s-.02.02-.02.03c0,.02.01.03.03.03h.94s.03-.01.03-.03c0-.01,0-.02-.02-.03Z"/>
            <path class="cls-6" d="M15.99,9.16v-.11h-.08v.06h-.05v-.06h-.08v.06h-.05v-.06h-.08v.11l.05.04v.23h-.1v-.44s.04,0,.04-.04v-.12h-.08v.06h-.05v-.06h-.08v.06h-.05v-.06h-.08v.12s.05.04.05.04v.44h-.1v-.23s.04,0,.04-.04v-.12h-.08v.06h-.05v-.06h-.08v.06h-.05v-.06h-.08v.12s.05.04.05.04v.23h-.02s-.03.01-.03.03.01.03.03.03h.99s.03-.01.03-.03-.01-.03-.03-.03h0v-.23s.04,0,.04-.04Z"/>
          </g>
          <path d="M15.09,9.27s.01-.02.02-.02c.01,0,.02,0,.02.02,0,.01,0,.02,0,.02v.06h-.05v-.06s0-.01,0-.02Z"/>
          <path d="M15.8,9.27s.01-.02.02-.02c0,0,.02,0,.02.02,0,.01,0,.02,0,.02v.06h-.05v-.06s0-.01,0-.02Z"/>
          <path d="M15.44,9.14s.01-.03.02-.03.02,0,.02.03c0,.01,0,.03,0,.03v.07h-.05v-.07s0-.01,0-.03Z"/>
          <path d="M15.98,9.97l-.04-.35s.06-.03.06-.06c0-.01,0-.02-.01-.03.02,0,.04-.03.04-.06,0-.03-.02-.06-.06-.06v-.19s.04-.02.04-.06v-.13h-.11v.06h-.02v-.05h-.11v.05h-.02v-.06h-.11v.13s.03.05.05.06v.19h-.07v-.4s.04-.02.04-.06v-.13h-.11v.06h-.02v-.05h-.11v.05h-.02v-.06h-.11v.13s.03.05.05.06v.4h-.07v-.19s.04-.02.04-.06v-.13h-.11v.06h-.02v-.05h-.11v.05h-.02v-.06h-.11v.13s.03.05.05.06v.19s-.06.03-.06.06c0,.02.01.05.04.06,0,.01-.01.02-.01.03,0,.03.02.06.06.06l-.04.35s-.06.03-.06.06.03.06.06.06h1.04s.06-.03.06-.06c0-.03-.03-.06-.06-.06h0ZM15.47,9.69h0s0,0,0,0c-.14.06-.16.22-.16.28h-.07c0-.06.02-.28.23-.35h.02c.2.08.22.29.23.35h-.07c0-.05-.02-.22-.16-.28h0ZM15.6,9.97h-.27s.02-.2.13-.25c.11.05.13.2.13.25ZM15.38,9.61c-.16.1-.18.29-.19.35h-.22l.04-.35h.37ZM15.73,9.97c0-.06-.02-.25-.19-.35h.37l.04.35h-.22ZM15.66,9.15v-.1h.05v.06h.08v-.05h.05v.05h.08v-.06h.05v.1s-.03.03-.03.03h-.24s-.03,0-.03-.03ZM15.93,9.4h-.23v-.19h.22v.19ZM15.31,8.94v-.1h.05v.06h.08v-.05h.05v.05h.08v-.06h.05v.1s-.03.03-.03.03h-.24s-.04,0-.04-.03ZM15.58,9.4h-.23v-.4h.22v.4ZM14.95,9.15v-.1h.05v.06h.08v-.05h.05v.05h.08v-.06h.05v.1s-.03.03-.03.03h-.24s-.03,0-.03-.03ZM15.22,9.4h-.23v-.19h.22v.19ZM14.94,9.46s.01-.03.02-.03c0,0,0,0,0,0h.99s.03.01.03.03-.01.03-.03.03h-.99s-.03-.01-.03-.03ZM14.96,9.55s0-.02.02-.03h.97s.02.02.02.03c0,.02-.01.03-.03.03h-.94s-.03-.01-.03-.03ZM15.98,10.06h-1.04s-.03-.01-.03-.03.01-.03.03-.03h1.04s.03.01.03.03-.01.03-.03.03Z"/>
        </g>
        <g>
          <g>
            <path class="cls-6" d="M13.03,9.59h-.46s-.46,0-.46,0l-.05.4h1.02l-.05-.4Z"/>
            <path class="cls-6" d="M13.09,10h-1.04s-.03.01-.03.03.01.03.03.03h1.04s.03-.01.03-.03-.01-.03-.03-.03Z"/>
            <path class="cls-6" d="M13.05,9.52h-.97s-.02.02-.02.03c0,.02.01.03.03.03h.94s.03-.01.03-.03c0-.01,0-.02-.02-.03Z"/>
            <path class="cls-6" d="M13.1,9.16v-.11h-.08v.06h-.05v-.06h-.08v.06h-.05v-.06h-.08v.11l.05.04v.23h-.1v-.44s.04,0,.04-.04v-.12h-.08v.06h-.05v-.06h-.08v.06h-.05v-.06h-.08v.12s.05.04.05.04v.44h-.1v-.23s.04,0,.04-.04v-.12h-.08v.06h-.05v-.06h-.08v.06h-.05v-.06h-.08v.12s.05.04.05.04v.23h-.02s-.03.01-.03.03.01.03.03.03h.99s.03-.01.03-.03-.02-.03-.03-.03h0v-.23s.04,0,.04-.04h0Z"/>
          </g>
          <path d="M12.19,9.27s.01-.02.02-.02c0,0,.02,0,.02.02,0,.01,0,.02,0,.02v.06h-.05v-.06s0-.01,0-.02Z"/>
          <path d="M12.9,9.27s.01-.02.02-.02.02,0,.02.02c0,.01,0,.02,0,.02v.06h-.05v-.06s0-.01,0-.02Z"/>
          <path d="M12.55,9.14s.01-.03.02-.03.02,0,.02.03c0,.01,0,.03,0,.03v.07h-.05v-.07s0-.01,0-.03Z"/>
          <path d="M13.09,9.97l-.04-.35s.06-.03.06-.06c0-.01,0-.02,0-.03.02,0,.03-.03.03-.06,0-.03-.02-.06-.06-.06v-.19s.04-.02.04-.06v-.13h-.11v.06h-.02v-.05h-.11v.05h-.02v-.06h-.11v.13s.03.05.05.06v.19h-.07v-.4s.04-.02.04-.06v-.13h-.11v.06h-.02v-.05h-.11v.05h-.02v-.06h-.11v.13s.03.05.05.06v.4h-.07v-.19s.04-.02.04-.06v-.13h-.11v.06h-.02v-.05h-.11v.05h-.02v-.06h-.11v.13s.03.05.05.06v.19s-.06.03-.06.06c0,.02.01.05.03.06,0,.01,0,.02,0,.03,0,.03.02.06.06.06l-.04.35s-.06.03-.06.06.03.06.06.06h1.04s.06-.03.06-.06c0-.03-.03-.06-.06-.06h0ZM12.58,9.69h0s0,0,0,0c-.14.06-.16.22-.16.28h-.07c0-.06.03-.28.23-.35h.02c.2.08.22.29.23.35h-.07c0-.05-.02-.22-.16-.28ZM12.7,9.97h-.27s.02-.2.13-.25c.12.05.13.2.13.25ZM12.49,9.61c-.16.1-.18.29-.19.35h-.22l.04-.35h.37ZM12.84,9.97c0-.06-.02-.25-.19-.35h.37l.04.35h-.22ZM12.77,9.15v-.1h.05v.06h.08v-.05h.05v.05h.08v-.06h.05v.1s-.03.03-.03.03h-.24s-.03,0-.03-.03ZM13.04,9.4h-.23v-.19h.22v.19ZM12.41,8.94v-.1h.05v.06h.08v-.05h.05v.05h.08v-.06h.05v.1s-.03.03-.03.03h-.24s-.03,0-.03-.03ZM12.68,9.4h-.23v-.4h.22v.4ZM12.06,9.15v-.1h.05v.06h.08v-.05h.05v.05h.08v-.06h.05v.1s-.03.03-.03.03h-.24s-.03,0-.03-.03ZM12.33,9.4h-.23v-.19h.22v.19ZM12.04,9.46s0-.03.02-.03c0,0,0,0,0,0h.99s.03.01.03.03-.01.03-.03.03h-.99s-.03-.01-.03-.03ZM12.07,9.55s0-.02.02-.03h.97s.02.02.02.03c0,.02-.01.03-.03.03h-.94s-.03-.01-.03-.03ZM13.09,10.06h-1.04s-.03-.01-.03-.03.01-.03.03-.03h1.04s.03.01.03.03-.01.03-.03.03Z"/>
        </g>
        <g>
          <g>
            <path class="cls-6" d="M13.03,12.51h-.46s-.46,0-.46,0l-.05.4h1.02l-.05-.4Z"/>
            <path class="cls-6" d="M13.09,12.92h-1.04s-.03.01-.03.03c0,.02.01.03.03.03h1.04s.03-.01.03-.03c0-.02-.01-.03-.03-.03Z"/>
            <path class="cls-6" d="M13.05,12.45h-.97s-.02.02-.02.03c0,.02.01.03.03.03h.94s.03-.01.03-.03c0-.01,0-.02-.02-.03Z"/>
            <path class="cls-6" d="M13.1,12.08v-.11h-.08v.06h-.05v-.06h-.08v.06h-.05v-.06h-.08v.11s.05.04.05.04v.23h-.1v-.44s.04,0,.04-.04v-.12h-.08v.06h-.05v-.06h-.08v.06h-.05v-.06h-.08v.12s.05.04.05.04v.44h-.1v-.23s.04,0,.04-.04v-.12h-.08v.06h-.05v-.06h-.08v.06h-.05v-.06h-.08v.12l.05.04v.23h-.02s-.03.01-.03.03.01.03.03.03h.99s.03-.01.03-.03-.02-.03-.03-.03h0v-.23s.04,0,.04-.04h0Z"/>
          </g>
          <path d="M12.19,12.2s.01-.02.02-.02c0,0,.02,0,.02.02,0,.01,0,.02,0,.02v.06h-.05v-.06s0-.01,0-.02Z"/>
          <path d="M12.9,12.2s.01-.02.02-.02.02,0,.02.02c0,.01,0,.02,0,.02v.06h-.05v-.06s0-.01,0-.02Z"/>
          <path d="M12.55,12.06s.01-.03.02-.03.02,0,.02.03c0,.01,0,.03,0,.03v.07h-.05v-.07s0-.01,0-.03Z"/>
          <path d="M13.09,12.89l-.04-.35s.06-.03.06-.06c0-.01,0-.02,0-.03.02-.01.03-.03.03-.06,0-.03-.02-.06-.06-.06v-.19s.04-.02.04-.06v-.13h-.11v.06h-.02v-.06h-.11v.06h-.02v-.06h-.11v.13s.03.05.05.06v.19h-.07v-.4s.04-.02.04-.06v-.13h-.11v.06h-.02v-.06h-.11v.06h-.02v-.06h-.11v.13s.03.05.05.06v.4h-.07v-.19s.04-.02.04-.06v-.13h-.11v.06h-.02v-.06h-.11v.06h-.02v-.06h-.11v.13s.03.05.05.06v.19s-.06.03-.06.06c0,.02.01.05.03.06,0,0,0,.02,0,.03,0,.03.02.06.06.06l-.04.35s-.06.03-.06.06.03.06.06.06h1.04s.06-.03.06-.06c0-.03-.03-.06-.06-.06h0ZM12.58,12.61h0s0,0,0,0c-.14.06-.16.22-.16.28h-.07c0-.06.03-.28.23-.35h.02c.2.08.22.29.23.35h-.07c0-.05-.02-.22-.16-.28ZM12.7,12.89h-.27s.02-.2.13-.25c.12.05.13.2.13.25ZM12.49,12.53c-.16.1-.18.3-.19.35h-.22l.04-.35h.37ZM12.84,12.89c0-.06-.02-.25-.19-.35h.37l.04.35h-.22ZM12.77,12.08v-.1h.05v.06h.08v-.05h.05v.05h.08v-.06h.05v.1s-.03.03-.03.03h-.24s-.03,0-.03-.03ZM13.04,12.32h-.23v-.19h.22v.19ZM12.41,11.87v-.1h.05v.06h.08v-.06h.05v.06h.08v-.06h.05v.1s-.03.03-.03.03h-.02s-.22,0-.22,0h-.01s-.03,0-.03-.03ZM12.68,12.32h-.23v-.4h.22v.4ZM12.06,12.08v-.1h.05v.06h.08v-.05h.05v.05h.08v-.06h.05v.1s-.03.03-.03.03h-.24s-.03,0-.03-.03ZM12.33,12.32h-.23v-.19h.22v.19ZM12.04,12.38s0-.03.02-.03c0,0,0,0,0,0h.99s.03.01.03.03-.01.03-.03.03h-.99s-.03-.01-.03-.03ZM12.07,12.47s0-.02.02-.03h.97s.02.02.02.03c0,.02-.01.03-.03.03h-.94s-.03-.01-.03-.03ZM13.09,12.98h-1.04s-.03-.01-.03-.03c0-.02.01-.03.03-.03h1.04s.03.01.03.03c0,.02-.01.03-.03.03Z"/>
        </g>
        <g>
          <g>
            <path class="cls-6" d="M13.66,15.25l-.33.32-.32.33.25.32.36-.36.36-.36-.32-.25Z"/>
            <path class="cls-6" d="M13.99,15.5l-.73.73s-.01.03,0,.04c.01.01.03.01.04,0l.73-.73s.01-.03,0-.04c-.01-.01-.03-.01-.04,0Z"/>
            <path class="cls-6" d="M13.63,15.19l-.69.69s0,.02,0,.03c.01.01.03.01.04,0l.67-.67s.01-.03,0-.04c0,0-.02-.01-.03,0h0Z"/>
            <path class="cls-6" d="M13.41,14.9s-.08-.08-.08-.08l-.06.06.04.04-.04.04-.04-.04-.03.03-.03.03.04.04-.04.04-.04-.04-.05.05s.05.05.08.08c.03.03.06,0,.06,0l.16.17-.07.07-.32-.3s.03-.04,0-.07c-.03-.03-.08-.08-.08-.08l-.06.06.04.04-.04.04-.04-.04-.03.03-.03.03.04.04-.04.04-.04-.04-.06.05s.05.05.08.08c.03.03.07,0,.07,0l.3.32-.07.07-.17-.16s.03-.04,0-.07c-.03-.03-.08-.08-.08-.08l-.06.05.04.04-.04.04-.04-.04-.03.03-.03.03.04.04-.04.04-.04-.04-.06.06s.05.05.08.08.07,0,.07,0l.16.17h0s-.01.04,0,.05c.01.01.03.01.04,0l.7-.7s.01-.03,0-.04c-.01-.01-.03-.01-.04,0h0s-.17-.15-.17-.15c0,0,.03-.04,0-.07Z"/>
          </g>
          <path d="M12.85,15.62s0-.02,0-.03c0,0,.02,0,.03,0,0,0,.02.01.02.01l.04.04-.04.04-.04-.04s0,0-.01-.02Z"/>
          <path d="M13.35,15.12s0-.02,0-.03c0,0,.02,0,.03,0,0,0,.02.01.02.01l.04.04-.04.04-.04-.04s0,0-.01-.02h0Z"/>
          <path d="M13,15.28s0-.03,0-.04c0,0,.02,0,.03,0,.01,0,.02.02.02.02l.05.05-.04.04-.05-.05s0,0-.02-.02h0Z"/>
          <path d="M13.97,15.48l-.28-.22s.02-.06,0-.08c0,0-.02-.01-.03-.02,0-.02,0-.05-.01-.06-.02-.02-.06-.02-.08,0l-.14-.13s.02-.05,0-.07l-.09-.09-.08.08.04.04-.02.02-.04-.04-.08.08.04.04-.02.02-.04-.04-.08.08.09.09s.05.02.07,0l.13.14-.04.04-.29-.28s.02-.05,0-.07l-.09-.09-.08.08.04.04-.02.02-.04-.04-.08.08.04.04-.02.02-.04-.04-.08.08.09.09s.05.02.07,0l.28.29-.05.05-.14-.13s.02-.05,0-.07l-.09-.09-.08.08.04.04-.02.02-.04-.04-.08.08.04.04-.02.02-.04-.04-.08.08.09.09s.06.02.07,0l.13.14s-.02.06,0,.08c.02.02.04.02.06.02,0,.01,0,.02.02.03.02.02.06.02.08,0l.22.28s-.02.06,0,.09c.02.02.06.02.09,0l.73-.73s.02-.06,0-.09c-.02-.03-.06-.03-.09,0h0ZM13.41,15.64h0s0,0,0,0c-.06.14.05.27.08.31l-.05.05s-.18-.21-.09-.41h.01c.2-.1.37.03.41.07l-.05.05s-.17-.14-.31-.08h0ZM13.7,15.75l-.19.19s-.13-.15-.08-.27c.12-.05.23.05.27.08ZM13.3,15.65c-.05.19.08.34.12.38l-.16.16-.22-.28.26-.26ZM13.79,15.66s-.2-.16-.38-.12l.26-.26.28.22-.16.16ZM13.17,15.13l-.07-.07.03-.03.04.04.06-.06-.04-.04.03-.04.04.04.06-.06-.04-.04.03-.03.07.07s0,.04,0,.04h0s-.17.17-.17.17c0,0-.02.02-.04,0h0ZM13.54,15.11l-.16.16-.13-.14.15-.15.14.13ZM12.77,15.23l-.07-.07.03-.03.04.04.06-.06-.04-.04.04-.03.04.04.06-.06-.04-.04.03-.03.07.07s0,.04,0,.04h0s-.15.16-.15.16h0s-.03.03-.04.01ZM13.29,15.36l-.16.16-.27-.29.15-.15.29.27ZM12.67,15.63l-.07-.07.03-.03.04.04.06-.06-.04-.04.03-.03.04.04.06-.06-.04-.04.03-.03.07.07s0,.04,0,.04h0s-.17.17-.17.17h0s-.03.02-.04,0h0ZM13.03,15.61l-.16.16-.13-.14.15-.15.14.13ZM12.87,15.86s-.01-.03,0-.04c0,0,0,0,0,0l.7-.7s.03-.01.04,0c.01.01.01.03,0,.04l-.7.7s-.03.01-.04,0h0ZM12.96,15.91s0-.02,0-.03l.69-.69s.02,0,.03,0c.01.01.01.03,0,.04l-.67.67s-.03.01-.04,0h0ZM14.04,15.54l-.73.73s-.03.01-.04,0c-.01-.01-.01-.03,0-.04l.73-.73s.03-.01.04,0c.01.01.01.03,0,.04Z"/>
        </g>
        <g>
          <g>
            <path class="cls-6" d="M18.82,9.59h-.46s-.46,0-.46,0l-.05.4h1.01l-.05-.4Z"/>
            <path class="cls-6" d="M18.88,10h-1.04s-.03.01-.03.03.01.03.03.03h1.04s.03-.01.03-.03-.01-.03-.03-.03Z"/>
            <path class="cls-6" d="M18.84,9.52h-.97s-.02.02-.02.03c0,.02.01.03.03.03h.94s.03-.01.03-.03c0-.01,0-.02-.02-.03h0Z"/>
            <path class="cls-6" d="M18.89,9.16v-.11h-.08v.06h-.05v-.06h-.08v.06h-.05v-.06h-.08v.11l.05.04v.23h-.1v-.44s.04,0,.04-.04v-.12h-.08v.06h-.05v-.06h-.08v.06h-.05v-.06h-.08v.12s.05.04.05.04v.44h-.1v-.23s.04,0,.04-.04v-.12h-.08v.06h-.05v-.06h-.08v.06h-.05v-.06h-.08v.12s.05.04.05.04v.23h-.02s-.03.01-.03.03.01.03.03.03h.99s.03-.01.03-.03-.01-.03-.03-.03h0v-.23s.04,0,.04-.04h0Z"/>
          </g>
          <path d="M17.98,9.27s.01-.02.02-.02c.01,0,.02,0,.02.02,0,.01,0,.02,0,.02v.06h-.05v-.06s0-.01,0-.02h0Z"/>
          <path d="M18.69,9.27s.01-.02.02-.02c.01,0,.02,0,.02.02,0,.01,0,.02,0,.02v.06h-.05v-.06s0-.01,0-.02Z"/>
          <path d="M18.34,9.14s.01-.03.02-.03c.01,0,.02,0,.02.03,0,.01,0,.03,0,.03v.07h-.05v-.07s0-.01,0-.03Z"/>
          <path d="M18.88,9.97l-.04-.35s.06-.03.06-.06c0-.01,0-.02,0-.03.02,0,.03-.03.03-.06,0-.03-.03-.06-.06-.06v-.19s.04-.02.04-.06v-.13h-.11v.06h-.02v-.05h-.11v.05h-.02v-.06h-.11v.13s.03.05.05.06v.19h-.07v-.4s.04-.02.04-.06v-.13h-.11v.06h-.02v-.05h-.11v.05h-.02v-.06h-.11v.13s.03.05.05.06v.4h-.07v-.19s.04-.02.04-.06v-.13h-.11v.06h-.02v-.05h-.11v.05h-.02v-.06h-.11v.13s.03.05.05.06v.19s-.06.03-.06.06c0,.02.01.05.03.06,0,.01,0,.02,0,.03,0,.03.02.06.06.06l-.04.35s-.06.03-.06.06.03.06.06.06h1.04s.06-.03.06-.06-.03-.06-.06-.06h0ZM18.36,9.69h0s0,0,0,0c-.14.06-.16.22-.16.28h-.07c0-.06.02-.28.23-.35h.02c.2.08.23.29.23.35h-.07c0-.05-.02-.22-.16-.28h0ZM18.49,9.97h-.27s.02-.2.13-.25c.12.05.13.2.13.25ZM18.28,9.61c-.16.1-.18.29-.19.35h-.22l.04-.35h.37ZM18.63,9.97c0-.06-.02-.25-.19-.35h.36l.04.35h-.22ZM18.56,9.15v-.1h.05v.06h.09v-.05h.05v.05h.08v-.06h.05v.1s-.03.03-.03.03h-.24s-.03,0-.03-.03h0ZM18.83,9.4h-.23v-.19h.22v.19ZM18.2,8.94v-.1h.05v.06h.08v-.05h.05v.05h.08v-.06h.05v.1s-.03.03-.03.03h-.24s-.03,0-.03-.03h0ZM18.47,9.4h-.23v-.4h.22v.4ZM17.85,9.15v-.1h.05v.06h.09v-.05h.05v.05h.08v-.06h.05v.1s-.03.03-.03.03h-.24s-.03,0-.03-.03h0ZM18.12,9.4h-.23v-.19h.22v.19ZM17.83,9.46s0-.03.02-.03c0,0,0,0,0,0h.99s.03.01.03.03-.01.03-.03.03h-.99s-.03-.01-.03-.03ZM17.86,9.55s0-.02.02-.03h.97s.02.02.02.03c0,.02-.01.03-.03.03h-.94s-.03-.01-.03-.03ZM18.88,10.06h-1.04s-.03-.01-.03-.03.01-.03.03-.03h1.04s.03.01.03.03-.01.03-.03.03Z"/>
        </g>
        <g>
          <g>
            <path class="cls-6" d="M18.82,12.51h-.46s-.46,0-.46,0l-.05.4h1.01l-.05-.4Z"/>
            <path class="cls-6" d="M18.88,12.92h-1.04s-.03.01-.03.03c0,.02.01.03.03.03h1.04s.03-.01.03-.03c0-.02-.01-.03-.03-.03Z"/>
            <path class="cls-6" d="M18.84,12.45h-.97s-.02.02-.02.03c0,.02.01.03.03.03h.94s.03-.01.03-.03c0-.01,0-.02-.02-.03h0Z"/>
            <path class="cls-6" d="M18.89,12.08v-.11h-.08v.06h-.05v-.06h-.08v.06h-.05v-.06h-.08v.11s.05.04.05.04v.23h-.1v-.44s.04,0,.04-.04v-.12h-.08v.06h-.05v-.06h-.08v.06h-.05v-.06h-.08v.12s.05.04.05.04v.44h-.1v-.23s.04,0,.04-.04v-.12h-.08v.06h-.05v-.06h-.08v.06h-.05v-.06h-.08v.12l.05.04v.23h-.02s-.03.01-.03.03.01.03.03.03h.99s.03-.01.03-.03-.01-.03-.03-.03h0v-.23s.04,0,.04-.04h0Z"/>
          </g>
          <path d="M17.98,12.2s.01-.02.02-.02c.01,0,.02,0,.02.02,0,.01,0,.02,0,.02v.06h-.05v-.06s0-.01,0-.02h0Z"/>
          <path d="M18.69,12.2s.01-.02.02-.02c.01,0,.02,0,.02.02,0,.01,0,.02,0,.02v.06h-.05v-.06s0-.01,0-.02Z"/>
          <path d="M18.34,12.06s.01-.03.02-.03c.01,0,.02,0,.02.03,0,.01,0,.03,0,.03v.07h-.05v-.07s0-.01,0-.03Z"/>
          <path d="M18.88,12.89l-.04-.35s.06-.03.06-.06c0-.01,0-.02,0-.03.02-.01.03-.03.03-.06,0-.03-.03-.06-.06-.06v-.19s.04-.02.04-.06v-.13h-.11v.06h-.02v-.06h-.11v.06h-.02v-.06h-.11v.13s.03.05.05.06v.19h-.07v-.4s.04-.02.04-.06v-.13h-.11v.06h-.02v-.06h-.11v.06h-.02v-.06h-.11v.13s.03.05.05.06v.4h-.07v-.19s.04-.02.04-.06v-.13h-.11v.06h-.02v-.06h-.11v.06h-.02v-.06h-.11v.13s.03.05.05.06v.19s-.06.03-.06.06c0,.02.01.05.03.06,0,0,0,.02,0,.03,0,.03.02.06.06.06l-.04.35s-.06.03-.06.06.03.06.06.06h1.04s.06-.03.06-.06-.03-.06-.06-.06h0ZM18.36,12.61h0s0,0,0,0c-.14.06-.16.22-.16.28h-.07c0-.06.02-.28.23-.35h.02c.2.08.23.29.23.35h-.07c0-.05-.02-.22-.16-.28h0ZM18.49,12.89h-.27s.02-.2.13-.25c.12.05.13.2.13.25ZM18.28,12.53c-.16.1-.18.3-.19.35h-.22l.04-.35h.37ZM18.63,12.89c0-.06-.02-.25-.19-.35h.36l.04.35h-.22ZM18.56,12.08v-.1h.05v.06h.09v-.05h.05v.05h.08v-.06h.05v.1s-.03.03-.03.03h-.24s-.03,0-.03-.03h0ZM18.83,12.32h-.23v-.19h.22v.19ZM18.2,11.87v-.1h.05v.06h.08v-.06h.05v.06h.08v-.06h.05v.1s-.03.03-.03.03h-.01s-.22,0-.22,0h-.01s-.03,0-.03-.03h0ZM18.47,12.32h-.23v-.4h.22v.4ZM17.85,12.08v-.1h.05v.06h.09v-.05h.05v.05h.08v-.06h.05v.1s-.03.03-.03.03h-.24s-.03,0-.03-.03h0ZM18.12,12.32h-.23v-.19h.22v.19ZM17.83,12.38s0-.03.02-.03c0,0,0,0,0,0h.99s.03.01.03.03-.01.03-.03.03h-.99s-.03-.01-.03-.03ZM17.86,12.47s0-.02.02-.03h.97s.02.02.02.03c0,.02-.01.03-.03.03h-.94s-.03-.01-.03-.03ZM18.88,12.98h-1.04s-.03-.01-.03-.03c0-.02.01-.03.03-.03h1.04s.03.01.03.03c0,.02-.01.03-.03.03Z"/>
        </g>
        <g>
          <g>
            <path class="cls-6" d="M17.92,15.9l-.32-.33-.33-.32-.32.25.36.36.36.36.25-.32Z"/>
            <path class="cls-6" d="M17.67,16.23l-.73-.73s-.03-.01-.04,0c-.01.01-.01.03,0,.04l.73.73s.03.01.04,0c.01-.01.01-.03,0-.04h0Z"/>
            <path class="cls-6" d="M17.98,15.88l-.69-.69s-.02,0-.03,0c-.01.01-.01.03,0,.04l.67.67s.03.01.04,0c0,0,.01-.02,0-.03Z"/>
            <path class="cls-6" d="M18.27,15.64s.08-.08.08-.08l-.05-.06-.04.04-.04-.04.04-.04-.03-.03-.03-.03-.04.04-.04-.04.04-.04-.06-.06-.08.08s0,.07,0,.07l-.17.16-.07-.07.3-.32s.04.03.07,0l.08-.08-.06-.05-.04.04-.04-.04.04-.04-.03-.03-.03-.03-.04.04-.04-.04.04-.04-.05-.06-.08.08s0,.07,0,.07l-.32.3-.07-.07.15-.17s.04.03.07,0c.03-.03.08-.08.08-.08l-.05-.05-.04.04-.04-.04.04-.04-.03-.03-.03-.03-.04.04-.04-.04.04-.04-.05-.06s-.05.05-.08.08c-.03.03,0,.07,0,.07l-.17.15h0s-.03-.02-.04,0-.01.03,0,.04l.7.7s.03.01.04,0c.01-.01.01-.03,0-.04h0s.16-.18.16-.18c0,0,.04.03.07,0h0Z"/>
          </g>
          <path d="M17.55,15.09s.02,0,.03,0c0,0,0,.02,0,.03,0,.01-.01.02-.01.02l-.04.04-.04-.04.04-.04s0,0,.02-.01h0Z"/>
          <path d="M18.05,15.59s.02,0,.03,0c0,0,0,.02,0,.03,0,0-.01.02-.01.02l-.04.04-.04-.04.04-.04s0,0,.02-.01h0Z"/>
          <path d="M17.89,15.24s.03,0,.03,0c0,0,0,.02,0,.04,0,.01-.02.02-.02.02l-.05.05-.04-.04.05-.05s.01,0,.02-.02h0Z"/>
          <path d="M17.69,16.21l.22-.28s.06.02.08,0c0,0,.01-.02.02-.03.02,0,.05,0,.06-.02.02-.02.02-.06,0-.08l.13-.14s.05.02.07,0l.09-.09-.08-.08-.04.04-.02-.02.04-.04-.08-.08-.04.04-.02-.02.04-.04-.08-.08-.09.09s-.02.06,0,.07l-.14.13-.04-.05.28-.29s.05.02.07,0l.09-.09-.08-.08-.04.04-.02-.02.04-.04-.08-.08-.04.04-.02-.02.04-.04-.08-.08-.09.09s-.02.06,0,.07l-.29.28-.04-.04.13-.14s.05.02.07,0l.09-.09-.08-.08-.04.04-.02-.02.04-.04-.08-.08-.04.04-.02-.02.04-.04-.08-.08-.09.09s-.02.05,0,.07l-.14.13s-.06-.02-.08,0c-.02.02-.02.04-.01.06-.01,0-.02,0-.03.02-.02.02-.02.06,0,.08l-.28.22s-.06-.02-.09,0c-.02.02-.02.06,0,.09l.73.73s.06.02.09,0c.02-.02.02-.06,0-.09h0ZM17.52,15.65h0s0,0,0,0c-.14-.06-.27.05-.31.08l-.05-.05s.21-.18.41-.09h.01c.09.21-.05.38-.09.42l-.05-.05s.14-.17.08-.31h0ZM17.42,15.94l-.19-.19s.15-.13.27-.08c.05.12-.05.23-.08.27ZM17.52,15.54c-.19-.05-.34.08-.38.12l-.16-.16.28-.22.26.26ZM17.51,16.03s.16-.2.12-.38l.26.26-.22.28-.16-.16ZM18.04,15.41l.07-.07.03.03-.04.04.06.06.04-.04.03.03-.04.04.06.06.04-.04.03.03-.07.07s-.04,0-.04,0h0s-.17-.17-.17-.17c0,0-.02-.03,0-.04ZM18.06,15.78l-.16-.16.14-.13.15.15-.13.14ZM17.94,15.01l.07-.07.03.03-.04.04.06.06.04-.04.03.03-.04.04.06.06.04-.04.03.03-.07.07s-.04,0-.04,0h-.01s-.15-.16-.15-.16h0s-.02-.03,0-.05ZM17.81,15.52l-.16-.16.29-.27.15.15-.27.29ZM17.54,14.91l.07-.07.03.03-.04.04.06.06.04-.04.03.03-.04.04.06.06.04-.04.03.03-.07.07s-.04,0-.04,0h0s-.17-.17-.17-.17h0s-.02-.03,0-.04h0ZM17.55,15.27l-.16-.16.14-.13.15.15-.13.14ZM17.31,15.12s.03-.01.04,0c0,0,0,0,0,0l.7.7s.01.03,0,.04c-.01.01-.03.01-.04,0l-.7-.7s-.01-.03,0-.04h0ZM17.26,15.2s.02-.01.03,0l.69.69s0,.02,0,.03c-.01.01-.03.01-.04,0l-.67-.67s-.01-.03,0-.04h0ZM17.62,16.28l-.73-.73s-.01-.03,0-.04c.01-.01.03-.01.04,0l.73.73s.01.03,0,.04c-.01.01-.03.01-.04,0h0Z"/>
        </g>
        <path class="cls-4" d="M14.98,10.68v.69s0,.13.06.26c.08.17.22.26.42.26s.34-.09.42-.26c.06-.13.06-.26.06-.26v-.69h-.96ZM15.2,10.85c.05,0,.1.04.1.1s-.04.1-.1.1-.1-.04-.1-.1.04-.1.1-.1ZM15.2,11.56c-.05,0-.1-.04-.1-.1s.04-.1.1-.1.1.04.1.1-.04.1-.1.1ZM15.46,11.3c-.05,0-.1-.04-.1-.1s.04-.1.1-.1.1.04.1.1-.04.1-.1.1ZM15.72,10.85c.05,0,.1.04.1.1s-.04.1-.1.1-.1-.04-.1-.1.04-.1.1-.1ZM15.72,11.56c-.05,0-.1-.04-.1-.1s.04-.1.1-.1.1.04.1.1-.04.1-.1.1Z"/>
        <path class="cls-4" d="M14.98,13.98v.7s0,.13.06.26c.08.17.22.26.42.26s.34-.09.42-.26c.06-.13.06-.26.06-.26v-.69h-.96ZM15.2,14.15c.05,0,.1.04.1.1s-.04.1-.1.1-.1-.04-.1-.1.04-.1.1-.1ZM15.2,14.86c-.05,0-.1-.04-.1-.1s.04-.1.1-.1.1.04.1.1-.04.1-.1.1ZM15.46,14.6c-.05,0-.1-.04-.1-.1s.04-.1.1-.1.1.04.1.1-.04.1-.1.1ZM15.72,14.15c.05,0,.1.04.1.1s-.04.1-.1.1-.1-.04-.1-.1.04-.1.1-.1ZM15.72,14.86c-.05,0-.1-.04-.1-.1s.04-.1.1-.1.1.04.1.1-.04.1-.1.1Z"/>
        <path class="cls-4" d="M14.98,12.33v.69s0,.13.06.26c.08.17.22.26.42.26s.34-.09.42-.26c.06-.13.06-.26.06-.26v-.69h-.96ZM15.2,12.5c.05,0,.1.04.1.1s-.04.1-.1.1-.1-.04-.1-.1.04-.1.1-.1ZM15.2,13.21c-.05,0-.1-.04-.1-.1s.04-.1.1-.1.1.04.1.1-.04.1-.1.1ZM15.46,12.95c-.05,0-.1-.04-.1-.1s.04-.09.1-.09.1.04.1.09-.04.1-.1.1ZM15.72,12.5c.05,0,.1.04.1.1s-.04.1-.1.1-.1-.04-.1-.1.04-.1.1-.1ZM15.72,13.21c-.05,0-.1-.04-.1-.1s.04-.1.1-.1.1.04.1.1-.04.1-.1.1Z"/>
        <path class="cls-4" d="M13.64,12.33v.69s0,.13.06.26c.08.17.22.26.42.26s.34-.09.42-.26c.06-.13.06-.26.06-.26v-.69h-.96ZM13.86,12.5c.05,0,.1.04.1.1s-.04.1-.1.1-.1-.04-.1-.1.04-.1.1-.1ZM13.86,13.21c-.05,0-.1-.04-.1-.1s.04-.1.1-.1.1.04.1.1-.04.1-.1.1ZM14.12,12.95c-.05,0-.1-.04-.1-.1s.04-.09.1-.09.1.04.1.09-.04.1-.1.1ZM14.38,12.5c.05,0,.09.04.09.1s-.04.1-.09.1-.1-.04-.1-.1c0-.05.04-.1.1-.1ZM14.38,13.21c-.05,0-.1-.04-.1-.1s.04-.1.1-.1.09.04.09.1-.04.1-.09.1Z"/>
        <path class="cls-4" d="M16.33,12.33v.69s0,.13.06.26c.08.17.22.26.42.26s.34-.09.42-.26c.06-.13.06-.26.06-.26v-.69h-.96ZM16.55,12.5c.05,0,.09.04.09.1s-.04.1-.09.1-.1-.04-.1-.1c0-.05.04-.1.1-.1ZM16.55,13.21c-.05,0-.1-.04-.1-.1s.04-.1.1-.1.1.04.1.1-.04.1-.1.1ZM16.81,12.95c-.05,0-.1-.04-.1-.1s.04-.09.1-.09.1.04.1.09-.04.1-.1.1ZM17.07,12.5c.05,0,.1.04.1.1s-.04.1-.1.1-.1-.04-.1-.1c0-.05.04-.1.1-.1ZM17.07,13.21c-.05,0-.1-.04-.1-.1s.04-.1.1-.1.1.04.1.1-.04.1-.1.1Z"/>
      </g>
    </g>
  </g>
</svg>