<?xml version="1.0" encoding="UTF-8"?>
<svg id="Layer_2" data-name="Layer 2" xmlns="http://www.w3.org/2000/svg" viewBox="0 0 38.65 25.77">
  <defs>
    <style>
      .cls-1 {
        fill: #fddf07;
      }

      .cls-2 {
        fill: #fff;
      }

      .cls-3 {
        fill: #072f68;
      }

      .cls-4 {
        fill: #079d38;
      }

      .cls-5 {
        fill: #0c9c35;
      }
    </style>
  </defs>
  <g id="Assets">
    <g>
      <path class="cls-4" d="M0,0h38.65v25.77H0V0Z"/>
      <path class="cls-1" d="M35.39,12.81L19.38,2.58s-.07-.02-.1,0L3.26,12.81s-.04.05-.04.08.02.06.04.08l16.01,10.23s.03.01.05.01c.02,0,.03,0,.05-.01l16.02-10.23s.04-.05.04-.08-.02-.06-.04-.08h0Z"/>
      <path class="cls-3" d="M15.65,11.04c-.87,0-1.73.08-2.56.22-.13.52-.21,1.06-.21,1.62,0,3.56,2.88,6.44,6.44,6.44,2.89,0,5.33-1.9,6.15-4.52-2.61-2.34-6.05-3.76-9.83-3.76h0Z"/>
      <path class="cls-2" d="M15.65,11.04c3.77,0,7.21,1.42,9.82,3.75.1-.33.19-.66.24-1.01-2.72-2.28-6.23-3.66-10.05-3.66-.75,0-1.49.05-2.21.16-.14.32-.25.65-.34.98.83-.14,1.68-.22,2.54-.22Z"/>
      <path class="cls-3" d="M15.65,10.12c3.83,0,7.34,1.38,10.06,3.66.04-.3.07-.6.07-.9,0-3.56-2.89-6.44-6.44-6.44-2.63,0-4.89,1.58-5.89,3.84.72-.1,1.46-.16,2.21-.16Z"/>
      <path class="cls-5" d="M16.01,10.77v-.14s.36.01.36.01v-.12s-.35-.01-.35-.01v-.11s.42.01.42.01v-.13s-.54-.02-.54-.02l-.02.63.57.02v-.13s-.44-.02-.44-.02Z"/>
      <path class="cls-5" d="M16.97,10.72l-.08-.4h0s-.17-.02-.17-.02l-.05.62h0s.12.02.12.02l.03-.37.08.38h.11s.14-.35.14-.35l-.03.36h0s.12.02.12.02l.05-.62h0s-.17-.02-.17-.02l-.15.39Z"/>
      <path class="cls-5" d="M18.11,10.83l.29.05.02-.12-.28-.05v-.08s.35.06.35.06l.02-.12-.45-.08h0s-.1.55-.1.55h0s.46.09.46.09h0s.02-.12.02-.12l-.35-.06.02-.12Z"/>
      <path class="cls-5" d="M23.72,12.99c.06.06.11.11.09.15-.02.03-.07.03-.13-.01-.04-.03-.07-.06-.08-.09,0-.02,0-.04,0-.05h0s-.13-.09-.13-.09h0s-.03.09-.02.14c.02.08.09.15.16.2.05.03.13.07.2.07.06,0,.11-.03.15-.09.07-.11-.04-.22-.12-.3-.06-.05-.1-.1-.08-.13.01-.02.03-.03.05-.03.02,0,.06.02.08.03.04.02.1.08.06.13h0s.13.09.13.09h0s.04-.1.03-.14c-.01-.07-.07-.13-.12-.16h0s-.13-.09-.21-.09c-.06,0-.11.03-.14.08-.07.11.03.21.11.29h0Z"/>
      <path class="cls-5" d="M22.72,12.69l.49.28h0s.06-.11.06-.11l-.39-.22.07-.12.3.17h0s.06-.1.06-.1l-.3-.17.05-.09.36.2h0s.06-.11.06-.11l-.46-.26h0s-.31.54-.31.54h0Z"/>
      <path class="cls-5" d="M24.59,13.67c.08-.11-.02-.22-.11-.31-.05-.06-.1-.1-.08-.13.01-.02.03-.03.05-.03.02,0,.04.01.08.04.04.03.06.06.07.09,0,.02,0,.04-.01.05h0s.12.09.12.09h0s0,0,0,0c.03-.04.04-.09.04-.13-.01-.07-.07-.13-.11-.16h0s-.13-.1-.21-.1c-.05,0-.1.03-.14.08-.08.11.02.21.1.3.06.06.11.12.08.15,0,.01-.02.02-.04.02-.02,0-.06-.01-.09-.04-.03-.03-.06-.05-.07-.08-.01-.03,0-.05,0-.07h0s-.13-.1-.13-.1h0s-.04.09-.03.13c.01.08.08.16.15.2.05.04.13.08.2.08.06,0,.11-.03.14-.08h0Z"/>
      <path class="cls-5" d="M13.83,11.01s.02,0,.03,0c.16-.02.26-.18.24-.35-.02-.16-.15-.28-.29-.28-.01,0-.02,0-.03,0-.08,0-.14.05-.19.12-.05.07-.07.15-.06.23.02.16.14.28.29.28h0ZM13.68,10.7s.01-.09.04-.12c.03-.04.07-.05.11-.05.1,0,.15.09.15.18,0,.05-.01.09-.04.12-.03.04-.07.06-.11.06-.1,0-.15-.09-.15-.18Z"/>
      <path class="cls-5" d="M25.34,13.77c-.02-.08-.07-.14-.14-.17-.04-.02-.08-.03-.12-.03-.11,0-.22.07-.28.18-.04.07-.05.16-.03.24.02.08.07.14.14.18.04.02.08.03.12.03.11,0,.22-.07.28-.18.04-.07.05-.16.03-.24ZM25.21,13.9c-.03.09-.1.15-.18.15-.03,0-.05,0-.08-.02-.06-.04-.07-.1-.05-.17.03-.09.1-.15.18-.15.03,0,.05,0,.08.03.05.04.07.1.05.17Z"/>
      <path class="cls-5" d="M15.68,10.6v-.02s0-.11-.05-.19c-.07-.11-.21-.12-.21-.12h-.32s.01.63.01.63h0s0,0,0,0c.02,0,.25,0,.31,0,.08,0,.15-.05.2-.11.05-.07.05-.15.05-.2h0ZM15.41,10.41c.08,0,.12.06.14.11,0,.04,0,.06,0,.1h0c0,.06-.02.09-.05.12-.06.04-.09.04-.13.04s-.11,0-.13,0c0-.05,0-.29,0-.37.12,0,.12,0,.17,0Z"/>
      <path class="cls-5" d="M14.79,10.66s.06-.06.08-.13c.02-.08-.03-.15-.06-.17h0s-.06-.06-.12-.06h0c-.06,0-.37.02-.38.02h0s.03.63.03.63h.13s-.02-.24-.02-.24l.23-.02s.06.1.06.15c0,.03,0,.07,0,.07h0s.13,0,.13,0h0s0-.12-.03-.19c-.02-.05-.04-.07-.05-.08ZM14.58,10.44s.02,0,.02,0c.03,0,.06,0,.06,0,0,0,.02,0,.05.02,0,0,.02.02.02.04,0,.03-.02.06-.03.06-.02.01-.07.02-.09.02h-.18s0-.13,0-.13c.03,0,.11,0,.15-.01Z"/>
      <path class="cls-5" d="M20.9,11.85s.04,0,.05,0c.14,0,.26-.11.29-.26.04-.17-.06-.34-.21-.37-.02,0-.04,0-.05,0-.14,0-.26.11-.29.26-.02.08,0,.17.04.24.04.07.1.12.18.13h0ZM20.82,11.53c.01-.08.07-.17.16-.17.01,0,.03,0,.05,0,.08.03.1.11.09.18-.01.08-.08.17-.16.17-.02,0-.03,0-.05,0-.08-.03-.1-.11-.09-.18h0Z"/>
      <path class="cls-5" d="M20.35,11.38s.08-.04.12-.1c.04-.07.02-.15,0-.18h0s-.04-.08-.1-.1c-.06-.02-.36-.1-.36-.1h0s-.17.6-.17.6h0s.13.04.13.04l.06-.22.22.06s.02.11,0,.17c0,.03-.02.06-.02.06h0s.12.05.12.05h0s.04-.11.03-.19c0-.05-.02-.08-.02-.1h0ZM20.07,11.06s.12.03.15.04c0,0,.01,0,.01,0,.03,0,.06.02.06.02,0,0,.02,0,.04.03,0,0,.02.02,0,.05,0,.03-.03.05-.04.05,0,0,0,0-.02,0-.03,0-.07-.01-.07-.01l-.17-.05s.02-.09.03-.14h0Z"/>
      <path class="cls-5" d="M22.46,12.45s-.03.06-.03.06h0s.11.07.11.07h0s.05-.11.06-.18c0-.05,0-.08,0-.1.02,0,.09-.03.13-.08.05-.06.04-.15.03-.17h0s-.03-.09-.09-.12c-.06-.03-.34-.15-.34-.15h0s-.26.56-.26.56h0s.12.06.12.06l.09-.21.21.09s0,.12-.02.16h0ZM22.51,12s.02,0,.02.01c.03.01.06.03.06.03,0,0,.02.01.03.04,0,0,.01.02,0,.05-.01.03-.04.04-.05.04,0,0,0,0,0,0-.03,0-.08-.02-.08-.02l-.17-.07.06-.13s.1.04.14.06Z"/>
      <path class="cls-5" d="M19.7,10.87s-.04-.08-.1-.09c-.06-.02-.36-.09-.37-.09h0s-.16.61-.16.61l.13.03.05-.22.23.06s.02,0,.05,0c.02,0,.04,0,.06,0,0,0,.08-.03.12-.11.04-.07.01-.15,0-.18h0ZM19.31,10.84s.11.03.15.04c0,0,.02,0,.02,0,.03,0,.06.02.06.02,0,0,.02,0,.04.03,0,0,.01.02,0,.05,0,.03-.03.05-.04.05,0,0-.01,0-.02,0-.03,0-.07-.01-.07-.01l-.18-.04s.02-.09.03-.14h0Z"/>
      <path class="cls-5" d="M21.74,12.13l-.03.06h0s.1.05.1.05l.09-.2h.03s.04-.09.04-.09h-.02s0-.01,0-.01h0s-.02-.01-.03-.02h-.03s-.03-.02-.04-.03l-.1-.04-.04.1.06.02s-.06.04-.09.04c-.03,0-.05,0-.08-.03-.05-.04-.07-.1-.05-.17.03-.09.1-.15.18-.15.03,0,.05,0,.08.02.04.03.06.06.06.1h0s0,0,0,0c.01,0,.03.01.04.01.01,0,.03,0,.04.01l.04.02h0c0-.13-.05-.24-.15-.29-.04-.02-.08-.03-.12-.03-.11,0-.22.07-.28.18-.08.15-.03.34.11.41.04.02.08.03.12.03.03,0,.06,0,.09-.01h0Z"/>
      <g>
        <path class="cls-2" d="M21.19,10.72l.15-.11.15.11-.06-.18.15-.11h-.19l-.06-.18-.06.18h-.19l.15.11-.06.18Z"/>
        <path class="cls-2" d="M14.23,11.63h-.22l-.07-.21-.07.21h-.22l.18.13-.07.21.18-.13.18.13-.07-.21.18-.13Z"/>
        <path class="cls-2" d="M21.14,12.74l-.05-.15-.05.15h-.16l.13.09-.05.15.13-.09.13.09-.05-.15.13-.09h-.16Z"/>
        <path class="cls-2" d="M15.29,13.76l-.03-.1-.03.1h-.11l.09.06-.03.1.09-.06.08.06-.03-.1.09-.06h-.11Z"/>
        <path class="cls-2" d="M14.58,14.34l-.06-.18h0s0,0,0,0l-.06.18h-.22l.18.13-.07.21.18-.13.18.13-.07-.21.18-.13h-.22Z"/>
        <path class="cls-2" d="M13.91,14.93l-.06-.18-.06.18h-.19l.15.11-.06.18.15-.11.15.11-.06-.18.15-.11h-.19Z"/>
        <path class="cls-2" d="M16.81,13.31l-.06-.18-.06.18h-.19l.15.11-.06.18.15-.11.15.11-.06-.18.15-.11h-.18Z"/>
        <path class="cls-2" d="M16.05,15.11l-.05-.16-.05.16h-.17l.14.1-.05.16.14-.1.14.1-.05-.16.14-.1h-.17Z"/>
        <path class="cls-2" d="M15.85,15.91l-.05-.15-.05.15h-.16l.13.09-.05.15.13-.09.13.09-.05-.15.13-.09h-.16Z"/>
        <path class="cls-2" d="M16.81,16.42l-.07-.21-.07.21h-.22l.18.13-.07.21.18-.13.18.13-.07-.21.18-.13h-.22Z"/>
        <path class="cls-2" d="M19.33,13.44l-.06.18h-.19l.15.11-.06.18.15-.11.15.11-.06-.18.15-.11h-.19l-.06-.18Z"/>
        <path class="cls-2" d="M18.88,14.2h-.16l-.05-.15-.05.15h-.16l.13.09-.05.15.13-.09.13.09-.05-.15.13-.09Z"/>
        <path class="cls-2" d="M19,14.86l.08.06-.03-.1.08-.06h-.1l-.03-.1-.03.1h-.11l.09.06-.03.1.09-.06Z"/>
        <path class="cls-2" d="M20.13,14.3l-.06-.18-.06.18h-.19l.15.11-.06.18.15-.11.15.11-.06-.18.15-.11h-.19Z"/>
        <path class="cls-2" d="M19.2,15.5l-.07.21h-.22l.18.13-.07.21.18-.13.18.13-.07-.21.18-.13h-.22l-.07-.21Z"/>
        <path class="cls-2" d="M19.35,18.13l-.03-.08-.03.08h-.09l.07.05-.03.08.07-.05.07.05-.03-.08.07-.05h-.08Z"/>
        <path class="cls-2" d="M20.67,16.43l-.05-.15-.05.15h-.16l.13.09-.05.15.13-.09.13.09-.05-.15.13-.09h-.16Z"/>
        <path class="cls-2" d="M21.19,17.14l-.06-.18-.06.18h-.19l.15.11-.06.18.15-.11.15.11-.06-.18.15-.11h-.19Z"/>
        <path class="cls-2" d="M21.86,16.46l-.05-.15-.05.15h-.16l.13.09-.05.15.13-.09.13.09-.05-.15.13-.09h-.16Z"/>
        <path class="cls-2" d="M22.58,16.49l-.05-.15-.05.15h-.16l.13.09-.05.15.13-.09.13.09-.05-.15.13-.09h-.16Z"/>
        <path class="cls-2" d="M22.54,16.92l-.06.18h-.19l.15.11-.06.18.15-.11.15.11-.06-.18.15-.11h-.19l-.06-.18Z"/>
        <path class="cls-2" d="M22.61,17.77l-.05-.15-.05.15h-.16l.13.09-.05.15.13-.09.13.09-.05-.15.13-.09h-.16Z"/>
        <path class="cls-2" d="M23.25,16.6l-.05-.15-.05.15h-.16l.13.09-.05.15.13-.09.13.09-.05-.15.13-.09h-.16Z"/>
        <path class="cls-2" d="M23.77,16.27l-.06-.18-.06.18h-.16s0,0,0,0h0s.13.11.13.11l-.06.18.15-.11.15.11-.06-.18.15-.11h-.19Z"/>
        <path class="cls-2" d="M24.04,15.64l-.06-.18-.06.18h-.19l.15.11-.06.18.15-.11.15.11-.06-.18.15-.11h-.19Z"/>
        <path class="cls-2" d="M23.59,15.26l.18.13-.07-.21.18-.13h-.22l-.07-.21-.07.21h-.22l.18.13-.07.21.18-.13Z"/>
        <path class="cls-2" d="M24.67,15.15l-.05-.15-.05.15h-.16l.13.09-.05.15.13-.09.13.09-.05-.15.13-.09h-.16Z"/>
      </g>
    </g>
  </g>
</svg>