<?xml version="1.0" encoding="UTF-8"?>
<svg id="Layer_2" data-name="Layer 2" xmlns="http://www.w3.org/2000/svg" viewBox="0 0 38.65 25.77">
  <defs>
    <style>
      .cls-1 {
        fill: #fff;
      }

      .cls-2 {
        fill: #026c34;
      }
    </style>
  </defs>
  <g id="Assets">
    <g>
      <path class="cls-2" d="M0,0h38.65v25.77H0V0Z"/>
      <g>
        <path class="cls-1" d="M9.25,6.59s.23-.33.23-.64-.19-.26-.26-.21c-.07.05-.21.19-.14.28.07.09.15-.06.2-.06s.06.03.06.16-.09.48-.09.48Z"/>
        <path class="cls-1" d="M8.69,6.65s.01,1.62.37,1.62c0,0,.16,0,.2-.42.05-.42.23-1.47.67-1.47s-.22.85.13,1.6c0,0,.13.28.37.28,0,0-.06-1.13-.14-1.5-.08-.38-.03-.38-.03-.38,0,0-.17-.21-.06-.39.11-.19.17-.26.27-.1.1.16.46.68.13.86l.14,1.46s.35-.22.26-.62c-.08-.41-.26-1.01-.05-1.32,0,0,.29.19.29.48s-.02,1.44.56,1.44-.14-1.29-.14-1.52c0,0-.03-.06.11-.21s.16-.2.26-.09c.11.11.3.3.3.49s-.16.11-.16.11c0,0,.2.62.2,1.04s-.24.75-.69.75-.53-.54-.53-.54c0,0-.25.4-.37.48l.1,1.83s-.01.27-.16.42c0,0-.03.01-.05-.17-.01-.19-.19-1.86-.19-1.86,0,0-.78.14-.78-1.03,0,0,0-.19.03-.42.02-.23,0-.47-.07-.29-.07.18-.1.34-.21.91-.12.57-.26.73-.43.73s-.49-.52-.49-1.38c0-.85.17-.76.17-.76Z"/>
        <path class="cls-1" d="M11.54,5.8s.03.32.14.32.13-.23.13-.23c0,0,.04.04.04.19s-.11.2-.17.2-.17-.07-.17-.14c0,0-.05.12-.21.12s-.23-.19-.23-.31.05-.21.08-.21.05.17.05.2c0,.04.03.15.1.15s.13-.06.23-.3Z"/>
        <path class="cls-1" d="M8.67,10.3s.55-.78,1.42-1c0,0,.15-.06.15.1s.02.15-.18.21c-.2.06-.74.29-1.38.69Z"/>
        <path class="cls-1" d="M15.07,9.46c0-.07,0-.48-.08-.48-.07,0-.25.14-.21.17.03.04.15.56-.12.56s-.35-.67-.35-.67c-.15.42-.35.72-.55.72s-.26-.26-.26-.33.05-.35-.06-.35-.34.25-.34.25l-.15-2.21c.15.17.25.04.25-.12s-.31-.98-.38-1.1c-.07-.12-.21.04-.33.22-.12.18.02.35.02.35,0,.25.03.64.12,1.42.09.78.17,1.65.17,1.65l-.29.17s-.19-.64-.69-.64-.5.43-.5,1.06.98.15.98.15c0,.41-.6,1.25-1.4,1.25s-.6-1.41-.6-1.41c-.46.96-.18,1.94.59,1.94s1.47-.71,1.63-1.05c.17-.33.1-.85.1-.85l.23-.13s.06.77-.05,1.26c-.11.5-1.13,1.2-1.98,1.2s-.95-.8-.95-1.04.06-.52.06-.7-.04-.26-.04-.26c-.24.32-.24,1.08-.24,1.08,0,1.41.69,1.46,1.11,1.46s1.09-.08,1.93-.66c.83-.58.51-2.48.51-2.48l.06-.07s0,.28.41.28.62-.31.62-.31c.17.25.39.25.39.25.49,0,.45-.52.45-.59h0ZM11.8,9.92c-.2,0-.23-.37-.07-.37s.36.29.36.29c0,0-.09.08-.29.08Z"/>
        <path class="cls-1" d="M9.05,11.07s.06.27-.04.55c-.1.28-.17,1.29.35.63,0,0,.19.66-.31.66s-.3-1.09-.17-1.46c.13-.37.17-.38.17-.38Z"/>
        <path class="cls-1" d="M14.14,10.85s-.23.13-.23-.13.22-.23.22-.23c0,0,.19.01.19.39s-.23.55-.23.55c0,0,.11-.36.04-.58Z"/>
        <path class="cls-1" d="M15.26,6.15c0-.09-.03-.36-.24-.36s-.42.2-.42.5.15.37.15.37c-.41.65-1.83,1.46-.91,1.06.92-.4,1.14-.9,1.14-.9.32.01.13-.24.13-.24,0,0,.15-.36.15-.44ZM14.91,6.41c-.09-.07-.06-.15-.04-.21.02-.06.14-.12.14,0,0,.12-.1.22-.1.22Z"/>
        <path class="cls-1" d="M15.02,7.99s-.02.47-.42.47-.32-.63.09-.93c0,0,.08,0-.01.15-.09.16-.26.54-.02.54s.36-.24.36-.24Z"/>
        <path class="cls-1" d="M17.5,6.11s-.08-.07,0-.17c.08-.1.16-.09.23.1.08.19.15.59-.03,1.03,0,0,.06-.67-.2-.96Z"/>
        <path class="cls-1" d="M17.97,8.92s.1.39.21.39.13-.41.13-.41c0,0,.16.34.25.34s.09-.46.09-.46c0,0,.12.12.12.37s-.16.29-.22.29-.2-.12-.2-.12c0,0-.05.21-.2.21-.16,0-.27-.31-.18-.62h0Z"/>
        <path class="cls-1" d="M22.2,5.92s.09-.2.2-.06c.11.13.23.41.23.71s-.19.45-.19.45c0,0,.08-.52-.11-.72-.2-.2-.2-.22-.12-.38Z"/>
        <path class="cls-1" d="M22.29,7.47s.07.23.14.23.13-.3.13-.3c0,0,.07.26.15.26s.17-.35.17-.35c0,0,.06.1.06.32s-.12.25-.16.25-.13,0-.19-.13c0,0-.06.13-.2.13-.14,0-.15-.26-.09-.42Z"/>
        <path class="cls-1" d="M28.63,6.42s.09-.2.2-.06c.11.14.23.41.23.72s-.19.44-.19.44c0,0,.08-.52-.11-.72-.2-.2-.21-.22-.12-.38h0Z"/>
        <path class="cls-1" d="M19.95,12.48s.31-.28.47-.28-.02.29-.02.37-.04.26.22.14c.26-.13.5-.22.54-.21.04.02-.37.49-.76.49s-.2-.41-.18-.46c.01-.05.03-.14-.19-.04-.21.1-.1-.02-.1-.02h0Z"/>
        <path class="cls-1" d="M27.19,12.26s.24-.02.24.12-.24.3-.03.3.2.16.03.23c-.17.08-.52.25-.52.04s.25-.14.25-.32-.19-.08-.19-.22c0-.13.22-.16.22-.16h0Z"/>
        <path class="cls-1" d="M26.32,9.83s.1-.15.23,0c.14.15.19.33.19.51s-.14.31-.18.3c-.04,0,0-.16,0-.28s-.19-.28-.25-.33c-.07-.05-.03-.16,0-.2Z"/>
        <path class="cls-1" d="M26.58,9.01s.14-.11.14.16-.27.19-.79.59c-.53.4-.38.14-.36.1.03-.04,1.01-.85,1.01-.85h0Z"/>
        <path class="cls-1" d="M25.6,8.17s.17.23.27.44c.1.21.21.28.21.01,0-.26,0-.64,0-.64,0,0,0-.16.09-.16s.1.13.17.06c.06-.07,0-.17-.02-.23-.02-.06-.09-.22-.24-.07-.16.14-.14.31-.12.5.02.19.04.52-.08.25-.13-.28-.2-.54-.37-.54s-.13.47-.02.47c.11,0,.11-.08.11-.08h0Z"/>
        <path class="cls-1" d="M20.94,10.63c-.42.08-2.44.04-2.44.04.73-.34,1.19-.5,1.19-.5l.15.08v-.12s.8-.31.8-.72-.56-.74-.92-.74-.59.46-.59.71.12.38.12.38c0,0-1.26.43-1.43.55-.16.12-.26.42-.26.6s.45.14.45.14c.9,0,1.07.25,1.07.25-.89.34-.67,1.03-.67,1.03-.68-.22-.81-.56-.91-.93-.1-.37-.19-1.1-.3-1.5-.11-.4-.48-1.34-.56-1.34s-.3.42-.21.68c.09.26.59,1.9.59,1.9-.5.97-1.23,1.5-1.7,1.5s-.4-.43-.4-.43c.93-.49,1.35-1.22,1.35-1.66s-.21-.94-.21-.94c0,0,.15.09.15-.07s-.44-.65-.51-.65-.28.35-.28.5.17.2.17.2c0,0,.37.5.37.92s-.96,1.05-.96,1.05c0,0,.1-.7-.03-.68-.13.02-.39.98-.39.98,0,0-1.08.68-1.14.7-.06.03-1.09.47-.67.47s1.8-.63,1.8-.63c.01.76.73.78.73.78.97,0,1.87-1.43,1.87-1.43.58,1.32,1.77,1.35,2.04,1.35s.32-.24.32-.42-.8-.27-.8-.64,1.58-.72,1.98-.79c.39-.07.41-.19.45-.32.05-.13.2-.39-.22-.31h0ZM19.63,9.23c.05,0,.47.21.47.26s-.48.14-.48.14c-.08-.22-.04-.4,0-.4Z"/>
        <path class="cls-1" d="M15.67,6.3s-.06.57-.06.89.22.76.4.76.66-1.78,1.05-1.78.08.46.08,1.36.57.58.63.56c.06-.03.49-.27.49-.83s-.2-1.11-.2-1.21.17-.49.26-.4c.09.09.25.63.25,1.01s.14,1.35.59,1.35.14-1.02.08-1.19c-.05-.17-.27-.59-.19-.7.09-.11.19-.27.23-.33.04-.07.16.02.26.13.1.11.31.38.31.62s-.3-.06-.3-.06c0,0,.2.58.2,1.09s-.27.88-.6.88-.71-.47-.71-.47c0,0-.32.68-.98.68s-.61-1.02-.61-1.02c0,0,.05-.55-.02-.52-.07.02-.29.68-.36.89-.08.21-.15.44-.36.44s-.67-.52-.67-1.19c0-.66.24-.95.24-.95h0Z"/>
        <path class="cls-1" d="M20.75,6.68l.5.74-.08-.87s-.1-.08-.1-.22.1-.45.24-.45.53.97.53,1.19-.2.06-.2.06l.04.99s1.07,1.57,1.45,2.54c.38.97.15.95.05.71-.1-.24-.87-1.86-1.44-2.55,0,0,.18,1.82.18,2.26s-.14,1.33-.34,1.33.08-.61.07-.97c-.01-.37-.26-2.68-.37-3.32l-1.1-1.53s-.22.03-.22-.28-.07-.6.07-.6.97.78.97.91c0,.13-.27.05-.27.05h0Z"/>
        <path class="cls-1" d="M23.62,6.94s-.02.58.1,1.63c.12,1.05.14,1.8.14,2.22s.13,2.42-1.95,2.42c0,0-.13,0-.13-.05s.13-.1.31-.16c.18-.06,1.57-.49,1.45-2.13-.11-1.65-.31-4.25-.4-4.34,0,0-.08-.04-.08-.21s.32-.47.4-.47.35.9.35,1.08c0,.18-.2.01-.2.01h0Z"/>
        <path class="cls-1" d="M24.63,7.07s.35,3.13.47,3.9c.12.78-.31,1.16-.39,1.16s.02-.27.02-.69-.42-3.19-.51-3.92c-.09-.73-.18-.73-.18-1.17s.28-.61.35-.61.17.3.17.3c0,0,.2.59.31.76.11.17.11.24.11.3,0,.05-.22.08-.34-.03Z"/>
        <path class="cls-1" d="M24.4,11.03s-.02,1.48.43,1.48c0,0,.12.08.46-.7.34-.78.51-.92.67-.92s.48.64.8.64.42-.5.42-.86-.17-2.71-.17-2.71l-1.04-1.33s-.04-.04-.04-.34-.04-.48.07-.48.27.24.47.42c.21.18.29.24.29.34s-.15.04-.15.04l.34.5-.05-.6s-.09-.13-.09-.27.16-.48.27-.48.43.9.43,1.07-.14,0-.14,0l.05.96.64.87s-.26-1.65-.26-2.37c0,0-.04-.03-.04-.14s.21-.44.31-.44.38.96.38,1.17-.17.06-.17.06l.17,2.27s.82,1.15.96,1.46c.14.32.13.79.08.76-.05-.02-.44-.8-.97-1.43,0,0,.15,1.29-.13,1.49,0,0-.03-.53-.03-.8s-.13-1.07-.13-1.07l-.74-1.03s.11,1.96.11,2.49-.26,1.02-.74,1.02-.9-.59-.9-.59c0,0-.16.11-.5.79-.34.68-.44.74-.59.74s-.72-.34-.72-.93c0-.59.26-1.11.26-1.11h0Z"/>
        <path class="cls-1" d="M29.27,6.28s-.04-.02-.04-.14.2-.42.29-.42.51.91.51,1.08-.19-.03-.19-.03c0,0,0,.17.11,1.53.11,1.36.73,3.83-1.07,4.55-1.8.73.36-.48.67-1.23.3-.75.12-1.74.02-2.76-.1-1.02-.29-2.6-.29-2.6Z"/>
        <path class="cls-1" d="M26.82,18.83h-1.94v-.18s.13-.13.13-.21-.13-.32-.22-.32-.23.2-.23.31.14.23.14.23v.18l-13.45-.04c.65.65.71.66,3.62.73,2.91.07,9.86-.14,9.86-.14v.22s-.14.11-.14.22.12.31.22.31.17-.23.17-.23h.69s-.01.14.16.14.17-.16.17-.16h.73s.11.16.28.16.38-.08.38-.68c0-.59-.58-.55-.58-.55h0ZM26.68,19.71h-.68s-.05-.12-.17-.12-.15.14-.15.14h-.66s-.03-.09-.12-.15v-.21s1.81-.04,1.81-.04c0,0-.1.23-.03.38Z"/>
      </g>
    </g>
  </g>
</svg>