<?xml version="1.0" encoding="UTF-8"?>
<svg id="Layer_2" data-name="Layer 2" xmlns="http://www.w3.org/2000/svg" xmlns:xlink="http://www.w3.org/1999/xlink" viewBox="0 0 201.45 66.34">
  <defs>
    <style>
      .cls-1 {
        fill: none;
      }

      .cls-2 {
        fill: #de342a;
      }

      .cls-3 {
        fill: #231f20;
      }

      .cls-4 {
        fill: #ec1c24;
      }

      .cls-5 {
        clip-path: url(#clippath);
      }
    </style>
    <clipPath id="clippath">
      <rect class="cls-1" width="201.45" height="66.34"/>
    </clipPath>
  </defs>
  <g id="Assets">
    <g id="Layer_1-2" data-name="Layer 1-2">
      <g class="cls-5">
        <g>
          <g>
            <path d="M57.19,38.16c-.07.14-.18.25-.28.37-.11.07-.25.11-.39.11-.18,0-.32-.04-.48-.14-.18-.11-.36-.18-.59-.32-.25-.11-.48-.21-.73-.32-.28-.11-.62-.14-.94-.14-.52-.04-.98.11-1.39.41-.28.25-.48.66-.43,1.05,0,.25.07.52.28.73s.43.36.73.48c.32.14.66.28,1.01.36.36.11.76.25,1.15.36.39.14.8.28,1.15.52.37.18.73.44,1.01.73.28.28.55.66.73,1.05.18.48.28.98.28,1.53,0,.62-.11,1.24-.32,1.85-.21.55-.55,1.05-.98,1.49-.48.44-1.01.8-1.6,1.01-.69.25-1.42.37-2.15.37-.44,0-.91-.04-1.35-.14-.44-.07-.91-.21-1.35-.39-.44-.14-.84-.37-1.19-.59-.37-.21-.69-.48-.98-.76l.98-1.53c.07-.11.18-.21.28-.28.14-.07.25-.11.44-.11.21,0,.39.07.59.18.18.11.44.25.66.39.28.14.55.28.87.39.36.14.76.18,1.15.18.52.04.98-.11,1.39-.41.36-.32.55-.76.52-1.24,0-.28-.07-.59-.28-.8-.18-.21-.43-.39-.73-.52-.32-.14-.66-.25-1.01-.37-.36-.11-.76-.21-1.15-.32-.39-.14-.8-.28-1.15-.48-.37-.18-.73-.44-1.01-.73-.32-.32-.55-.73-.73-1.12-.18-.55-.28-1.08-.28-1.67,0-.55.11-1.05.32-1.56.21-.52.55-.98.94-1.35.44-.41.94-.73,1.53-.94.66-.25,1.39-.36,2.08-.36.43,0,.84.04,1.28.11.39.07.8.18,1.15.28.36.14.69.28,1.05.48.32.18.59.39.87.62l-.94,1.56h-.02Z"/>
            <path d="M66.68,49.46c-.21,0-.44-.04-.62-.11-.18-.11-.28-.28-.37-.48l-.21-.55c-.25.21-.48.41-.69.55s-.48.28-.69.39c-.25.11-.52.18-.76.25-.28.07-.62.07-.91.07-.39,0-.84-.04-1.24-.18-.32-.11-.66-.28-.94-.52-.25-.21-.48-.52-.59-.84-.14-.37-.21-.76-.21-1.15,0-.36.11-.73.25-1.05.21-.39.55-.76.91-1.01.55-.36,1.12-.62,1.74-.76.91-.21,1.85-.32,2.81-.28v-.44c.04-.44-.07-.91-.36-1.28-.25-.25-.62-.39-1.01-.39-.28,0-.59.04-.84.11-.21.07-.39.14-.59.25-.18.11-.32.18-.52.25-.18.07-.41.11-.59.11s-.36-.04-.52-.14c-.14-.11-.25-.21-.32-.37l-.55-.91c.59-.52,1.23-.91,1.95-1.15.76-.25,1.53-.39,2.33-.39.55,0,1.08.07,1.6.28.48.18.87.44,1.19.8.32.37.59.76.76,1.24.18.52.25,1.01.25,1.56v6.11h-1.31v.04h.05ZM63.29,47.69c.32,0,.69-.07.98-.18.32-.14.62-.37.87-.66v-1.35c-.48,0-.98.04-1.46.11-.32.04-.62.14-.91.28-.18.07-.37.21-.48.41-.07.14-.14.28-.14.48-.04.25.07.55.28.73.25.14.55.21.84.18"/>
            <path d="M75.26,49.46h-2.65l-3.82-9.81h2.43c.18,0,.37.04.52.14.14.07.21.21.28.36l1.35,4.41c.11.37.21.69.28,1.05.07.37.18.69.25,1.01.07-.32.14-.69.25-1.01.11-.32.21-.69.32-1.05l1.42-4.41c.04-.14.14-.28.28-.36.14-.11.32-.14.52-.14h2.33l-3.78,9.81h.02Z"/>
            <path d="M84.23,39.51c.62,0,1.19.11,1.78.28.52.18.98.48,1.39.87.39.39.73.87.91,1.42.21.62.32,1.24.32,1.88,0,.18,0,.36-.04.55,0,.11-.04.21-.11.32-.04.07-.11.14-.21.18-.11.04-.21.04-.32.04h-5.67c.04.66.28,1.31.76,1.78.43.37.98.59,1.56.55.28,0,.59-.04.87-.11.21-.07.43-.18.66-.28.18-.11.37-.18.55-.28.14-.07.32-.11.52-.11.21,0,.39.07.55.25l.84,1.05c-.28.32-.62.62-.98.84-.32.21-.69.39-1.08.52-.37.11-.73.21-1.08.25-.37.04-.69.07-1.05.07-.66,0-1.31-.11-1.94-.34-.59-.21-1.12-.55-1.56-.98-.48-.48-.84-1.01-1.05-1.63-.28-.73-.41-1.49-.41-2.29,0-.62.11-1.28.32-1.85.44-1.15,1.35-2.11,2.47-2.58.66-.25,1.35-.39,2.04-.39M84.3,41.54c-.48-.04-.94.14-1.31.48-.36.39-.59.87-.62,1.39h3.68c0-.21-.04-.48-.07-.69-.07-.21-.14-.39-.28-.59-.14-.18-.32-.32-.55-.44-.28-.11-.59-.14-.84-.14"/>
            <path d="M97.68,49.62c-.43,0-.84-.07-1.24-.21-.69-.25-1.24-.8-1.46-1.49-.14-.36-.18-.76-.18-1.15v-5.05h-.84c-.28,0-.55-.21-.55-.52v-1.21l1.56-.28.59-2.4c.07-.28.32-.52.66-.44h1.53v2.88h2.4v1.99h-2.4v4.87c0,.21.04.39.18.55.11.14.28.21.48.21.11,0,.18,0,.25-.04s.14-.04.18-.07c.04-.04.11-.04.14-.07s.11-.04.18-.04.14,0,.21.07c.07.07.11.11.18.18l.87,1.39c-.39.28-.8.52-1.28.66-.48.11-.98.18-1.49.18"/>
            <path d="M101.79,49.46v-14.14h2.95v5.21c.37-.28.73-.55,1.17-.73.48-.18.98-.28,1.49-.28.48,0,.98.07,1.42.28.41.18.76.43,1.05.76.28.37.52.76.66,1.15.14.48.21.98.21,1.49v6.22h-2.95v-6.22c.04-.41-.11-.8-.32-1.12-.25-.28-.62-.44-.98-.39-.32,0-.62.07-.91.21s-.59.32-.8.55v6.98h-2.98v.04l-.02-.02Z"/>
            <path d="M117.01,39.51c.62,0,1.19.11,1.78.28.52.18.98.48,1.39.87.39.39.73.87.91,1.42.21.62.32,1.24.32,1.88,0,.18,0,.36-.04.55,0,.11-.04.21-.11.32-.04.07-.11.14-.21.18-.11.04-.21.04-.32.04h-5.63c.04.66.28,1.31.76,1.78.44.37.98.59,1.56.55.28,0,.59-.04.87-.11.21-.07.44-.18.66-.28.18-.11.36-.18.55-.28.14-.07.32-.11.52-.11.21,0,.39.07.55.25l.84,1.05c-.28.32-.62.62-.98.84-.32.21-.69.39-1.08.52-.36.11-.73.21-1.08.25-.36.04-.69.07-1.05.07-.66,0-1.31-.11-1.92-.34-.59-.21-1.12-.55-1.56-.98-.48-.48-.84-1.01-1.05-1.63-.28-.73-.41-1.49-.41-2.29,0-.62.11-1.28.32-1.85.43-1.15,1.35-2.11,2.47-2.58.62-.25,1.31-.39,1.99-.39M117.08,41.54c-.48-.04-.94.14-1.31.48-.36.39-.59.87-.62,1.39h3.68c0-.21-.04-.48-.07-.69-.07-.21-.14-.39-.28-.59-.14-.18-.32-.32-.55-.44-.28-.11-.55-.14-.84-.14"/>
            <path d="M136.71,45.8s.14,0,.21.04.14.07.21.14l1.31,1.39c-.55.73-1.31,1.31-2.15,1.67-.98.39-1.99.59-3.06.59-.98,0-1.95-.18-2.91-.55-.84-.36-1.56-.87-2.19-1.53-.62-.66-1.05-1.46-1.39-2.29-.32-.94-.48-1.88-.48-2.88s.18-2.01.55-2.91c.36-.87.87-1.63,1.53-2.29s1.46-1.15,2.33-1.49c.94-.36,1.95-.55,3.02-.55.52,0,1.01.04,1.49.14.44.07.91.21,1.31.39.39.14.76.37,1.12.59.32.21.66.48.91.76l-1.12,1.49c-.07.11-.14.18-.25.25-.11.07-.25.11-.39.11-.11,0-.21-.04-.32-.07-.11-.07-.21-.11-.32-.18s-.25-.14-.39-.25-.32-.18-.52-.25c-.21-.07-.43-.14-.66-.18-.28-.07-.59-.07-.91-.07-.55,0-1.12.11-1.63.32-.48.21-.91.52-1.28.91-.37.41-.66.91-.84,1.42-.21.62-.28,1.24-.28,1.88s.07,1.31.28,1.92c.18.52.44,1.01.8,1.42.32.36.73.69,1.19.87.48.21.94.28,1.46.28.28,0,.55,0,.8-.04.21-.04.48-.07.69-.14.21-.07.41-.18.62-.28.21-.11.39-.25.59-.43.07-.07.14-.11.25-.14.18-.04.28-.07.39-.07"/>
            <path d="M139.95,49.46v-14.14h2.95v5.21c.37-.28.73-.55,1.17-.73.48-.18.98-.28,1.49-.28.48,0,.98.07,1.42.28.41.18.76.43,1.05.76.28.37.52.76.66,1.15.14.48.21.98.21,1.49v6.22h-2.95v-6.22c.04-.41-.11-.8-.32-1.12-.25-.28-.62-.44-.98-.39-.32,0-.62.07-.91.21s-.59.32-.8.55v6.98h-2.98v.04l-.02-.02Z"/>
            <path d="M154.46,37.01c0,.21-.04.43-.14.66-.11.21-.21.41-.39.55s-.37.28-.59.36c-.21.11-.48.14-.69.14s-.48-.04-.66-.14c-.21-.07-.39-.21-.55-.36-.14-.14-.28-.32-.37-.55-.11-.21-.14-.44-.14-.66s.04-.48.14-.66c.07-.21.21-.41.37-.55.14-.14.36-.28.55-.37.21-.07.44-.14.66-.14.25,0,.48.04.69.14.44.18.76.52.94.91.14.18.18.41.18.66M154.13,49.52h-2.95v-9.81h2.95v9.81Z"/>
            <rect x="156.79" y="35.34" width="2.95" height="14.14"/>
            <path d="M169.07,49.46c-.14,0-.32-.04-.48-.11-.14-.07-.21-.21-.25-.37l-.21-.76c-.18.21-.39.39-.62.59-.21.18-.44.32-.69.44-.25.11-.52.21-.8.28s-.62.11-.94.11c-.52,0-.98-.11-1.42-.32s-.84-.59-1.12-.98c-.32-.48-.59-1.01-.73-1.56-.18-.69-.28-1.42-.25-2.11,0-.69.11-1.39.28-2.04.18-.59.48-1.12.87-1.63.37-.43.8-.8,1.35-1.08.55-.25,1.14-.39,1.71-.39.43,0,.87.07,1.28.21.32.14.66.32.94.59v-4.97h2.95v14.14h-1.85l-.02-.02ZM166.08,47.4c.18,0,.39-.04.59-.07.18-.04.32-.11.48-.18.14-.07.28-.18.39-.28.14-.11.25-.25.41-.39v-4.14c-.18-.21-.44-.39-.73-.52-.25-.11-.55-.14-.8-.14s-.52.04-.76.14-.44.28-.59.52c-.18.28-.32.59-.39.91-.11.44-.14.91-.14,1.39,0,.43.04.87.11,1.31.07.28.14.59.32.87.11.18.28.37.48.48.21.07.43.14.66.14"/>
            <path d="M173.21,49.46v-9.81h1.74c.11,0,.25,0,.37.04.07.04.18.07.25.11.07.07.11.14.14.21.04.11.07.21.07.32l.14.91c.32-.52.73-.94,1.21-1.31.43-.32.94-.48,1.46-.48.39-.04.76.11,1.08.32l-.37,2.15c0,.11-.07.21-.14.28-.07.07-.18.07-.28.07s-.25,0-.37-.04c-.18-.04-.37-.04-.55-.04-.76,0-1.39.39-1.81,1.23v6.01h-2.95l.02.04Z"/>
            <path d="M185.02,39.51c.62,0,1.19.11,1.78.28.52.18.98.48,1.39.87.39.39.73.87.91,1.42.21.62.32,1.24.32,1.88,0,.18,0,.36-.04.55,0,.11-.04.21-.11.32-.04.07-.11.14-.21.18-.11.04-.21.04-.32.04h-5.63c.04.66.28,1.31.76,1.78.44.37.98.59,1.56.55.28,0,.59-.04.87-.11.21-.07.44-.18.66-.28.18-.11.36-.18.55-.28.14-.07.32-.11.52-.11.21,0,.39.07.55.25l.84,1.05c-.28.32-.62.62-.98.84-.32.21-.69.39-1.08.52-.36.11-.73.21-1.08.25-.36.04-.69.07-1.05.07-.66,0-1.31-.11-1.92-.34-.59-.21-1.12-.55-1.56-.98-.48-.48-.84-1.01-1.05-1.63-.28-.73-.41-1.49-.41-2.29,0-.62.11-1.28.32-1.85.43-1.15,1.35-2.11,2.47-2.58.62-.25,1.31-.39,1.99-.39M185.09,41.54c-.48-.04-.94.14-1.31.48-.36.39-.59.87-.62,1.39h3.64c0-.21-.04-.48-.07-.69-.07-.21-.14-.39-.28-.59-.14-.18-.32-.32-.55-.44-.25-.11-.55-.14-.8-.14"/>
            <path d="M191.31,49.46v-9.81h1.81c.14,0,.32.04.48.11.14.07.21.21.25.37l.18.59c.18-.18.41-.32.59-.52.21-.14.43-.28.66-.41.25-.11.48-.18.76-.25.28-.07.59-.11.87-.07.48,0,.98.07,1.42.28.41.18.76.44,1.05.76.28.37.52.76.66,1.17.14.48.21.98.21,1.49v6.22h-2.95v-6.22c.04-.41-.11-.8-.32-1.12-.25-.28-.62-.44-.98-.41-.32,0-.62.07-.91.21s-.59.32-.8.55v6.98h-2.98v.07-.02Z"/>
            <path class="cls-2" d="M37.91,31.55c1.74-2.04,2.51-2.98,2.33-3.52-.21-.48-.66-.84-1.14-.94-.66-.25-1.56-.36-1.99-.11-.37.28-.69.66-.98,1.01l-.55.62c-.37-.36-.73-.73-1.08-1.01-2.65-2.33-5.92-3.82-9.42-4.37-1.42-1.49-3.23-2.19-5.05-1.92-1.56.25-2.95,1.21-3.78,2.54-3.59,1.08-6.8,3.13-9.35,5.93-.59-.18-1.81.04-2.61.48-.36.14-.66.48-.76.84-.04.25.07.62,1.01,1.74-2.51,3.96-3.57,8.65-3.06,13.31.55,4.65,2.75,8.94,6.29,12.03,1.24,1.08,2.61,1.99,4.07,2.68,6.84,3.3,14.84,3.02,21.41-.76.55-.32.73-.98.48-1.53l-.07-.18c-1.08-2.4-4.35-9.77-2.54-16.47.76-2.81,2.98-5.77,4.87-8.14,2.04,3.13,3.06,6.84,2.91,10.57-.11,3.41-1.28,6.73-3.34,9.45-.11.11-.11.25-.07.39l.21.48c.11.18.32.28.52.18.07-.04.11-.07.14-.11,5.42-6.77,6.08-16.17,1.56-23.19M14.11,47.4c-.73,3.68-.87,7.44-.48,11.19-1.39-.69-2.68-1.6-3.89-2.61-3.2-2.77-5.35-6.54-6.11-10.73-.73-3.89-.07-7.92,1.85-11.37.73.76,1.6,1.63,2.51,2.51,2.22,2.22,4.76,4.73,6.01,6.5.73,1.01.52,2.33.11,4.51M33.56,30.79c-4.1,4.14-7.99,6.4-11.53,6.64-2.72.21-5.6-.62-8.55-2.4-1.95-1.24-3.82-2.68-5.45-4.32l-.11-.11c2.04-2.19,4.58-3.75,7.44-4.62-.28,1.15-.36,2.33-.18,3.54.28,2.08,1.39,3.93,3.02,5.21,2.33,1.81,5.67,1.39,7.48-.91.07-.11.14-.18.21-.28,1.21-1.71,1.63-3.82,1.31-5.88-.07-.41-.14-.8-.25-1.15,2.08.8,4,1.92,5.63,3.41.28.25.62.55.94.91"/>
            <path class="cls-4" d="M21.84,63.32c-3.43,0-6.88-.76-10.06-2.31-1.47-.71-2.86-1.62-4.1-2.72-3.54-3.09-5.79-7.41-6.34-12.15-.52-4.65.55-9.38,3-13.31-.87-1.07-1.01-1.46-.98-1.79.12-.44.46-.82.87-.98.76-.43,1.95-.64,2.63-.52,2.54-2.75,5.74-4.8,9.29-5.88.89-1.39,2.29-2.31,3.87-2.58,1.85-.27,3.73.44,5.17,1.94,3.54.57,6.8,2.08,9.45,4.39.32.25.64.57.96.89l.41-.48c.36-.44.68-.78,1.01-1.03.52-.3,1.49-.2,2.19.09.52.12.99.52,1.23,1.03.21.64-.41,1.46-2.27,3.62,4.49,7.11,3.84,16.43-1.65,23.29-.05.05-.11.11-.21.16-.25.14-.57.04-.75-.25l-.23-.5c-.07-.27-.04-.46.11-.6,2.04-2.68,3.18-5.92,3.29-9.33.14-3.66-.8-7.2-2.74-10.25-1.94,2.43-3.96,5.24-4.67,7.87-1.21,4.46-.36,9.97,2.54,16.35l.07.2c.3.62.05,1.39-.55,1.74-3.57,2.04-7.53,3.07-11.53,3.07v.04ZM6.4,29.88c-.6,0-1.42.2-2.01.52-.32.12-.59.41-.68.73-.02.16.07.5.98,1.58l.09.11-.07.11c-2.45,3.89-3.54,8.56-3.02,13.18.55,4.64,2.75,8.87,6.22,11.92,1.23,1.08,2.58,1.97,4.03,2.66,6.77,3.29,14.71,3,21.25-.76.44-.27.62-.82.39-1.3l-.07-.2c-2.93-6.45-3.78-12.03-2.56-16.58.76-2.77,2.9-5.7,4.9-8.21l.16-.2.14.21c2.06,3.18,3.09,6.88,2.93,10.68-.11,3.48-1.28,6.79-3.38,9.56-.04.04-.07.09-.04.25l.21.44s.16.16.25.11c.05-.04.07-.05.11-.07,5.4-6.75,6.02-15.99,1.55-22.97l-.07-.11.09-.11c1.53-1.78,2.45-2.88,2.29-3.36-.2-.41-.57-.73-.99-.82-.69-.27-1.53-.32-1.87-.12-.28.23-.59.55-.92.98l-.68.76-.18-.18c-.34-.34-.69-.69-1.03-.96-2.61-2.29-5.83-3.78-9.33-4.32h-.05l-.04-.05c-1.39-1.46-3.13-2.11-4.89-1.87-1.49.25-2.82,1.14-3.66,2.45l-.04.05h-.07c-3.54,1.1-6.73,3.13-9.26,5.9l-.07.09-.11-.04c-.12-.04-.28-.05-.46-.05l-.07-.04ZM13.86,58.9l-.3-.14c-1.31-.66-2.63-1.55-3.93-2.65-3.22-2.77-5.4-6.61-6.16-10.82-.73-3.93-.07-8.01,1.87-11.49l.12-.21.18.18c.73.76,1.6,1.63,2.51,2.51l.39.39c2.08,2.08,4.46,4.44,5.63,6.15.78,1.1.53,2.51.14,4.64h0c-.71,3.61-.87,7.36-.48,11.14l.04.34v-.02ZM5.54,34.18c-1.81,3.36-2.42,7.27-1.71,11.03.75,4.14,2.9,7.91,6.04,10.62,1.17.99,2.36,1.81,3.55,2.43-.36-3.7-.2-7.37.52-10.91.41-2.22.59-3.43-.07-4.37-1.15-1.67-3.52-4.02-5.58-6.09l-.39-.39c-.84-.8-1.65-1.62-2.35-2.33h-.02ZM21.18,37.65c-2.47,0-5.08-.82-7.78-2.45-2.04-1.28-3.89-2.75-5.49-4.35l-.23-.23.12-.12c2.06-2.2,4.58-3.77,7.53-4.67l.3-.09-.07.32c-.3,1.17-.36,2.31-.18,3.46.28,2.03,1.33,3.82,2.95,5.08,2.22,1.74,5.47,1.35,7.23-.87.04-.05.07-.09.11-.14.04-.04.07-.09.11-.14,1.15-1.63,1.6-3.7,1.28-5.76-.07-.39-.14-.78-.25-1.14l-.11-.36.36.14c2.19.85,4.1,2.01,5.69,3.45.32.28.64.57.96.92l.11.12-.12.12c-4.16,4.19-8.07,6.45-11.64,6.7-.28.02-.57.04-.87.04v-.04ZM8.19,30.59c1.58,1.58,3.39,3.02,5.4,4.28,2.95,1.79,5.79,2.59,8.44,2.36,3.45-.25,7.23-2.43,11.28-6.48-.27-.28-.53-.53-.82-.76-1.47-1.35-3.23-2.43-5.24-3.25.07.27.11.55.16.82.34,2.17-.14,4.32-1.33,6.02-.04.05-.07.11-.12.16-.04.04-.07.09-.11.12-1.9,2.38-5.37,2.81-7.75.96-1.69-1.31-2.79-3.2-3.09-5.31-.16-1.08-.12-2.17.11-3.29-2.7.87-5.03,2.33-6.95,4.34l.02.04Z"/>
          </g>
          <g>
            <path class="cls-3" d="M44.94,8.58h-1.01V1.56h1.01v7.02Z"/>
            <path class="cls-3" d="M47.91,1.6s.09.07.14.14l4,5.17V1.56h.89v7.02h-.52s-.14,0-.2-.04-.11-.07-.16-.14l-4.02-5.19v5.35h-.89V1.56h.52s.16,0,.2.04h.04Z"/>
            <path class="cls-3" d="M59.14,5.99v2.59h-1.01V1.56h2.11c.44,0,.84.05,1.17.16.34.11.6.25.82.44s.37.43.48.69.16.57.16.89-.05.62-.18.91c-.11.27-.28.52-.5.71s-.5.36-.82.46-.71.16-1.14.16h-1.1ZM59.14,5.19h1.1c.27,0,.5-.04.69-.11.2-.07.37-.16.52-.3.14-.12.25-.28.3-.44s.11-.37.11-.59-.04-.41-.11-.59-.16-.32-.3-.44-.3-.21-.52-.28c-.2-.07-.44-.09-.71-.09h-1.1v2.82l.02.02Z"/>
            <path class="cls-3" d="M70.26,8.58h-.78s-.16-.02-.21-.07-.09-.11-.12-.18l-.64-1.65h-3.11l-.64,1.65s-.05.12-.12.16c-.05.05-.12.07-.21.07h-.78l2.79-7.02h1.03l2.81,7.02v.02ZM65.67,5.97h2.56l-1.07-2.75s-.07-.2-.11-.3-.07-.25-.11-.37c-.04.14-.07.27-.11.37s-.07.21-.11.3l-1.07,2.75Z"/>
            <path class="cls-3" d="M72.64,5.69v2.9h-1.01V1.56h2.01c.44,0,.84.05,1.17.14.32.09.59.21.82.39s.37.37.46.62c.11.25.16.52.16.8,0,.25-.04.48-.11.69-.07.21-.2.41-.34.59s-.32.32-.53.44c-.21.12-.44.21-.71.28.12.07.23.18.32.32l1.99,2.75h-.91c-.18,0-.32-.07-.41-.21l-1.76-2.45s-.11-.14-.18-.16-.16-.05-.3-.05h-.69l.02-.04ZM72.64,4.94h.96c.27,0,.52-.04.71-.09s.37-.16.52-.28c.14-.12.23-.27.3-.43s.11-.36.11-.55c0-.41-.14-.71-.41-.92s-.68-.32-1.21-.32h-.99v2.59h.02Z"/>
            <path class="cls-3" d="M83.05,1.56v.85h-2.24v6.16h-1.01V2.42h-2.26v-.85h5.51Z"/>
            <path class="cls-3" d="M85.27,1.6s.09.07.14.14l4,5.17V1.56h.89v7.02h-.52s-.14,0-.2-.04-.11-.07-.16-.14l-4-5.17v5.35h-.89V1.56h.52s.16,0,.2.04h.02Z"/>
            <path class="cls-3" d="M96.85,1.56v.82h-3.32v2.26h2.68v.8h-2.68v2.33h3.34v.82h-4.34V1.56h4.34-.02Z"/>
            <path class="cls-3" d="M99.64,5.69v2.9h-1.01V1.56h2.01c.44,0,.84.05,1.17.14.32.09.59.21.82.39s.37.37.46.62c.11.25.16.52.16.8,0,.25-.04.48-.11.69s-.2.41-.34.59c-.14.18-.32.32-.53.44s-.44.21-.71.28c.12.07.23.18.32.32l1.99,2.75h-.91c-.18,0-.32-.07-.41-.21l-1.76-2.45s-.11-.14-.18-.16-.16-.05-.3-.05h-.69l.02-.04ZM99.64,4.94h.96c.27,0,.52-.04.71-.09s.37-.16.52-.28c.14-.12.23-.27.3-.43.07-.16.11-.36.11-.55,0-.41-.14-.71-.41-.92s-.68-.32-1.21-.32h-.99v2.59h.02Z"/>
            <path class="cls-3" d="M108.9,2.7s-.05.09-.09.11-.07.04-.14.04c-.05,0-.12-.04-.2-.09s-.16-.11-.28-.18c-.11-.07-.25-.12-.41-.18s-.34-.09-.57-.09-.39.04-.55.09-.28.12-.39.21-.18.21-.23.34-.07.27-.07.43c0,.2.05.36.14.48s.21.23.37.32.34.16.53.23c.2.07.41.14.6.21.21.07.41.16.6.25.2.09.37.2.53.34.16.14.28.3.37.52.09.2.14.44.14.73,0,.3-.05.6-.16.87-.11.27-.27.5-.46.71-.2.2-.44.36-.75.48s-.62.18-.99.18c-.23,0-.44-.02-.66-.07s-.41-.11-.59-.18-.37-.18-.53-.28-.3-.23-.44-.37l.3-.48s.05-.07.11-.09c.04-.02.09-.04.14-.04.07,0,.14.04.23.11s.2.14.34.23c.12.09.28.16.48.23.18.07.41.11.68.11.21,0,.41-.04.59-.09.18-.05.32-.14.44-.25s.21-.23.27-.39c.07-.16.09-.32.09-.52,0-.21-.05-.37-.14-.52-.09-.12-.23-.25-.37-.34-.16-.09-.34-.16-.53-.23-.2-.07-.41-.12-.6-.2s-.41-.14-.6-.23-.37-.2-.53-.34c-.16-.14-.28-.32-.37-.53s-.14-.48-.14-.78c0-.25.05-.48.14-.73.09-.23.23-.44.43-.62.18-.18.41-.32.69-.43.27-.11.59-.16.94-.16.39,0,.75.05,1.08.18.32.12.62.3.85.53l-.25.48h-.04Z"/>
            <path class="cls-3" d="M116.81,8.58h-1.01v-3.16h-3.7v3.16h-1.01V1.56h1.01v3.11h3.7V1.56h1.01v7.02Z"/>
            <path class="cls-3" d="M120.06,8.58h-1.01V1.56h1.01v7.02Z"/>
            <path class="cls-3" d="M123.31,5.99v2.59h-1.01V1.56h2.11c.44,0,.84.05,1.17.16.34.11.6.25.82.44s.37.43.48.69.16.57.16.89-.05.62-.18.91c-.11.27-.28.52-.5.71s-.5.36-.82.46-.71.16-1.14.16c0,0-1.1,0-1.1,0ZM123.31,5.19h1.1c.27,0,.5-.04.69-.11s.37-.16.52-.3c.14-.12.25-.28.3-.44s.11-.37.11-.59-.04-.41-.11-.59-.16-.32-.3-.44c-.14-.12-.3-.21-.52-.28-.2-.07-.44-.09-.71-.09h-1.1v2.82l.02.02Z"/>
            <path class="cls-3" d="M130.91,1.56h.85s.16.02.21.07c.05.04.11.11.12.18l1.4,4.74c.02.09.05.2.07.3.02.11.04.21.07.34.02-.12.05-.23.07-.34s.05-.2.09-.3l1.6-4.74s.05-.12.12-.16c.05-.05.14-.07.21-.07h.3s.16.02.21.07.09.11.12.18l1.6,4.74c.07.18.11.39.16.6,0-.11.04-.21.05-.32.02-.11.04-.2.07-.28l1.4-4.74s.05-.12.12-.16c.07-.05.14-.07.21-.07h.78l-2.19,7.02h-.91l-1.74-5.24s-.04-.11-.05-.18c0-.05-.04-.12-.05-.2-.04.14-.07.27-.09.36l-1.74,5.24h-.91l-2.19-7.02-.02-.02Z"/>
            <path class="cls-3" d="M143.3,8.58h-1.01V1.56h1.01v7.02Z"/>
            <path class="cls-3" d="M150.3,1.56v.85h-2.24v6.16h-1.01V2.42h-2.26v-.85h5.51Z"/>
            <path class="cls-3" d="M157.53,8.58h-1.01v-3.16h-3.7v3.16h-1.01V1.56h1.01v3.11h3.7V1.56h1.01v7.02Z"/>
          </g>
        </g>
      </g>
    </g>
  </g>
</svg>