<?xml version="1.0" encoding="UTF-8"?>
<svg id="Layer_2" data-name="Layer 2" xmlns="http://www.w3.org/2000/svg" viewBox="0 0 22.64 15.56">
  <g id="Assets">
    <g id="_31" data-name=" 31">
      <path d="M21.93,1.41H.71c-.39,0-.71-.32-.71-.71s.32-.71.71-.71h21.22c.39,0,.71.32.71.71s-.32.71-.71.71Z"/>
      <path d="M21.93,8.49H.71c-.39,0-.71-.32-.71-.71s.32-.71.71-.71h21.22c.39,0,.71.32.71.71s-.32.71-.71.71Z"/>
      <path d="M21.93,15.56H.71c-.39,0-.71-.32-.71-.71s.32-.71.71-.71h21.22c.39,0,.71.32.71.71s-.32.71-.71.71Z"/>
    </g>
  </g>
</svg>