<?xml version="1.0" encoding="UTF-8"?>
<svg id="Layer_2" data-name="Layer 2" xmlns="http://www.w3.org/2000/svg" viewBox="0 0 7.72 4.62">
  <defs>
    <style>
      .cls-1 {
        fill: #ed2144;
      }
    </style>
  </defs>
  <g id="Assets">
    <g>
      <path class="cls-1" d="M3.86,4.5c-.23,0-.45-.1-.62-.29L.16.66l.41-.47,3.08,3.54c.11.13.3.13.41,0L7.14.19l.41.47-3.08,3.54c-.16.19-.38.29-.62.29h0Z"/>
      <path class="cls-1" d="M3.86,4.62h0c-.27,0-.52-.12-.71-.34L0,.67l.58-.67,3.17,3.65c.06.07.16.07.22,0L7.14,0l.58.67-3.15,3.62c-.19.22-.44.34-.71.34h0ZM.33.67l3.01,3.46c.28.33.77.32,1.05,0L7.39.67l-.25-.28-2.98,3.43c-.15.18-.45.18-.6,0L.58.38l-.25.28Z"/>
    </g>
  </g>
</svg>