<?xml version="1.0" encoding="UTF-8"?>
<svg id="Layer_2" data-name="Layer 2" xmlns="http://www.w3.org/2000/svg" viewBox="0 0 27.29 29.88">
  <defs>
    <style>
      .cls-1 {
        fill: #333;
      }
    </style>
  </defs>
  <g id="Layer_1-2" data-name="Layer 1">
    <g>
      <path class="cls-1" d="M25.45,6.97c-.13-1.46-1.33-2.56-2.8-2.56h-4.01l-.06-.43c-.35-2.6-2.06-3.98-4.94-3.98s-4.59,1.38-4.94,3.98l-.06.43h-4.02c-1.47,0-2.67,1.1-2.8,2.56L.01,26.82c-.07.75.16,1.48.64,2.05s1.16.93,1.9,1c.09,0,.15.01.26.01h21.65c.75,0,1.45-.29,1.98-.81.53-.53.83-1.23.83-1.98,0-.09,0-.18-.01-.26l-1.82-19.86ZM9.95,3.82c.34-1.76,1.55-2.61,3.69-2.61s3.35.85,3.69,2.61l.12.6h-7.61l.12-.6ZM25.65,28.15c-.3.33-.73.53-1.18.53H2.82c-.45,0-.88-.19-1.19-.53-.3-.33-.45-.77-.41-1.21L3.03,7.08c.08-.83.76-1.46,1.6-1.46h18.04c.83,0,1.52.63,1.59,1.46l1.81,19.85c.04.45-.11.89-.42,1.22Z"/>
      <path class="cls-1" d="M18.05,9.93c-.33,0-.6.27-.6.6,0,4.79-1.25,7.12-3.81,7.12s-3.81-2.33-3.81-7.12c0-.33-.27-.6-.6-.6s-.6.27-.6.6c0,3.8.87,8.32,5.01,8.32s5.01-4.53,5.01-8.32c0-.33-.27-.6-.6-.6Z"/>
    </g>
  </g>
</svg>