<svg version="1.2" xmlns="http://www.w3.org/2000/svg" viewBox="0 0 156 98" width="156" height="98">
	<defs>
		<clipPath clipPathUnits="userSpaceOnUse" id="cp1">
			<path d="m4.26 96.43h147.48v-93.01h-147.48z"/>
		</clipPath>
	</defs>
	<style>
		.s0 { fill: #ed2144 } 
		.s1 { fill: #1d1d1b } 
		.s2 { fill: #ffffff } 
		.s3 { fill: #ffdc6e } 
		.s4 { fill: #000000 } 
	</style>
	<g id="&lt;Clip Group&gt;" clip-path="url(#cp1)">
		<path id="&lt;Path&gt;" class="s0" d="m150.82 78.87c0.36 4.11-2.71 7.78-6.83 8.14l-97.29 8.51c-4.12 0.36-7.78-2.71-8.14-6.83l-2.94-33.68c-0.36-4.11 2.71-7.78 6.83-8.14l97.29-8.51c4.11-0.36 7.77 2.72 8.13 6.83z"/>
		<path id="&lt;Compound Path&gt;" fill-rule="evenodd" class="s1" d="m46.04 96.43c-1.97 0-3.86-0.68-5.39-1.97-1.72-1.44-2.78-3.47-2.97-5.69l-2.95-33.68c-0.19-2.23 0.5-4.4 1.94-6.13 1.45-1.72 3.47-2.78 5.7-2.97l97.29-8.51c2.22-0.19 4.4 0.49 6.12 1.94 1.73 1.44 2.78 3.47 2.98 5.69l2.94 33.68c0.41 4.61-3.02 8.7-7.63 9.1l-97.29 8.51q-0.37 0.03-0.74 0.03zm94.36-57.21q-0.29 0-0.59 0.02l-97.29 8.52c-1.75 0.15-3.35 0.98-4.49 2.34-1.14 1.36-1.68 3.08-1.53 4.83l2.95 33.68c0.15 1.76 0.98 3.35 2.34 4.49 1.36 1.14 3.07 1.69 4.83 1.53l97.3-8.51c3.63-0.32 6.33-3.54 6.02-7.18l-2.95-33.67c-0.15-1.76-0.99-3.35-2.35-4.49-1.21-1.02-2.7-1.56-4.24-1.56z"/>
		<path id="&lt;Path&gt;" class="s2" d="m44.73 74.6c-0.02-0.19 0.15-0.36 0.34-0.38l0.49-0.04 8.44 6.81h0.02l-0.6-6.93c-0.02-0.2 0.12-0.39 0.34-0.4l2.34-0.21c0.19-0.02 0.38 0.14 0.4 0.34l1.15 13.14c0.02 0.19-0.14 0.36-0.34 0.38l-0.31 0.03c-0.06 0-0.22-0.04-0.26-0.08l-8.39-7.07h-0.02l0.64 7.28c0.01 0.2-0.13 0.39-0.34 0.4l-2.33 0.21c-0.19 0.01-0.38-0.15-0.4-0.34z"/>
		<path id="&lt;Compound Path&gt;" fill-rule="evenodd" class="s2" d="m59.22 86.43l4.96-13.67c0.05-0.12 0.18-0.23 0.32-0.24l0.19-0.02c0.14-0.01 0.28 0.08 0.35 0.19l7.26 12.6c0.14 0.24 0.01 0.51-0.28 0.54l-2.17 0.19c-0.35 0.03-0.52-0.08-0.73-0.43l-0.83-1.48-5.31 0.46-0.57 1.63c-0.08 0.24-0.27 0.49-0.66 0.53l-2.15 0.18c-0.29 0.03-0.47-0.21-0.38-0.48zm7.66-4.87l-1.76-3.1-0.02 0.01-1.19 3.35z"/>
		<path id="&lt;Path&gt;" class="s2" d="m74.11 71.99c0.01-0.17 0.17-0.33 0.33-0.34l0.31-0.03c0.1-0.01 0.28 0.06 0.35 0.17l5.26 8.04 0.04-0.01 3.79-8.83c0.05-0.12 0.22-0.21 0.32-0.22l0.31-0.03c0.16-0.01 0.35 0.11 0.38 0.28l3.35 12.93c0.06 0.25-0.1 0.44-0.33 0.46l-2.3 0.2c-0.18 0.02-0.37-0.12-0.4-0.28l-1.41-5.95h-0.04l-2.72 6.61c-0.05 0.12-0.22 0.24-0.32 0.25l-0.35 0.03c-0.12 0.01-0.28-0.08-0.35-0.19l-3.85-6.04-0.04 0.01-0.33 6.1c-0.01 0.16-0.15 0.33-0.34 0.35l-2.31 0.2c-0.23 0.02-0.42-0.14-0.41-0.4z"/>
		<path id="&lt;Path&gt;" class="s2" d="m89.93 70.86c-0.02-0.19 0.12-0.38 0.34-0.4l8.08-0.71c0.21-0.01 0.39 0.15 0.4 0.34l0.19 2.13c0.02 0.2-0.12 0.38-0.34 0.4l-5.41 0.48 0.22 2.42 4.45-0.39c0.19-0.02 0.38 0.14 0.4 0.34l0.19 2.12c0.01 0.22-0.15 0.39-0.34 0.41l-4.45 0.39 0.23 2.63 5.4-0.47c0.22-0.02 0.39 0.14 0.41 0.34l0.18 2.13c0.02 0.19-0.12 0.38-0.33 0.4l-8.09 0.71c-0.21 0.01-0.38-0.15-0.4-0.34z"/>
		<path id="&lt;Path&gt;" class="s2" d="m103.35 72.21l-2.8 0.24c-0.21 0.02-0.38-0.14-0.4-0.34l-0.18-2.12c-0.02-0.2 0.12-0.39 0.33-0.41l8.67-0.76c0.22-0.01 0.39 0.15 0.4 0.34l0.19 2.13c0.02 0.2-0.12 0.39-0.34 0.4l-2.79 0.25 0.91 10.42c0.02 0.2-0.14 0.39-0.34 0.41l-2.34 0.2c-0.19 0.02-0.38-0.14-0.4-0.34z"/>
		<path id="&lt;Compound Path&gt;" fill-rule="evenodd" class="s2" d="m109.99 81.99l4.96-13.67c0.05-0.12 0.17-0.23 0.31-0.24l0.2-0.02c0.13-0.01 0.28 0.07 0.35 0.19l7.26 12.6c0.14 0.24 0 0.51-0.29 0.54l-2.17 0.19c-0.35 0.03-0.52-0.08-0.72-0.43l-0.84-1.48-5.31 0.46-0.57 1.62c-0.07 0.25-0.27 0.5-0.66 0.53l-2.15 0.19c-0.29 0.03-0.47-0.21-0.37-0.48zm7.66-4.88l-1.77-3.09h-0.02l-1.18 3.35z"/>
		<path id="&lt;Path&gt;" class="s2" d="m129.42 66.86c1.64-0.14 3.49 0.38 4.92 1.42 0.19 0.12 0.23 0.35 0.09 0.52l-1.4 1.78c-0.15 0.15-0.36 0.16-0.53 0.06-0.8-0.62-1.68-0.8-2.64-0.71-2.13 0.18-3.69 2.13-3.5 4.28 0.19 2.13 2.08 3.73 4.21 3.54 0.56-0.05 1.14-0.17 1.71-0.46l-0.1-1.13-1.23 0.11c-0.22 0.01-0.39-0.13-0.4-0.32l-0.17-1.94c-0.02-0.21 0.12-0.38 0.34-0.4l3.92-0.34c0.2-0.02 0.37 0.14 0.38 0.34l0.48 5.25c0.01 0.09-0.05 0.26-0.13 0.32 0 0-1.9 1.45-4.73 1.69-3.88 0.34-7.27-2.47-7.62-6.37-0.34-3.9 2.51-7.3 6.4-7.64z"/>
		<path id="&lt;Path&gt;" class="s2" d="m137.36 78.24l0.78-1.7c0.13-0.27 0.5-0.26 0.65-0.17 0.08 0.03 1.58 0.94 2.87 0.83 0.78-0.07 1.3-0.61 1.24-1.29-0.07-0.82-0.81-1.39-2.18-1.8-1.74-0.52-3.96-1.64-4.17-3.98-0.17-1.93 1.17-4.02 4.17-4.28 2.03-0.18 3.68 0.72 4.31 1.1 0.24 0.12 0.23 0.47 0.17 0.61l-0.87 1.59c-0.11 0.23-0.45 0.44-0.64 0.32-0.18-0.09-1.7-1.04-2.89-0.93-0.7 0.06-1.19 0.57-1.14 1.1 0.06 0.72 0.69 1.22 2.29 1.71 1.58 0.47 4.1 1.45 4.33 4.1 0.18 2.01-1.38 4.2-4.25 4.45-2.54 0.22-4.04-0.71-4.52-1.12-0.22-0.18-0.28-0.25-0.15-0.54z"/>
		<path id="&lt;Path&gt;" class="s2" d="m81.02 51.74c0-0.17 0.16-0.32 0.31-0.33l0.3-0.03c0.1-0.01 0.27 0.05 0.34 0.16l5.1 7.78 0.03-0.01 3.67-8.54c0.05-0.12 0.21-0.21 0.3-0.22l0.31-0.02c0.15-0.02 0.33 0.1 0.36 0.27l3.25 12.5c0.06 0.25-0.1 0.43-0.33 0.45l-2.22 0.2c-0.17 0.01-0.36-0.13-0.39-0.27l-1.36-5.77-0.04 0.01-2.63 6.39c-0.05 0.12-0.21 0.23-0.31 0.24l-0.34 0.03c-0.11 0.01-0.27-0.07-0.34-0.18l-3.72-5.84h-0.04l-0.32 5.91c-0.01 0.15-0.14 0.32-0.33 0.34l-2.23 0.19c-0.23 0.02-0.41-0.13-0.4-0.38z"/>
		<path id="&lt;Path&gt;" class="s2" d="m99.06 56.95l-4.73-5.94c-0.17-0.23-0.04-0.55 0.26-0.57l2.45-0.22c0.15-0.01 0.26 0.08 0.32 0.15l2.96 3.64 2.29-4.1c0.05-0.08 0.12-0.18 0.29-0.2l2.45-0.21c0.3-0.03 0.48 0.26 0.35 0.52l-3.68 6.66 0.53 6.02c0.02 0.19-0.14 0.37-0.33 0.39l-2.25 0.2c-0.2 0.01-0.37-0.14-0.39-0.33z"/>
		<path id="&lt;Path&gt;" class="s3" d="m91.99 43.52c0.44 0.91 4.54 2.42 5.92-2.14 0.81-2.65-0.15-6.67-2.76-9.24-3.03-2.99-10.73-4.5-16.19-2.19-3.67 1.35-7.76 7.43-4.82 13.28l6.6-0.58"/>
		<path id="&lt;Path&gt;" class="s1" d="m84.58 29.86c1.88-0.03 3.73 0.2 5.44 0.68q1.29 0.36 2.42 0.91 0.28 0.14 0.55 0.29 0.28 0.15 0.5 0.31c0.15 0.11 0.3 0.19 0.46 0.32q0.25 0.21 0.5 0.42l0.06 0.05 0.01 0.01c0.04 0.04-0.04-0.04-0.03-0.03l0.01 0.01 0.03 0.03 0.1 0.1 0.2 0.21q0.2 0.21 0.38 0.44 0.37 0.45 0.67 0.93 0.6 0.96 0.96 1.98c0.49 1.34 0.65 2.72 0.53 3.88-0.14 1.18-0.61 2.22-1.21 2.84-0.62 0.62-1.42 0.84-2.09 0.83-0.67-0.01-1.2-0.17-1.53-0.31-0.31-0.11-0.48-0.29-0.55-0.24-0.04 0.05-0.08 0.22 0.21 0.54 0.25 0.28 0.72 0.59 1.42 0.79 0.68 0.19 1.67 0.25 2.71-0.27 1.02-0.54 1.84-1.65 2.28-2.94 0.21-0.62 0.36-1.43 0.38-2.17q0.04-1.15-0.2-2.37c-0.33-1.62-1.04-3.33-2.28-4.87q-0.22-0.29-0.49-0.56l-0.12-0.14-0.07-0.07-0.11-0.1-0.25-0.23-0.27-0.23q-0.15-0.13-0.32-0.25c-0.23-0.15-0.46-0.34-0.68-0.47-0.9-0.57-1.88-0.98-2.91-1.35-1.03-0.36-2.11-0.6-3.24-0.79q-1.7-0.25-3.51-0.23-1.89 0.06-3.65 0.45c-0.58 0.16-1.15 0.29-1.69 0.52-0.28 0.11-0.55 0.19-0.82 0.32l-0.36 0.16-0.18 0.09-0.21 0.12c-0.57 0.31-1.02 0.66-1.45 1.02q-0.31 0.28-0.61 0.56-0.27 0.3-0.54 0.6c-0.68 0.81-1.26 1.66-1.66 2.55-0.87 1.74-1.16 3.58-1.07 5.2 0.1 1.63 0.6 3.03 1.19 4.15l0.24 0.45 0.47-0.05c4.34-0.56 6.56-1.01 6.54-1.3-0.03-0.27-2.51-0.29-6.66-0.1l0.67 0.37c-0.47-1.09-0.81-2.39-0.78-3.82 0.01-1.43 0.45-2.97 1.27-4.42 0.42-0.72 0.91-1.43 1.53-2.05 0.62-0.62 1.32-1.17 2.06-1.53 1.74-0.8 3.68-1.18 5.75-1.24z"/>
		<path id="&lt;Path&gt;" class="s3" d="m93.02 36.52c3.04 5.73-2.45 11.71-7.15 7.84"/>
		<path id="&lt;Path&gt;" class="s1" d="m93.31 44.49c0.8-0.97 1.24-2.11 1.4-3.17 0.15-1.05 0.03-2.02-0.2-2.77-0.23-0.75-0.57-1.3-0.85-1.65q-0.43-0.47-0.64-0.38-0.21 0.1-0.15 0.66 0.02 0.27 0.06 0.61c0.01 0.24 0.06 0.51 0.07 0.81 0.04 0.6 0.05 1.33-0.12 2.13-0.16 0.8-0.52 1.68-1.15 2.45-0.64 0.77-1.4 1.2-2.09 1.4-0.7 0.18-1.34 0.14-1.87 0.04-1.06-0.21-1.69-0.53-1.9-0.26-0.17 0.19 0.23 1.07 1.67 1.74 0.71 0.31 1.72 0.51 2.8 0.26 1.08-0.24 2.18-0.9 2.97-1.87z"/>
		<path id="&lt;Path&gt;" class="s3" d="m85.88 38.78c1.94 4.57-0.33 7.4-3.25 7.1-4.43-0.46-2.91-4.81-5.94-5.14"/>
		<path id="&lt;Path&gt;" class="s1" d="m83.13 46.92c0.79-0.01 1.58-0.24 2.24-0.64 0.65-0.41 1.17-0.98 1.49-1.59 0.64-1.24 0.61-2.47 0.45-3.37-0.18-0.9-0.51-1.6-0.78-2.01q-0.43-0.6-0.65-0.53c-0.32 0.1-0.12 1.03-0.08 2.42 0 0.7-0.05 1.57-0.47 2.31-0.39 0.76-1.15 1.35-2.23 1.36-1.24-0.04-2.03-0.39-2.56-1.05-0.55-0.64-0.88-1.56-1.41-2.25-0.28-0.35-0.58-0.66-0.9-0.83-0.32-0.19-0.62-0.23-0.85-0.27-0.47 0.01-0.68 0.13-0.69 0.27-0.02 0.17 0.21 0.32 0.5 0.56 0.3 0.24 0.54 0.59 0.79 1.25 0.12 0.32 0.25 0.73 0.43 1.2 0.17 0.46 0.44 1 0.86 1.52 0.41 0.54 1.03 0.96 1.72 1.25q0.28 0.1 0.57 0.19 0.15 0.05 0.25 0.06l0.22 0.04 0.22 0.04 0.12 0.02 0.05 0.01 0.03 0.01 0.08 0.01h0.01 0.01q0.29 0.01 0.58 0.02z"/>
		<path id="&lt;Path&gt;" class="s3" d="m83.19 34.31c-8.43-2.64-11.24-8.36-15.92-13.56 2.78-1.29 7.23-4 6.99-7.56-0.36-5.3-9.58-10.91-15.44-7.95-3.73 1.87-3.26 5.52-2.38 8.17-3.3-1.05-7.19-1.44-12.34-0.83-4.27 0.71-7.01 0.17-9.77-3.44-0.56 1.38-1.2 4-0.57 5.42-2.23-0.51-4.68-0.17-6.65 2.25 1.07-0.15 2.28-0.12 3.35 0.21-4.86 2.81-7.9 5.74-9.98 8.76-0.93-2.63-2.82-5.79-6.91-4.98-6.44 1.27-10.26 11.37-7.29 15.77 2.04 3.02 7.33 2.13 10.28 1.43-0.57 7.11 0.41 14.12-4.33 20.71 0.85-0.66 3.44-1.3 4.29-1.96-0.67 2.38-0.01 5.09 1.69 6.88q0.34-1.02 0.44-2.09c2.04 1.44 4.51 2.66 6.79 3.7 6.12 4.26 16.41 5.98 25.07 3.31 1.17 0.41 2.72 0.49 4.68-0.28 2.04-0.61 3.25-1.63 3.91-2.69 8.57-3.27 15.6-10.93 17.72-18.12 1.16-2.22 2.33-4.58 3.05-6.97q0.73 0.78 1.63 1.38c0.23-2.46-0.91-5.01-2.9-6.47 1.07 0 3.57-1.41 4.59-1.09z"/>
		<path id="&lt;Path&gt;" class="s4" d="m18.06 34.1c0.67-3.41 2.1-6.45 3.98-8.85 1.84-2.42 4.02-4.23 5.91-5.67 1.92-1.4 3.54-2.45 4.7-3.19 1.16-0.73 1.77-1.2 1.7-1.34q-0.12-0.2-1.8 0.45-0.42 0.17-0.93 0.38-0.51 0.24-1.1 0.53-0.6 0.29-1.29 0.65-0.66 0.39-1.41 0.83c-1.98 1.22-4.36 2.89-6.65 5.42-1.11 1.29-2.22 2.77-3.12 4.53-0.89 1.75-1.57 3.73-2 5.86-0.42 2.13-0.56 4.15-0.64 6.01-0.08 1.87-0.09 3.59-0.14 5.16q-0.08 2.36-0.29 4.31c-0.09 0.64-0.15 1.26-0.27 1.83q-0.08 0.43-0.16 0.84-0.09 0.4-0.19 0.78c-1.05 4.05-2.45 5.87-2.13 6.08 0.11 0.08 0.65-0.4 1.42-1.45 0.78-1.05 1.69-2.76 2.38-5.04 0.67-2.28 1.03-5.11 1.17-8.21 0.18-3.09 0.19-6.48 0.86-9.91z"/>
		<path id="&lt;Path&gt;" class="s3" d="m38.08 16.58c-2.98-2.01-7.58-3.94-10.97 0.23 2.16-0.3 4.55-0.05 6.2 2.46z"/>
		<path id="&lt;Path&gt;" class="s1" d="m36.8 68.37q-1.81-0.29-3.49-0.77-1.68-0.46-3.16-1.06c-1.99-0.79-3.67-1.76-4.99-2.7-2.64-1.89-3.72-3.73-4.02-3.56-0.12 0.08-0.07 0.52 0.31 1.3 0.39 0.79 1.1 1.87 2.31 3.02 2.38 2.32 6.75 4.83 12.71 5.79 2.97 0.49 5.65 0.48 7.93 0.25 2.28-0.23 4.17-0.71 5.63-1.21 2.94-1.02 4.2-2.08 4.07-2.32-0.14-0.3-1.95 0.43-5.02 1.05-3.05 0.61-7.44 1-12.28 0.21z"/>
		<path id="&lt;Path&gt;" class="s4" d="m59.88 13.64c-1.29-0.65-2.64-1.1-3.98-1.48q-1.01-0.25-2.01-0.44c-0.67-0.08-1.34-0.22-2-0.26q-1.98-0.18-3.86-0.11-0.94 0.05-1.86 0.09-0.88 0.1-1.73 0.19l-0.49 0.06-0.41 0.06q-0.4 0.07-0.79 0.12-0.78 0.1-1.52 0.12-1.47 0.04-2.69-0.38c-1.63-0.56-2.81-1.77-3.73-2.84l-0.72-0.82-0.32 0.96c-0.61 1.84-0.68 3.36-0.54 4.41q0.13 0.78 0.37 1.16c0.15 0.23 0.27 0.31 0.32 0.29 0.06-0.02 0.04-0.17 0.01-0.41q-0.05-0.34-0.02-1.03c0.05-0.91 0.3-2.33 1.01-3.95l-1.09 0.15c0.82 1.13 1.93 2.51 3.78 3.4 0.92 0.45 1.99 0.7 3.09 0.77 1.1 0.07 2.23-0.02 3.38-0.19l0.1-0.01 0.06-0.01h0.01c-0.03 0 0.07-0.01-0.06 0.01h0.01l0.02-0.01 0.22-0.01 0.42-0.04q0.43-0.03 0.87-0.06c0.59-0.06 1.17-0.07 1.75-0.09q0.44-0.01 0.9-0.02 0.45 0.01 0.91 0.02 0.46 0.02 0.93 0.03 0.47 0.03 0.95 0.08c2.54 0.22 5.23 0.8 7.8 2.08 2.19 1.06 4 2.5 5.6 3.98 1.57 1.52 2.93 3.08 4.19 4.56 1.26 1.47 2.44 2.85 3.59 4.05q1.74 1.81 3.37 3.05c2.17 1.66 4.09 2.51 5.41 2.9 0.64 0.22 1.17 0.29 1.51 0.34q0.51 0.06 0.55-0.05 0.02-0.11-0.52-0.41-0.27-0.14-0.67-0.33-0.4-0.21-0.9-0.47c-1.34-0.73-3.23-1.87-5.2-3.77q-1.49-1.42-3.07-3.31c-1.06-1.25-2.15-2.65-3.36-4.11-1.21-1.46-2.54-3-4.11-4.45-1.57-1.44-3.39-2.81-5.48-3.82z"/>
		<path id="&lt;Path&gt;" class="s1" d="m18.13 62.44c-1.23-1.76-1.45-3.94-1.07-5.54l0.41-1.7-1.3 1.1c-0.19 0.16-0.48 0.32-0.75 0.46q-0.43 0.2-0.81 0.38-0.79 0.36-1.35 0.67-0.56 0.31-0.84 0.56c-0.17 0.17-0.22 0.29-0.19 0.34 0.04 0.06 0.17 0.03 0.36-0.01q0.32-0.09 0.86-0.24 0.57-0.15 1.42-0.41 0.42-0.12 0.91-0.3c0.34-0.14 0.68-0.26 1.1-0.54l-0.92-0.62c-0.28 0.89-0.42 1.95-0.28 3.1 0.13 1.15 0.54 2.39 1.32 3.53q0.34 0.48 0.72 0.88l0.78 0.85 0.36-1.1q0.37-1.17 0.45-2.25l-1.04 0.48c2.06 1.41 3.78 2.26 4.96 2.75 1.19 0.48 1.85 0.6 1.92 0.45 0.15-0.33-2.61-1.71-6.12-4.28l-0.92-0.66-0.12 1.14q-0.09 0.96-0.42 1.94l1.14-0.25q-0.31-0.34-0.58-0.73z"/>
		<path id="&lt;Path&gt;" class="s1" d="m71.26 58.43q1.33-1.44 2.4-2.96 1.09-1.52 1.88-3.06c1.07-2.03 1.74-4.03 2.05-5.76 0.32-1.74 0.27-3.19 0.1-4.18q-0.13-0.75-0.3-1.09-0.15-0.37-0.26-0.36c-0.17 0.02-0.21 0.49-0.28 1.29-0.07 0.79-0.19 1.98-0.58 3.45-0.75 2.93-2.66 7.12-6.52 11.28-1.91 2.07-3.86 3.65-5.63 4.88-1.78 1.22-3.38 2.08-4.7 2.72-2.65 1.27-4.15 1.71-4.08 2.05 0.05 0.27 2.08 0.23 5.19-0.91 3.09-1.13 7.18-3.51 10.73-7.35z"/>
		<path id="&lt;Path&gt;" class="s1" d="m82.2 40.8c-0.14-2.61-1.63-4.78-3.26-5.86l-0.34 1.02c0.47-0.03 0.8-0.13 1.13-0.23q0.48-0.15 0.89-0.31 0.82-0.32 1.38-0.55 0.54-0.22 0.87-0.36c0.19-0.08 0.32-0.13 0.32-0.2q0-0.1-0.33-0.16-0.35-0.05-0.96 0.04-0.62 0.1-1.47 0.31-0.42 0.09-0.91 0.2c-0.31 0.06-0.66 0.12-0.92 0.11l-1.71-0.05 1.37 1.11c0.6 0.49 1.21 1.15 1.68 2 0.48 0.84 0.83 1.87 0.89 3.01q0.03 0.47-0.01 0.92l1.06-0.5q-0.88-0.58-1.53-1.26l-0.8-0.84-0.31 1.09c-0.67 2.33-1.33 4.06-1.75 5.25-0.42 1.18-0.6 1.81-0.45 1.89 0.27 0.16 2.07-2.47 3.46-6.76l-1.11 0.26q0.74 0.83 1.73 1.51l0.96 0.64 0.1-1.15q0.05-0.56 0.02-1.13z"/>
		<path id="&lt;Path&gt;" class="s4" d="m29.77 16.34c-1.52-0.25-2.72 0.22-2.66 0.47 0.01 0.15 0.28 0.23 0.7 0.27 0.44 0.06 1.05 0.08 1.79 0.2 1.46 0.28 2.15 0.76 2.35 0.51 0.08-0.11-0.06-0.39-0.43-0.7-0.38-0.3-1-0.62-1.75-0.75z"/>
		<path id="&lt;Path&gt;" class="s4" d="m31.18 15.08c1.17-0.18 2.32 0.01 3.17 0.16 0.83 0.15 1.43 0.26 1.51 0.07 0.07-0.18-0.24-0.55-1.05-0.96-0.79-0.38-2.1-0.86-3.83-0.62-0.86 0.13-1.58 0.44-2.14 0.78q-0.82 0.54-1.23 1.06-0.41 0.5-0.51 0.83-0.11 0.32 0.01 0.41 0.12 0.09 0.45-0.08 0.16-0.09 0.36-0.23 0.22-0.13 0.46-0.3c0.68-0.43 1.62-0.94 2.8-1.12z"/>
		<path id="&lt;Path&gt;" class="s3" d="m18.65 37.54c0 0-9.48 3.3-12.37-0.97-2.97-4.4 0.85-14.5 7.29-15.77 6.89-1.37 7.79 8.28 7.79 8.28"/>
		<path id="&lt;Path&gt;" class="s1" d="m5.77 26.41c-0.73 1.53-1.22 3.13-1.42 4.74-0.19 1.61-0.09 3.27 0.53 4.76 0.06 0.19 0.18 0.39 0.27 0.58 0.1 0.21 0.19 0.31 0.28 0.47 0.25 0.38 0.51 0.67 0.81 0.95 0.59 0.54 1.28 0.91 1.94 1.14 1.35 0.46 2.61 0.49 3.72 0.45 2.22-0.13 3.92-0.64 5.07-1.04 1.15-0.42 1.73-0.78 1.68-0.92-0.05-0.15-0.59-0.1-1.62 0.04-1.02 0.13-2.53 0.38-4.44 0.41-0.96 0.01-2.02-0.05-3.07-0.33-1.06-0.29-2.04-0.83-2.59-1.85-0.56-0.99-0.77-2.41-0.64-3.89 0.13-1.49 0.58-3.08 1.32-4.61 0.75-1.53 1.72-2.83 2.81-3.8 1.08-0.97 2.32-1.58 3.47-1.8 1.24-0.26 2.28-0.07 3.13 0.4 0.86 0.47 1.49 1.21 1.98 1.92 0.96 1.47 1.39 2.83 1.72 3.71 0.31 0.89 0.49 1.35 0.64 1.34 0.15-0.02 0.25-0.65 0.11-1.79q-0.08-0.87-0.43-2.07c-0.25-0.79-0.6-1.69-1.21-2.61-0.6-0.92-1.52-1.87-2.83-2.42-1.3-0.56-2.88-0.54-4.32-0.15-1.47 0.41-2.87 1.25-4.03 2.37-1.17 1.12-2.14 2.48-2.88 4z"/>
		<path id="&lt;Path&gt;" class="s1" d="m15.26 31.51c1.1 0.07 2.05 0.41 2.19 0.15 0.06-0.13-0.06-0.33-0.42-0.57-0.34-0.23-0.92-0.48-1.71-0.54-0.79-0.05-1.4 0.15-1.75 0.35-0.35 0.21-0.47 0.42-0.41 0.54 0.14 0.26 1-0.02 2.1 0.07z"/>
		<path id="&lt;Path&gt;" class="s1" d="m16.33 28.35c-0.47-0.59-1.07-1.1-1.73-1.41-0.65-0.32-1.36-0.38-1.89-0.29-0.28 0.04-0.5 0.13-0.7 0.21q-0.3 0.14-0.47 0.27-0.32 0.28-0.26 0.42c0.08 0.21 0.61 0.07 1.34 0.1 0.38 0.01 0.81 0.1 1.26 0.34q0.69 0.36 1.39 1.22c0.91 1.16 1.41 2.27 1.82 2.97 0.39 0.72 0.65 1.09 0.85 1.03 0.2-0.05 0.23-0.63 0.01-1.53-0.22-0.89-0.66-2.13-1.62-3.33z"/>
		<path id="&lt;Path&gt;" class="s3" d="m65.1 21.57c0 0 9.51-3.23 9.16-8.38-0.36-5.3-9.58-10.91-15.44-7.95-6.28 3.16-1.06 11.32-1.06 11.32"/>
		<path id="&lt;Path&gt;" class="s4" d="m67.52 6.71c1.32 0.65 2.52 1.49 3.52 2.45 0.98 0.96 1.75 2.07 2.1 3.18 0.06 0.15 0.07 0.25 0.11 0.38 0.03 0.1 0.05 0.32 0.07 0.47 0.03 0.22 0.03 0.51 0 0.76q-0.1 0.77-0.51 1.47c-0.53 0.93-1.31 1.71-2.08 2.36-1.56 1.29-3.06 2.12-4.07 2.71-1.03 0.59-1.61 0.93-1.56 1.08 0.05 0.14 0.62 0.1 1.64-0.2 1.01-0.31 2.5-0.86 4.27-1.96 0.88-0.56 1.84-1.26 2.72-2.3 0.43-0.52 0.84-1.14 1.13-1.88 0.29-0.72 0.41-1.63 0.31-2.46-0.21-1.73-1.11-3.28-2.29-4.6-1.2-1.32-2.71-2.44-4.46-3.3-1.76-0.86-3.58-1.35-5.35-1.44-1.77-0.09-3.47 0.27-4.88 1.07-0.16 0.09-0.29 0.16-0.46 0.27q-0.25 0.18-0.5 0.36-0.46 0.37-0.84 0.79c-0.5 0.57-0.87 1.22-1.1 1.86-0.46 1.31-0.4 2.53-0.24 3.53 0.18 1.01 0.47 1.84 0.77 2.52q0.46 1.02 0.87 1.64c0.55 0.83 0.95 1.17 1.07 1.09 0.13-0.08-0.08-0.66-0.43-1.7q-0.27-0.78-0.55-1.89c-0.17-0.74-0.32-1.6-0.31-2.51 0.01-0.91 0.21-1.88 0.74-2.7 0.52-0.83 1.43-1.47 2.54-1.9 1.1-0.41 2.39-0.54 3.72-0.38 1.34 0.16 2.72 0.58 4.05 1.23z"/>
		<path id="&lt;Path&gt;" class="s4" d="m63.43 14c-1.03 0.94-1.25 2.11-0.99 2.19 0.28 0.13 0.7-0.6 1.63-1.47 0.48-0.42 0.9-0.67 1.19-0.86 0.29-0.19 0.45-0.34 0.42-0.48-0.03-0.14-0.3-0.22-0.73-0.15-0.42 0.07-1 0.32-1.52 0.77z"/>
		<path id="&lt;Path&gt;" class="s4" d="m62.65 12.92q0.01-0.96 0.28-1.68c0.17-0.48 0.45-0.83 0.73-1.1 0.14-0.15 0.3-0.25 0.43-0.36q0.2-0.13 0.36-0.25 0.36-0.23 0.33-0.38-0.04-0.14-0.41-0.18c-0.24-0.02-0.66 0.04-1.12 0.25-0.46 0.21-1 0.64-1.38 1.3-0.38 0.65-0.57 1.49-0.59 2.37 0 1.77 0.47 3 0.82 3.79 0.38 0.78 0.72 1.12 0.9 1.04 0.19-0.08 0.14-0.63 0-1.49-0.13-0.86-0.37-2.04-0.35-3.31z"/>
		<path id="&lt;Path&gt;" class="s3" d="m47.82 66.37c0.89 1.35 3.1 3.57 7.37 1.9 4.4-1.32 4.78-4.43 4.64-6.03"/>
		<path id="&lt;Path&gt;" class="s1" d="m55.03 67.24l-0.13 0.05-0.08 0.03c-0.96 0.38-1.89 0.58-2.72 0.59-0.84 0.02-1.56-0.18-2.16-0.45-1.2-0.54-1.85-1.28-2.12-1.09-0.11 0.09-0.15 0.31 0.01 0.71 0.15 0.39 0.47 0.92 1.08 1.47 0.61 0.55 1.57 1.05 2.76 1.23 1.2 0.16 2.56-0.04 3.9-0.56l-0.08 0.03q0.08-0.03 0.16-0.05c1.38-0.45 2.59-1.14 3.39-2.05 0.82-0.88 1.2-1.87 1.31-2.64 0.13-0.79 0.04-1.37-0.08-1.75-0.12-0.37-0.29-0.54-0.44-0.52-0.33 0.02-0.41 0.94-0.97 2.08-0.29 0.56-0.7 1.17-1.35 1.67-0.64 0.51-1.48 0.94-2.48 1.25z"/>
		<path id="&lt;Path&gt;" class="s1" d="m46.42 42.82c-1.39 0.44-2.32 1.32-2.15 1.54 0.18 0.25 1-0.15 2.45-0.63 1.45-0.46 2.27-0.64 2.25-0.94-0.01-0.28-1.16-0.42-2.55 0.03z"/>
		<path id="&lt;Path&gt;" class="s1" d="m45.77 59.9c1.63 0.94 2.22 4.29 4.23 4.07 0.95-0.11 2.12-0.35 3.38-0.78 1.25-0.43 2.32-0.97 3.14-1.47 1.73-1.06 0.17-4.1 0.92-5.84q-0.14 0.06-0.28 0.1c-3.08 1.06-6.61-0.97-7.84-4.55 1.23 3.58-0.48 7.42-3.55 8.47-0.1 0.04 0.1-0.02 0 0z"/>
		<path id="&lt;Path&gt;" class="s0" d="m55.32 56.26c-0.81 0.29-1.59 0.79-2.12 1.4-3.21-0.2-6.51 3.34-4.88 5.41 0.46 0.53 0.98 0.98 1.68 0.9 0.95-0.11 2.12-0.35 3.38-0.78 1.25-0.43 2.33-0.97 3.14-1.47 1.73-1.06 0.17-4.1 0.92-5.84q-0.14 0.06-0.28 0.1c-0.58 0.2-1.25 0.29-1.84 0.28z"/>
		<path id="&lt;Path&gt;" class="s1" d="m49.46 51.82c-1.47 0.5-5.95-0.64-6.49-2.21-0.54-1.57 1.32-3.63 4.14-4.61 2.83-0.97 5.56-0.48 6.1 1.09 0.54 1.56-2.29 5.22-3.75 5.73z"/>
		<path id="&lt;Path&gt;" class="s2" d="m50.38 45.71c0.16 0.48-0.92 1.28-2.41 1.8-1.49 0.51-2.83 0.54-2.99 0.06-0.17-0.48 0.91-1.28 2.4-1.79 1.49-0.52 2.83-0.54 3-0.07z"/>
		<path id="&lt;Path&gt;" class="s1" d="m53.33 62.48q-0.97 0.35-1.92 0.57-0.47 0.11-0.94 0.19-0.23 0.04-0.45 0.07c-0.09 0.02-0.13 0.02-0.18 0.02q-0.07 0-0.15 0.01c-0.36-0.02-0.74-0.32-1.07-0.69-0.34-0.37-0.63-0.79-0.92-1.18-0.56-0.78-1.16-1.42-1.72-1.68q-0.46-0.19-0.68-0.16-0.22 0.02-0.25 0.09-0.01 0.08 0.14 0.19 0.08 0.05 0.2 0.12 0.09 0.09 0.2 0.18 0.46 0.38 1.1 1.53c0.22 0.38 0.46 0.82 0.78 1.31q0.24 0.37 0.6 0.75c0.24 0.26 0.57 0.5 0.97 0.67 0.22 0.06 0.44 0.15 0.68 0.14q0.17 0 0.35 0l0.26-0.02q0.55-0.07 1.11-0.18 1.14-0.22 2.34-0.64 1.22-0.44 2.22-0.98 0.24-0.14 0.48-0.27l0.24-0.15 0.11-0.07 0.03-0.02 0.08-0.05 0.01-0.01 0.05-0.04c0.2-0.11 0.69-0.69 0.78-1.03 0.28-0.79 0.2-1.44 0.15-1.98q-0.09-0.82-0.19-1.42c-0.12-0.82-0.11-1.38-0.03-1.76q0.06-0.28 0.11-0.43 0.04-0.17-0.01-0.22-0.06-0.06-0.24 0.07-0.2 0.11-0.43 0.49c-0.29 0.5-0.38 1.33-0.36 2.25 0.01 0.46 0.03 0.95 0.02 1.45-0.01 0.48-0.09 1.01-0.3 1.27-0.05 0.05-0.03 0.09-0.19 0.2l-0.19 0.14-0.01 0.01c-0.01 0.01 0.12-0.09 0.07-0.05l-0.01 0.01h-0.01l-0.03 0.02-0.05 0.02-0.09 0.06q-0.4 0.22-0.83 0.43-0.86 0.43-1.83 0.77z"/>
		<path id="&lt;Path&gt;" class="s1" d="m53.37 58.21c0.61-0.82 1.44-1.33 2.07-1.64 0.6-0.29 1.12-0.42 1.09-0.58q-0.02-0.1-0.31-0.15-0.14-0.03-0.35-0.03-0.22 0.01-0.52 0.06c-0.74 0.14-1.85 0.61-2.74 1.76-0.43 0.57-0.69 1.18-0.78 1.74-0.09 0.57 0 1.06 0.13 1.42q0.24 0.53 0.48 0.7 0.23 0.18 0.31 0.11c0.13-0.1-0.09-0.48-0.14-1.1-0.07-0.61 0.14-1.49 0.76-2.29z"/>
		<path id="&lt;Path&gt;" class="s1" d="m49.57 59.54c0.81-0.77 1.77-1.22 2.49-1.46 0.68-0.23 1.26-0.28 1.24-0.44q0-0.1-0.3-0.19-0.14-0.05-0.37-0.08-0.24-0.01-0.56 0c-0.82 0.06-2.03 0.44-3.15 1.47-1.13 1.01-1.55 2.33-1.34 3.18 0.02 0.21 0.13 0.37 0.19 0.51 0.07 0.15 0.17 0.24 0.24 0.31q0.24 0.21 0.32 0.14c0.13-0.1-0.12-0.51-0.07-1.16-0.01-0.16 0.06-0.34 0.1-0.52 0.08-0.19 0.13-0.38 0.26-0.58q0.33-0.61 0.95-1.18z"/>
		<path id="&lt;Path&gt;" class="s1" d="m44.49 60.66q0.66 0.07 1.39-0.1l0.14-0.04 0.07-0.02 0.03-0.01 0.06-0.01 0.01-0.01 0.3-0.12q0.3-0.12 0.56-0.28c0.73-0.41 1.34-0.96 1.8-1.56 0.91-1.22 1.25-2.58 1.32-3.68 0.04-1.12-0.14-1.99-0.37-2.58-0.22-0.56-0.42-0.83-0.51-0.81q-0.14 0.05-0.06 0.82c0.02 0.49 0.09 1.22-0.03 2.13-0.1 0.9-0.4 2.01-1.13 3.04-0.37 0.51-0.85 0.99-1.45 1.35q-0.23 0.13-0.47 0.24c-0.16 0.06-0.35 0.16-0.48 0.19-0.25 0.07-0.32 0.07-0.51 0.09q-0.26 0.02-0.55 0c-1.55-0.17-2.9-1-3.71-1.87-0.83-0.89-1.09-1.88-0.95-2.65 0.13-0.78 0.49-1.36 0.73-1.74 0.25-0.39 0.37-0.61 0.3-0.69-0.06-0.07-0.37 0.04-0.81 0.42-0.41 0.38-1.05 1.05-1.26 2.2-0.21 1.15 0.31 2.59 1.35 3.62q0.77 0.8 1.84 1.35c0.71 0.36 1.5 0.64 2.39 0.72z"/>
		<path id="&lt;Path&gt;" class="s1" d="m57.88 54.73q-0.38 0.35-0.74 0.53l-0.13 0.05-0.07 0.03-0.03 0.01h-0.01c0.07-0.02 0.02 0 0.03-0.01l-0.02 0.01-0.23 0.06q-0.23 0.08-0.47 0.11-0.96 0.16-1.86-0.03c-1.19-0.26-2.17-0.9-2.89-1.55-0.71-0.66-1.2-1.33-1.49-1.79-0.32-0.48-0.51-0.78-0.61-0.73q-0.15 0.06 0.03 0.82c0.16 0.53 0.46 1.27 1.1 2.1 0.64 0.82 1.65 1.74 3.13 2.25 0.73 0.26 1.59 0.4 2.5 0.3q0.34-0.04 0.68-0.11c0.23-0.07 0.43-0.1 0.71-0.21 0.16-0.05 0.48-0.21 0.69-0.35q0.32-0.22 0.61-0.48c0.75-0.71 1.22-1.52 1.57-2.32q0.49-1.21 0.53-2.37c0.04-0.76-0.1-1.49-0.38-2.1-0.27-0.62-0.69-1.1-1.13-1.41-0.89-0.61-1.68-0.7-2.18-0.7-0.5 0-0.74 0.09-0.75 0.18-0.01 0.11 0.29 0.21 0.78 0.39 0.49 0.18 1.2 0.46 1.75 1.1 0.54 0.63 0.81 1.65 0.61 2.83-0.18 1.15-0.77 2.47-1.73 3.39z"/>
		<path id="&lt;Path&gt;" class="s1" d="m29.96 33.4c0.87-0.49 1.76-0.65 2.48-0.7 0.66-0.07 1.3-0.02 1.4-0.32q0.09-0.21-0.12-0.51c-0.11-0.19-0.43-0.41-0.86-0.6-0.43-0.18-1-0.3-1.68-0.29-0.68 0.02-1.45 0.21-2.2 0.63-1.51 0.85-2.17 2.02-2.44 2.78q-0.19 0.59-0.14 0.94 0.05 0.35 0.26 0.44c0.6 0.27 1.55-1.4 3.3-2.37z"/>
		<path id="&lt;Path&gt;" class="s1" d="m53.88 22.3c-1.49 0.19-2.69 1.12-3.18 1.95-0.55 0.88-0.48 1.45-0.24 1.6q0.2 0.12 0.52-0.05c0.22-0.14 0.45-0.27 0.72-0.45 0.57-0.37 1.33-0.86 2.48-1.02 1.14-0.16 2.09 0.03 2.77 0.11 0.69 0.07 1.13 0.07 1.29-0.21 0.15-0.26-0.14-0.75-0.88-1.23-0.74-0.47-1.99-0.9-3.48-0.7z"/>
		<path id="&lt;Path&gt;" class="s2" d="m39.44 40.63c0.48 1.33 0.7 2.67 0.67 3.88-0.06 2.39-5.51 5.05-6.83 4.07-1.31-0.98-2.49-2.58-3.2-4.54-1.43-3.94-0.5-7.89 2.08-8.83 2.59-0.94 5.85 1.49 7.28 5.42z"/>
		<path id="&lt;Compound Path&gt;" fill-rule="evenodd" class="s1" d="m34.1 49.22c-0.41 0-0.79-0.08-1.07-0.3-1.44-1.07-2.63-2.75-3.36-4.73-1.51-4.16-0.46-8.36 2.35-9.39 2.8-1.01 6.31 1.53 7.82 5.68 0.49 1.34 0.73 2.74 0.7 4.05-0.04 1.59-1.98 3.09-3.63 3.89-0.46 0.23-1.74 0.8-2.81 0.8zm-0.76-13.78q-0.53-0.01-1.03 0.17c-2.36 0.86-3.18 4.58-1.83 8.28 0.67 1.83 1.75 3.37 3.06 4.34 0.34 0.26 1.51 0.14 3-0.58 1.82-0.89 3.11-2.18 3.14-3.15 0.03-1.2-0.2-2.49-0.65-3.72-1.16-3.19-3.54-5.34-5.69-5.34z"/>
		<path id="&lt;Path&gt;" class="s2" d="m50.59 36.57c0.49 1.33 1.18 2.49 1.99 3.41 1.57 1.78 7.46 0.32 7.83-1.28 0.38-1.6 0.26-3.57-0.46-5.53-1.43-3.94-4.69-6.37-7.27-5.43-2.59 0.94-3.52 4.9-2.09 8.83z"/>
		<path id="&lt;Compound Path&gt;" fill-rule="evenodd" class="s1" d="m55.15 41.22c-1.17 0-2.28-0.25-2.9-0.96-0.86-0.98-1.58-2.2-2.06-3.54-1.51-4.15-0.46-8.36 2.34-9.38 2.8-1.02 6.31 1.53 7.82 5.68 0.73 1.98 0.9 4.03 0.48 5.78-0.3 1.27-2.6 1.94-3.3 2.12-0.73 0.18-1.57 0.3-2.38 0.3zm-4.15-4.8c0.45 1.24 1.1 2.37 1.9 3.27 0.63 0.72 2.45 0.88 4.42 0.39 1.61-0.4 2.58-1.06 2.68-1.48 0.37-1.58 0.21-3.46-0.45-5.29-1.35-3.7-4.37-6.02-6.73-5.16-2.35 0.86-3.17 4.57-1.82 8.27z"/>
		<path id="&lt;Path&gt;" class="s1" d="m39.39 41.45c-1.55-2.63-4.29-3.88-6.13-2.8-1.83 1.08-2.06 4.09-0.51 6.72 0.86 1.46 2.09 2.5 3.33 2.95 1.9-0.76 3.99-2.34 4.03-3.81q0.02-0.89-0.14-1.84-0.23-0.61-0.58-1.22z"/>
		<path id="&lt;Path&gt;" class="s1" d="m59.91 33.99c-1.55-2.63-4.3-3.89-6.13-2.81-1.84 1.08-2.07 4.09-0.52 6.72 0.78 1.34 1.88 2.32 3 2.82 1.96-0.26 3.94-1.11 4.15-2.02 0.25-1.04 0.28-2.25 0.07-3.5q-0.23-0.62-0.57-1.21z"/>
		<path id="&lt;Path&gt;" class="s2" d="m33.99 40.45c0.31 0.86-0.14 1.81-1 2.13-0.86 0.31-1.81-0.13-2.12-0.99-0.32-0.87 0.13-1.82 0.99-2.13 0.86-0.31 1.81 0.13 2.13 0.99z"/>
		<path id="&lt;Path&gt;" class="s2" d="m54.5 32.98c0.31 0.87-0.13 1.82-0.99 2.13-0.86 0.31-1.82-0.13-2.13-0.99-0.31-0.86 0.13-1.81 0.99-2.13 0.86-0.31 1.82 0.13 2.13 0.99z"/>
		<path id="&lt;Path&gt;" class="s3" d="m38.86 71.28c0.9-0.44 2.42-4.54-2.14-5.92-2.65-0.81-6.67 0.15-9.24 2.76-3 3.03-4.5 10.73-2.19 16.19 1.35 3.67 7.43 7.76 13.28 4.82l-0.58-6.6"/>
		<path id="&lt;Path&gt;" class="s1" d="m25.2 78.69c-0.03-1.88 0.2-3.73 0.68-5.44q0.36-1.29 0.91-2.42 0.14-0.28 0.29-0.55 0.15-0.28 0.31-0.5c0.11-0.15 0.19-0.3 0.31-0.46q0.22-0.25 0.43-0.5l0.05-0.07h0.01c0.04-0.04-0.04 0.04-0.03 0.03l0.01-0.01 0.03-0.03 0.1-0.1 0.21-0.2q0.21-0.2 0.44-0.38 0.45-0.37 0.93-0.67 0.96-0.6 1.98-0.96c1.34-0.49 2.72-0.65 3.88-0.53 1.18 0.14 2.22 0.61 2.84 1.21 0.62 0.62 0.84 1.42 0.83 2.09-0.01 0.67-0.17 1.2-0.31 1.53-0.11 0.31-0.29 0.48-0.24 0.55 0.05 0.04 0.22 0.08 0.54-0.21 0.28-0.26 0.59-0.72 0.79-1.42 0.19-0.68 0.25-1.67-0.27-2.71-0.54-1.02-1.65-1.84-2.94-2.28-0.62-0.22-1.43-0.36-2.17-0.38q-1.15-0.04-2.37 0.2c-1.62 0.33-3.33 1.04-4.87 2.28q-0.29 0.22-0.56 0.49l-0.14 0.12-0.07 0.07-0.1 0.1-0.23 0.26-0.24 0.27q-0.12 0.15-0.24 0.32c-0.15 0.22-0.34 0.46-0.47 0.68-0.57 0.9-0.98 1.88-1.35 2.91-0.36 1.03-0.6 2.11-0.79 3.24q-0.25 1.7-0.23 3.51 0.06 1.89 0.45 3.65c0.16 0.57 0.29 1.15 0.52 1.69 0.11 0.28 0.19 0.55 0.32 0.82l0.16 0.36 0.09 0.18 0.12 0.21c0.31 0.57 0.66 1.02 1.02 1.45q0.28 0.31 0.56 0.61 0.3 0.27 0.6 0.54c0.81 0.68 1.65 1.26 2.55 1.66 1.74 0.87 3.58 1.15 5.2 1.07 1.63-0.1 3.03-0.6 4.15-1.19l0.45-0.24-0.06-0.47c-0.55-4.34-1-6.56-1.29-6.54-0.27 0.03-0.29 2.5-0.1 6.66l0.37-0.67c-1.09 0.47-2.39 0.81-3.82 0.78-1.43-0.01-2.97-0.45-4.42-1.27-0.72-0.42-1.43-0.91-2.05-1.53-0.62-0.62-1.17-1.32-1.53-2.06-0.81-1.74-1.18-3.68-1.24-5.75z"/>
		<path id="&lt;Path&gt;" class="s3" d="m31.86 70.25c5.73-3.04 11.71 2.45 7.84 7.15"/>
		<path id="&lt;Path&gt;" class="s1" d="m39.83 69.96c-0.97-0.8-2.11-1.24-3.17-1.4-1.05-0.15-2.02-0.03-2.77 0.2-0.76 0.23-1.3 0.57-1.65 0.85q-0.47 0.43-0.38 0.64 0.1 0.21 0.66 0.15 0.27-0.02 0.61-0.06c0.24-0.01 0.51-0.06 0.81-0.07 0.6-0.04 1.33-0.05 2.13 0.12 0.8 0.16 1.68 0.52 2.45 1.15 0.77 0.64 1.2 1.4 1.39 2.09 0.19 0.7 0.15 1.34 0.05 1.87-0.21 1.06-0.53 1.69-0.27 1.89 0.2 0.18 1.08-0.22 1.75-1.66 0.31-0.71 0.51-1.72 0.26-2.8-0.24-1.08-0.9-2.18-1.87-2.97z"/>
		<path id="&lt;Path&gt;" class="s3" d="m34.12 77.39c4.57-1.94 7.4 0.33 7.1 3.25-0.46 4.43-4.81 2.91-5.14 5.94"/>
		<path id="&lt;Path&gt;" class="s1" d="m42.26 80.13c-0.02-0.78-0.24-1.57-0.64-2.23-0.41-0.65-0.98-1.17-1.59-1.49-1.24-0.64-2.47-0.62-3.37-0.45-0.9 0.18-1.6 0.51-2.01 0.78q-0.6 0.43-0.53 0.65c0.1 0.32 1.03 0.12 2.42 0.07 0.7 0.01 1.57 0.06 2.31 0.48 0.76 0.39 1.35 1.15 1.36 2.23-0.04 1.24-0.39 2.03-1.05 2.56-0.64 0.55-1.56 0.88-2.26 1.41-0.34 0.28-0.65 0.58-0.82 0.9-0.19 0.32-0.23 0.62-0.27 0.85 0.01 0.47 0.13 0.68 0.27 0.69 0.17 0.02 0.32-0.21 0.56-0.5 0.24-0.3 0.59-0.54 1.25-0.79 0.32-0.12 0.73-0.25 1.2-0.43 0.46-0.18 1-0.44 1.52-0.86 0.54-0.41 0.96-1.03 1.25-1.72q0.1-0.28 0.19-0.57 0.05-0.15 0.06-0.25l0.04-0.22 0.04-0.22 0.02-0.12 0.01-0.05 0.01-0.03 0.01-0.08v-0.01-0.02q0.01-0.28 0.02-0.58z"/>
	</g>
</svg>