<?xml version="1.0" encoding="UTF-8"?>
<svg id="Layer_2" data-name="Layer 2" xmlns="http://www.w3.org/2000/svg" viewBox="0 0 39.87 16.37">
  <g id="Assets">
    <path d="M7.29,2.11c-.47.55-1.21.99-1.96.93-.09-.75.27-1.54.7-2.03.47-.57,1.29-.97,1.95-1,.08.78-.23,1.54-.69,2.11M7.96,3.19c-1.08-.06-2.01.62-2.52.62s-1.31-.58-2.17-.57c-1.11.02-2.15.65-2.72,1.65-1.17,2.01-.3,4.98.83,6.62.55.81,1.21,1.7,2.09,1.67.83-.03,1.15-.54,2.15-.54s1.29.54,2.17.52c.9-.02,1.47-.81,2.02-1.62.63-.92.89-1.81.9-1.86-.02-.02-1.74-.68-1.76-2.67-.02-1.67,1.36-2.46,1.43-2.51-.78-1.15-1.99-1.28-2.41-1.31M14.22.93v12.14h1.88v-4.15h2.61c2.38,0,4.06-1.64,4.06-4s-1.64-3.99-4-3.99h-4.56ZM16.1,2.52h2.17c1.64,0,2.57.87,2.57,2.41s-.93,2.41-2.58,2.41h-2.17V2.52ZM26.21,13.16c1.18,0,2.28-.6,2.78-1.55h.04v1.46h1.74v-6.04c0-1.75-1.4-2.88-3.56-2.88-2,0-3.48,1.14-3.54,2.72h1.7c.14-.75.83-1.24,1.78-1.24,1.15,0,1.8.54,1.8,1.53v.67l-2.35.14c-2.19.13-3.37,1.03-3.37,2.59s1.22,2.62,2.98,2.62ZM26.72,11.72c-1,0-1.64-.48-1.64-1.22s.62-1.21,1.79-1.28l2.1-.13v.69c0,1.14-.97,1.95-2.24,1.95ZM33.1,16.37c1.84,0,2.7-.7,3.46-2.83l3.31-9.28h-1.92l-2.22,7.17h-.04l-2.22-7.17h-1.97l3.19,8.84-.17.54c-.29.91-.76,1.26-1.59,1.26-.15,0-.44-.02-.55-.03v1.46c.11.03.58.05.72.05Z"/>
  </g>
</svg>