<?xml version="1.0" encoding="UTF-8"?>
<svg id="Layer_2" data-name="Layer 2" xmlns="http://www.w3.org/2000/svg" viewBox="0 0 41.47 13.39">
  <defs>
    <style>
      .cls-1 {
        fill: #1434cb;
      }
    </style>
  </defs>
  <g id="Assets">
    <g id="Layer_2-2" data-name="Layer 2">
      <g id="Layer_1-2" data-name="Layer 1-2">
        <path class="cls-1" d="M15.75.24l-5.43,12.95h-3.54L4.1,2.85c-.16-.64-.3-.87-.8-1.14-.81-.44-2.14-.85-3.3-1.1L.08.24h5.7c.73,0,1.38.48,1.55,1.32l1.41,7.5L12.22.24h3.52ZM29.63,8.96c.01-3.42-4.73-3.61-4.7-5.13.01-.46.45-.96,1.42-1.09.48-.06,1.8-.11,3.3.58l.59-2.75c-.81-.29-1.84-.58-3.14-.58-3.31,0-5.64,1.76-5.66,4.28-.02,1.87,1.66,2.91,2.93,3.53,1.31.63,1.74,1.04,1.74,1.61,0,.87-1.04,1.25-2.01,1.27-1.68.03-2.66-.46-3.44-.82l-.61,2.84c.78.36,2.23.67,3.73.69,3.52,0,5.82-1.74,5.83-4.43M38.37,13.19h3.1L38.77.24h-2.86c-.63,0-1.19.37-1.43.95l-5.03,12h3.52l.7-1.93h4.3l.41,1.93ZM34.63,8.6l1.76-4.86,1.02,4.86h-2.78ZM20.53.24l-2.77,12.95h-3.35L17.18.24h3.35Z"/>
      </g>
    </g>
  </g>
</svg>