<?xml version="1.0" encoding="UTF-8"?>
<svg id="Layer_2" data-name="Layer 2" xmlns="http://www.w3.org/2000/svg" viewBox="0 0 26.48 16.37">
  <defs>
    <style>
      .cls-1 {
        fill: #f79e1b;
      }

      .cls-2 {
        fill: #eb001b;
      }

      .cls-3 {
        fill: #ff5f00;
      }
    </style>
  </defs>
  <g id="Assets">
    <g>
      <polygon class="cls-3" points="9.66 1.75 16.82 1.75 16.82 14.62 9.66 14.62 9.66 1.75"/>
      <path class="cls-2" d="M10.12,8.19c0-.31.02-.62.05-.92.03-.31.09-.61.16-.91.07-.3.16-.6.26-.89.1-.29.22-.58.36-.85.14-.28.29-.55.45-.81.17-.26.35-.51.54-.75.19-.24.4-.47.62-.69.22-.22.45-.42.69-.61-.2-.16-.41-.3-.62-.44-.21-.14-.43-.27-.66-.38-.23-.12-.46-.22-.69-.32-.24-.1-.48-.18-.72-.25-.24-.07-.49-.14-.74-.19-.25-.05-.5-.09-.75-.12-.25-.03-.51-.04-.76-.05s-.51,0-.76.03c-.25.02-.51.05-.76.1-.25.04-.5.1-.74.17-.25.07-.49.15-.73.23-.24.09-.47.19-.7.3-.23.11-.45.23-.67.36-.22.13-.43.27-.63.43s-.4.31-.59.48c-.19.17-.37.35-.54.54-.17.19-.34.38-.49.58-.15.2-.3.41-.43.63-.14.22-.26.44-.37.66s-.22.46-.31.7c-.09.24-.17.48-.24.72-.07.24-.13.49-.18.74-.05.25-.08.5-.11.76-.02.25-.04.51-.04.76s.01.51.04.76c.02.25.06.51.11.76.05.25.11.5.18.74.07.24.15.49.24.72.09.24.2.47.31.7.11.23.24.45.37.66.14.22.28.42.43.63.15.2.32.4.49.58.17.19.35.37.54.54.19.17.39.33.59.48.2.15.42.29.63.43.22.13.44.25.67.36.23.11.46.21.7.3.24.09.48.17.73.23.25.07.49.12.74.17s.5.08.76.1c.25.02.51.03.76.02s.51-.02.76-.05c.25-.03.5-.07.75-.12.25-.05.5-.11.74-.19.24-.07.48-.16.72-.25.24-.1.47-.2.69-.32.23-.12.45-.25.66-.38.21-.14.42-.29.62-.44-.24-.19-.47-.39-.69-.61-.22-.22-.43-.45-.62-.69-.19-.24-.37-.49-.54-.75-.17-.26-.32-.53-.45-.81s-.25-.56-.36-.85c-.1-.29-.19-.59-.26-.89-.07-.3-.12-.6-.16-.91s-.05-.61-.05-.92h0Z"/>
      <path class="cls-1" d="M26.48,8.19c0,.38-.03.76-.08,1.14-.05.38-.13.75-.24,1.12s-.24.73-.39,1.07c-.16.35-.33.69-.54,1.01-.2.32-.43.63-.67.92-.25.29-.51.57-.8.82-.28.26-.58.49-.9.7-.32.21-.65.4-.99.57-.34.17-.7.31-1.06.43-.36.12-.73.21-1.11.27-.38.07-.76.1-1.14.12-.38.01-.76,0-1.14-.04-.38-.04-.76-.11-1.13-.2-.37-.09-.73-.21-1.09-.36-.35-.14-.7-.31-1.03-.5-.33-.19-.65-.41-.95-.64.12-.1.24-.19.36-.3s.23-.21.34-.32c.11-.11.22-.22.32-.33.1-.11.2-.23.3-.35.1-.12.19-.24.28-.37.09-.13.18-.25.26-.38.08-.13.16-.26.24-.4.07-.13.15-.27.21-.41.07-.14.13-.28.19-.42.06-.14.11-.29.17-.43s.1-.29.14-.44c.04-.15.08-.3.12-.45.03-.15.06-.3.09-.45.03-.15.05-.3.07-.46.02-.15.03-.31.04-.46s.01-.31.01-.46,0-.31-.01-.46c0-.15-.02-.31-.04-.46-.02-.15-.04-.31-.07-.46-.03-.15-.06-.3-.09-.45-.03-.15-.07-.3-.12-.45-.04-.15-.09-.3-.14-.44-.05-.15-.11-.29-.17-.43-.06-.14-.12-.28-.19-.42-.07-.14-.14-.28-.21-.41-.08-.13-.15-.27-.24-.4-.08-.13-.17-.26-.26-.38-.09-.13-.18-.25-.28-.37-.1-.12-.2-.24-.3-.35-.1-.11-.21-.23-.32-.33-.11-.11-.22-.21-.34-.32s-.23-.2-.36-.3c.3-.24.62-.45.95-.64.33-.19.67-.36,1.03-.5.35-.14.72-.26,1.09-.36.37-.09.75-.16,1.13-.2.38-.04.76-.05,1.14-.04.38.01.76.05,1.14.12.38.07.75.16,1.11.27.36.12.72.26,1.06.43.34.17.67.36.99.57s.62.45.9.7c.28.26.55.53.8.82.25.29.47.6.67.92.2.32.38.66.54,1.01.16.35.29.71.39,1.07.11.37.18.74.24,1.12.05.38.08.76.08,1.14h0Z"/>
    </g>
  </g>
</svg>