<?xml version="1.0" encoding="UTF-8"?>
<svg id="Layer_2" data-name="Layer 2" xmlns="http://www.w3.org/2000/svg" viewBox="0 0 45.98 19.35">
  <defs>
    <style>
      .cls-1 {
        fill: #fff;
      }

      .cls-2 {
        fill: #016fd0;
      }
    </style>
  </defs>
  <g id="Assets">
    <g>
      <rect class="cls-2" width="45.98" height="19.35" rx="1.78" ry="1.78"/>
      <g id="layer1">
        <path id="path3082" class="cls-1" d="M8.9,17.99v-7.2h7.62l.82,1.07.85-1.07h27.67v6.7s-.72.49-1.56.5h-15.32l-.92-1.14v1.14h-3.02v-1.94s-.41.27-1.31.27h-1.03v1.67h-4.58l-.82-1.09-.83,1.09h-7.58Z"/>
        <path id="path3080" class="cls-1" d="M0,5.36L1.72,1.36h2.97l.98,2.25V1.36h3.7l.58,1.62.56-1.62h16.59v.82s.87-.82,2.31-.82l5.38.02.96,2.22V1.36h3.09l.85,1.27v-1.27h3.12v7.2h-3.12l-.82-1.28v1.28h-4.54l-.46-1.14h-1.22l-.45,1.14h-3.08c-1.23,0-2.02-.8-2.02-.8v.8h-4.65l-.92-1.14v1.14H4.25l-.46-1.14h-1.22l-.45,1.14H0v-3.19Z"/>
        <path id="path3046" class="cls-2" d="M2.33,2.24L0,7.63h1.51l.43-1.08h2.49l.43,1.08h1.54l-2.32-5.39h-1.76ZM3.19,3.5l.76,1.89h-1.52l.76-1.89Z"/>
        <path id="path3048" class="cls-2" d="M6.56,7.63V2.24h2.15s1.25,3.48,1.25,3.48l1.22-3.48h2.13v5.39h-1.35v-3.97l-1.43,3.97h-1.18l-1.43-3.97v3.97h-1.35Z"/>
        <path id="path3050" class="cls-2" d="M14.22,7.63V2.24h4.4v1.21h-3.04v.92h2.97v1.14h-2.97v.96h3.04v1.17h-4.4Z"/>
        <path id="path3052" class="cls-2" d="M19.4,2.24v5.39h1.35v-1.92h.57l1.62,1.92h1.65l-1.77-1.99c.73-.06,1.48-.69,1.48-1.66,0-1.13-.89-1.75-1.88-1.75h-3ZM20.75,3.45h1.54c.37,0,.64.29.64.57,0,.36-.35.57-.62.57h-1.56v-1.14h0Z"/>
        <path id="path3054" class="cls-2" d="M26.21,7.63h-1.38V2.24h1.38v5.39Z"/>
        <path id="path3056" class="cls-2" d="M29.48,7.63h-.3c-1.44,0-2.31-1.13-2.31-2.67s.86-2.72,2.68-2.72h1.49v1.28h-1.54c-.74,0-1.26.58-1.26,1.45,0,1.04.6,1.48,1.45,1.48h.35l-.57,1.18Z"/>
        <path id="path3058" class="cls-2" d="M32.41,2.24l-2.32,5.39h1.51l.43-1.08h2.49l.43,1.08h1.54l-2.32-5.39h-1.76ZM33.27,3.5l.76,1.89h-1.52l.76-1.89h0Z"/>
        <path id="path3060" class="cls-2" d="M36.64,7.63V2.24h1.71l2.19,3.39v-3.39h1.35v5.39h-1.66l-2.24-3.48v3.48h-1.35Z"/>
        <path id="path3062" class="cls-2" d="M9.83,17.07v-5.39h4.4v1.21h-3.04v.92h2.97v1.14h-2.97v.96h3.04v1.17h-4.4Z"/>
        <path id="path3064" class="cls-2" d="M31.38,17.07v-5.39h4.4v1.21h-3.04v.92h2.95v1.14h-2.95v.96h3.04v1.17h-4.4Z"/>
        <path id="path3066" class="cls-2" d="M14.39,17.07l2.14-2.66-2.19-2.73h1.7l1.31,1.69,1.31-1.69h1.63l-2.16,2.7,2.15,2.7h-1.7l-1.27-1.66-1.24,1.66h-1.67Z"/>
        <path id="path3068" class="cls-2" d="M20.43,11.68v5.39h1.38v-1.7h1.42c1.2,0,2.11-.64,2.11-1.88,0-1.03-.71-1.81-1.94-1.81h-2.98ZM21.81,12.9h1.49c.39,0,.67.24.67.62,0,.36-.28.62-.67.62h-1.49v-1.24h0Z"/>
        <path id="path3072" class="cls-2" d="M25.93,11.68v5.39h1.35v-1.92h.57l1.62,1.92h1.65l-1.77-1.99c.73-.06,1.48-.69,1.48-1.66,0-1.13-.89-1.75-1.88-1.75h-3,0ZM27.28,12.88h1.54c.37,0,.64.29.64.57,0,.36-.35.57-.62.57h-1.56v-1.14Z"/>
        <path id="path3074" class="cls-2" d="M36.4,17.07v-1.17h2.7c.4,0,.57-.22.57-.45s-.17-.46-.57-.46h-1.22c-1.06,0-1.65-.65-1.65-1.61,0-.86.54-1.7,2.11-1.7h2.62l-.57,1.21h-2.27c-.43,0-.57.23-.57.45s.17.47.5.47h1.28c1.18,0,1.69.67,1.69,1.55,0,.94-.57,1.72-1.76,1.72h-2.87Z"/>
        <path id="path3076" class="cls-2" d="M41.35,17.07v-1.17h2.7c.4,0,.57-.22.57-.45s-.17-.46-.57-.46h-1.22c-1.06,0-1.65-.65-1.65-1.61,0-.86.54-1.7,2.11-1.7h2.62l-.57,1.21h-2.27c-.43,0-.57.23-.57.45s.17.47.5.47h1.28c1.18,0,1.69.67,1.69,1.55,0,.94-.57,1.72-1.76,1.72h-2.87Z"/>
      </g>
    </g>
  </g>
</svg>