<?xml version="1.0" encoding="UTF-8"?>
<svg id="Layer_2" data-name="Layer 2" xmlns="http://www.w3.org/2000/svg" viewBox="0 0 41.19 16.37">
  <defs>
    <style>
      .cls-1 {
        fill: #4285f4;
      }

      .cls-2 {
        fill: #34a853;
      }

      .cls-3 {
        fill: #fbbc04;
      }

      .cls-4 {
        fill: #ea4335;
      }

      .cls-5 {
        fill: #5f6368;
      }
    </style>
  </defs>
  <g id="Assets">
    <g>
      <path class="cls-5" d="M19.47,7.98v4.79h-1.54V.93h4.01c.98,0,1.9.36,2.63,1.03.72.62,1.08,1.54,1.08,2.52s-.36,1.85-1.08,2.52c-.72.67-1.6,1.03-2.63,1.03l-2.47-.05h0ZM19.47,2.37v4.12h2.57c.57,0,1.13-.21,1.49-.62.82-.77.82-2.06.05-2.83l-.05-.05c-.41-.41-.93-.67-1.49-.62h-2.57Z"/>
      <path class="cls-5" d="M29.2,4.43c1.13,0,2.01.31,2.68.93s.98,1.44.98,2.47v4.94h-1.44v-1.13h-.05c-.62.93-1.49,1.39-2.52,1.39-.88,0-1.65-.26-2.26-.77-.57-.51-.93-1.24-.93-2.01,0-.82.31-1.49.93-2.01s1.49-.72,2.52-.72c.93,0,1.65.15,2.21.51v-.36c0-.51-.21-1.03-.62-1.34-.41-.36-.93-.57-1.49-.57-.88,0-1.54.36-2.01,1.08l-1.34-.82c.82-1.08,1.9-1.6,3.35-1.6ZM27.24,10.3c0,.41.21.77.51.98.36.26.77.41,1.18.41.62,0,1.24-.26,1.7-.72.51-.46.77-1.03.77-1.65-.46-.36-1.13-.57-2.01-.57-.62,0-1.13.15-1.54.46-.41.26-.62.62-.62,1.08Z"/>
      <path class="cls-5" d="M41.19,4.69l-5.1,11.68h-1.54l1.9-4.07-3.35-7.57h1.65l2.42,5.82h.05l2.37-5.82h1.6v-.05Z"/>
      <path class="cls-1" d="M13.34,6.95c0-.46-.05-.93-.1-1.39h-6.43v2.63h3.65c-.15.82-.62,1.6-1.34,2.06v1.7h2.21c1.29-1.18,2.01-2.93,2.01-4.99Z"/>
      <path class="cls-2" d="M6.81,13.59c1.85,0,3.4-.62,4.53-1.65l-2.21-1.7c-.62.41-1.39.67-2.32.67-1.75,0-3.29-1.18-3.81-2.83H.73v1.75c1.18,2.32,3.5,3.76,6.07,3.76Z"/>
      <path class="cls-3" d="M3,8.08c-.31-.82-.31-1.75,0-2.63v-1.75H.73C-.24,5.61-.24,7.88.73,9.83l2.26-1.75Z"/>
      <path class="cls-4" d="M6.81,2.68c.98,0,1.9.36,2.63,1.03h0l1.96-1.96C10.15.62,8.51-.05,6.86,0,4.28,0,1.92,1.44.78,3.76l2.26,1.75c.46-1.65,2.01-2.83,3.76-2.83Z"/>
    </g>
  </g>
</svg>