<?xml version="1.0" encoding="UTF-8"?>
<svg id="Layer_2" data-name="Layer 2" xmlns="http://www.w3.org/2000/svg" viewBox="0 0 59.99 19.35">
  <defs>
    <style>
      .cls-1 {
        fill: #35b454;
      }
    </style>
  </defs>
  <g id="Assets">
    <g>
      <path class="cls-1" d="M8.43,4.42H.18v2.65h5.43c.35,0,.59.29.59.59v4.66h-1.18c-.35,0-.59-.29-.59-.59v-3.36h-2.3c-1.18,0-2.12.94-2.12,2.12v2.36c0,1.18.94,2.12,2.12,2.12h8.43V6.55c0-1.18-.94-2.12-2.12-2.12Z"/>
      <path class="cls-1" d="M18.52,12.33h-1.18c-.35,0-.59-.29-.59-.59v-7.31h-2.3c-1.18,0-2.12.94-2.12,2.12v6.31c0,1.18.94,2.12,2.12,2.12h8.43V0h-4.42l.06,12.33Z"/>
      <path class="cls-1" d="M30.85,12.33h-1.18c-.35,0-.59-.29-.59-.59v-7.31h-4.42v8.43c0,1.18.94,2.12,2.12,2.12h4.07v1.3h-6.02v3.07h8.32c1.18,0,2.12-.94,2.12-2.12V4.42h-4.42s0,7.9,0,7.9Z"/>
      <path class="cls-1" d="M45.48,4.42h-8.49v8.43c0,1.18.94,2.12,2.12,2.12h8.32v-2.65h-5.43c-.35,0-.59-.29-.59-.59v-4.66h1.18c.35,0,.59.29.59.59v3.36h2.3c1.18,0,2.12-.94,2.12-2.12v-2.36c0-1.18-.94-2.12-2.12-2.12Z"/>
      <path class="cls-1" d="M57.81,4.42h-8.43v10.56h4.42v-7.9h1.18c.35,0,.59.29.59.59v7.31h4.42V6.55c-.06-1.18-1-2.12-2.18-2.12Z"/>
    </g>
  </g>
</svg>