<?xml version="1.0" encoding="UTF-8"?>
<svg id="Layer_2" data-name="Layer 2" xmlns="http://www.w3.org/2000/svg" viewBox="0 0 62.1 16.37">
  <defs>
    <style>
      .cls-1 {
        fill: #001c64;
      }

      .cls-2 {
        fill: #003087;
      }

      .cls-3 {
        fill: #0070e0;
      }
    </style>
  </defs>
  <g id="Assets">
    <g>
      <path class="cls-3" d="M59.84,3.49l-1.48,9.31c-.02.13.07.25.2.27.01,0,.03,0,.04,0h1.75c.13,0,.24-.09.26-.22l1.48-9.31c.02-.13-.07-.25-.2-.27-.01,0-.03,0-.04,0h-1.75c-.13,0-.24.09-.26.22ZM57.97,6.21h-1.66c-.13,0-.24.09-.26.22l-.06.34s-1.29-1.4-3.58-.45c-1.31.54-1.94,1.66-2.21,2.48,0,0-.85,2.49,1.07,3.87,0,0,1.78,1.32,3.79-.08l-.03.22c-.02.11.04.21.14.25.03.01.07.02.1.02h1.67c.13,0,.24-.09.26-.22l1.01-6.38c.01-.07,0-.14-.06-.19-.05-.05-.11-.08-.18-.08h0ZM55.52,9.73c-.06.45-.29.85-.63,1.14-.34.29-.78.45-1.24.44-.18,0-.35-.02-.52-.08-.72-.23-1.13-.91-1.01-1.66.07-.45.29-.85.63-1.14.34-.29.78-.45,1.23-.45.18,0,.35.02.52.08.72.23,1.13.91,1.01,1.66h0ZM46.64,9.91c.9,0,1.78-.32,2.46-.9.68-.58,1.14-1.39,1.28-2.27.29-1.84-1.16-3.45-3.22-3.45h-3.31c-.13,0-.24.09-.26.22l-1.48,9.31c-.02.11.04.21.14.25.03.01.07.02.1.02h1.75c.13,0,.24-.09.26-.22l.44-2.73c.02-.13.13-.22.26-.22h1.59s0,0,0,0ZM48.1,6.64c-.11.68-.64,1.18-1.66,1.18h-1.3l.39-2.48h1.28c1.05,0,1.39.62,1.28,1.3h0Z"/>
      <path class="cls-2" d="M40.1,6.36l-2.01,3.36-1.02-3.34c-.03-.11-.13-.18-.25-.18h-1.81c-.1,0-.18.07-.19.16,0,.03,0,.06,0,.09l1.83,5.62-1.65,2.65c-.06.09-.03.21.06.26,0,0,0,0,0,0,.03.02.06.03.1.03h1.95c.11,0,.22-.06.28-.16l5.1-8.37c.04-.06.04-.13,0-.2-.04-.06-.1-.1-.17-.1h-1.95c-.11,0-.22.06-.28.15ZM33.99,6.21h-1.67c-.13,0-.24.09-.26.22l-.05.34s-1.29-1.4-3.58-.45c-1.31.54-1.94,1.66-2.21,2.48,0,0-.85,2.49,1.07,3.87,0,0,1.79,1.32,3.8-.08l-.03.22c-.02.11.04.21.14.25.03.01.07.02.1.02h1.67c.13,0,.24-.09.26-.22l1.01-6.38c.02-.11-.04-.21-.14-.25-.03-.01-.07-.02-.1-.02h0ZM31.54,9.73c-.07.44-.29.85-.63,1.14-.34.29-.78.45-1.23.45-.18,0-.35-.02-.52-.08-.72-.23-1.13-.91-1.01-1.66.07-.45.29-.85.64-1.14.35-.29.79-.45,1.24-.44.18,0,.35.02.52.08.72.23,1.12.91,1,1.66h0ZM22.66,9.91c.9,0,1.77-.32,2.46-.9.68-.58,1.14-1.39,1.28-2.27.29-1.84-1.16-3.45-3.22-3.45h-3.31c-.13,0-.24.09-.26.22l-1.48,9.31c-.02.11.04.21.14.25.03.01.07.02.1.02h1.75c.13,0,.24-.09.26-.22l.43-2.73c.02-.13.13-.22.26-.22h1.59ZM24.12,6.64c-.11.68-.64,1.18-1.66,1.18h-1.3l.39-2.48h1.28c1.05,0,1.39.62,1.28,1.3h0Z"/>
      <path class="cls-1" d="M11.32,3.75c.04-2.06-1.66-3.63-3.99-3.63H2.51c-.23,0-.43.17-.47.4L.11,12.59c-.03.21.11.41.32.44.02,0,.04,0,.06,0h2.86l-.45,2.8c-.03.21.11.41.32.44.02,0,.04,0,.06,0h2.33c.11,0,.21-.04.3-.11.08-.07.1-.17.12-.29l.68-4.02c.02-.11.07-.25.16-.33.09-.07.16-.11.27-.11h1.42c2.28,0,4.22-1.62,4.58-3.88.25-1.6-.44-3.06-1.82-3.78h0Z"/>
      <path class="cls-3" d="M3.96,8.58l-.71,4.51-.45,2.83c-.03.21.11.41.32.44.02,0,.04,0,.06,0h2.46c.23,0,.43-.17.47-.4l.65-4.11c.04-.23.23-.4.47-.4h1.45c2.28,0,4.22-1.67,4.58-3.92.25-1.6-.56-3.06-1.93-3.78,0,.17-.02.34-.04.51-.35,2.26-2.29,3.92-4.58,3.92h-2.27c-.23,0-.43.17-.47.4"/>
      <path class="cls-2" d="M3.25,13.1H.38C.17,13.1,0,12.93,0,12.71c0-.02,0-.04,0-.06L1.94.4c.04-.23.23-.4.47-.4h4.93c2.33,0,4.03,1.7,3.99,3.75-.58-.3-1.26-.48-2.01-.48h-4.11c-.23,0-.43.17-.47.4l-.77,4.91-.71,4.51h0Z"/>
    </g>
  </g>
</svg>