<?xml version="1.0" encoding="UTF-8"?>
<svg id="Layer_2" data-name="Layer 2" xmlns="http://www.w3.org/2000/svg" viewBox="0 0 12.13 7.37">
  <defs>
    <style>
      .cls-1 {
        fill: #f79a46;
      }
    </style>
  </defs>
  <g id="Assets">
    <g>
      <path class="cls-1" d="M6.07,7.07c-.36,0-.69-.16-.95-.45L.4,1.18l.63-.73,4.72,5.43c.17.19.46.19.63,0L11.1.45l.63.73-4.72,5.43c-.25.29-.59.45-.95.45h0Z"/>
      <path class="cls-1" d="M6.07,7.37c-.44,0-.86-.2-1.17-.55L0,1.18,1.03,0l4.95,5.69c.07.08.12.07.18,0L11.1,0l1.03,1.18-4.89,5.63c-.31.36-.73.55-1.17.55ZM.79,1.18l4.55,5.24c.39.45,1.05.45,1.45,0L11.34,1.18l-.24-.27-4.5,5.17c-.28.31-.81.32-1.08,0L1.03.91l-.24.27Z"/>
    </g>
  </g>
</svg>