<?xml version="1.0" encoding="UTF-8"?>
<svg id="Layer_2" data-name="Layer 2" xmlns="http://www.w3.org/2000/svg" viewBox="0 0 25 25">
  <defs>
    <style>
      .cls-1 {
        fill: gray;
      }
    </style>
  </defs>
  <g id="Assets">
    <g id="Layer_2-2" data-name="Layer 2">
      <g id="_01.facebook" data-name=" 01.facebook">
        <path class="cls-1" d="M12.5,0C5.6,0,0,5.6,0,12.5s5.6,12.5,12.5,12.5,12.5-5.6,12.5-12.5S19.4,0,12.5,0ZM15.67,11.32l-.21,1.74c-.02.17-.16.29-.33.29h-1.81v5.16c0,.13-.1.23-.23.24h-1.84c-.13,0-.23-.11-.23-.24,0,0,0,0,0,0v-5.16s-1.36,0-1.36,0c-.18,0-.33-.15-.33-.33v-1.74c0-.18.15-.33.33-.33h1.36v-1.69c0-1.95,1.16-3.01,2.86-3.01h1.39c.18,0,.33.15.33.33v1.47c0,.18-.15.33-.33.33h-.85c-.92.01-1.1.46-1.1,1.12v1.46h2.03c.18,0,.33.15.32.34,0,.01,0,.02,0,.03h0Z"/>
      </g>
    </g>
  </g>
</svg>