<?xml version="1.0" encoding="UTF-8"?>
<svg id="Layer_2" data-name="Layer 2" xmlns="http://www.w3.org/2000/svg" viewBox="0 0 25 25">
  <defs>
    <style>
      .cls-1 {
        fill: gray;
      }
    </style>
  </defs>
  <g id="Assets">
    <g id="Layer_2-2" data-name="Layer 2">
      <g id="_05.instagram" data-name=" 05.instagram">
        <circle class="cls-1" cx="12.5" cy="12.5" r="1.98"/>
        <path class="cls-1" d="M15.03,7.51h-5.05c-1.36,0-2.47,1.1-2.47,2.47v5.05c0,1.36,1.1,2.47,2.47,2.47h5.05c1.36,0,2.47-1.1,2.47-2.47v-5.05c0-1.36-1.11-2.47-2.47-2.47ZM12.5,15.73c-1.79,0-3.23-1.45-3.24-3.23,0-1.79,1.45-3.23,3.23-3.24,1.79,0,3.23,1.45,3.24,3.23h0c0,1.79-1.45,3.23-3.23,3.24ZM15.75,10.07c-.44,0-.8-.36-.8-.8s.36-.8.8-.8c.44,0,.8.36.8.8,0,0,0,0,0,0,0,.44-.36.8-.8.8Z"/>
        <path class="cls-1" d="M12.5,0C5.6,0,0,5.6,0,12.5s5.6,12.5,12.5,12.5,12.5-5.6,12.5-12.5S19.4,0,12.5,0ZM18.75,15.03c0,2.06-1.67,3.72-3.72,3.72h-5.05c-2.06,0-3.72-1.67-3.72-3.72v-5.05c0-2.06,1.67-3.72,3.72-3.72h5.05c2.06,0,3.72,1.67,3.72,3.72v5.05Z"/>
      </g>
    </g>
  </g>
</svg>