<?xml version="1.0" encoding="UTF-8"?>
<svg id="Layer_2" data-name="Layer 2" xmlns="http://www.w3.org/2000/svg" viewBox="0 0 25 25">
  <defs>
    <style>
      .cls-1 {
        fill: gray;
      }
    </style>
  </defs>
  <g id="Assets">
    <g id="Layer_2-2" data-name="Layer 2">
      <g id="Color">
        <path id="_77.TikTok" data-name=" 77.TikTok" class="cls-1" d="M12.5,0C5.6,0,0,5.6,0,12.5s5.6,12.5,12.5,12.5,12.5-5.6,12.5-12.5S19.4,0,12.5,0ZM18.13,11.11c-1.12.12-2.07-.32-3.03-.88,0,.09.03,2.95-.02,4.31-.05,1.4-.55,2.63-1.64,3.55-2.33,1.95-5.63.9-6.41-2.09-.43-1.63-.06-3.09,1.22-4.25.72-.66,1.61-.95,2.56-1.07.2-.03.41-.04.63-.06v2.21c-.28.07-.56.13-.84.21-.19.06-.38.13-.56.21-.91.41-1.32,1.48-.91,2.39.07.15.15.28.25.4.43.6,1.16.9,1.89.8.72-.09,1.17-.54,1.44-1.19.18-.51.26-1.06.24-1.61,0-2.68,0-5.37-.01-8.05,0-.03,0-.06.01-.08h2.15c.24,1.8,1.15,2.93,3.06,3.1v2.09Z"/>
      </g>
    </g>
  </g>
</svg>